<svg width="726" height="658" viewBox="0 0 726 658" fill="none" xmlns="http://www.w3.org/2000/svg">
<path d="M95.0638 37.9419H625.092C637.471 37.9419 647.523 47.9936 647.523 60.3726V595.59C647.523 607.969 637.471 618.02 625.092 618.02H95.0638C82.6846 618.02 72.6327 607.969 72.6327 595.59V60.3726C72.6327 47.9936 82.6351 37.9419 95.0638 37.9419Z" fill="#00C2A4"/>
<path d="M45.6956 184.063H604.79C614.05 184.063 621.576 191.59 621.576 200.849V392.277C621.576 401.537 614.05 409.014 604.79 409.014H45.6956C36.4359 409.014 28.9589 401.487 28.9589 392.277V200.849C28.9093 191.59 36.4359 184.063 45.6956 184.063Z" fill="white"/>
<path d="M93.5288 236.401L91.3501 235.758C88.28 234.866 85.0614 234.866 81.9914 235.758L79.8127 236.401C79.0204 236.649 78.4757 237.392 78.4757 238.184V241.947H94.9153V238.184C94.8658 237.392 94.3211 236.649 93.5288 236.401Z" fill="#0D3546"/>
<path d="M86.6459 233.629C88.779 233.629 90.5082 231.899 90.5082 229.766C90.5082 227.633 88.779 225.904 86.6459 225.904C84.5128 225.904 82.7836 227.633 82.7836 229.766C82.7836 231.899 84.5128 233.629 86.6459 233.629Z" fill="#0D3546"/>
<path d="M96.9454 251.405H76.2969C74.96 251.405 73.8706 250.315 73.8706 248.929V221.151C73.8706 219.814 74.96 218.724 76.2969 218.675H96.9454C98.2824 218.675 99.4213 219.764 99.4213 221.151V248.929C99.4213 250.315 98.2824 251.454 96.9454 251.405ZM76.2969 219.764C75.5047 219.764 74.8609 220.408 74.8609 221.2V248.979C74.8609 249.771 75.5047 250.414 76.2969 250.414H96.9454C97.7377 250.414 98.3814 249.771 98.3814 248.979V221.2C98.3814 220.408 97.7377 219.764 96.9454 219.764H76.2969Z" fill="#0D3546"/>
<path d="M72.2861 250.91H70.1569C69.0675 250.91 68.2257 250.018 68.2257 248.979V221.2C68.2257 220.111 69.117 219.269 70.1569 219.269H72.2861V250.91Z" fill="#0D3546"/>
<path d="M139.431 240.115C139.134 243.482 137.846 246.156 135.668 248.038C133.489 249.919 130.617 250.86 127.002 250.86C124.477 250.86 122.249 250.266 120.317 249.077C118.386 247.889 116.901 246.156 115.861 243.977C114.821 241.799 114.276 239.224 114.227 236.302V233.331C114.227 230.36 114.771 227.687 115.811 225.409C116.851 223.131 118.386 221.398 120.367 220.16C122.348 218.922 124.625 218.328 127.25 218.328C130.765 218.328 133.538 219.269 135.717 221.151C137.846 223.032 139.084 225.706 139.431 229.172H133.934C133.687 226.894 132.994 225.26 131.954 224.221C130.914 223.181 129.329 222.686 127.25 222.686C124.873 222.686 123.041 223.577 121.753 225.31C120.466 227.043 119.822 229.618 119.773 232.985V235.807C119.773 239.224 120.367 241.848 121.605 243.631C122.843 245.413 124.625 246.354 127.002 246.354C129.181 246.354 130.765 245.859 131.855 244.918C132.944 243.977 133.637 242.343 133.934 240.066L139.431 240.115Z" fill="black"/>
<path d="M142.848 238.432C142.848 236.104 143.293 234.025 144.234 232.193C145.125 230.361 146.413 228.925 148.096 227.934C149.73 226.944 151.662 226.449 153.791 226.449C156.96 226.449 159.535 227.489 161.515 229.519C163.496 231.549 164.585 234.272 164.734 237.639V238.877C164.734 241.205 164.288 243.284 163.397 245.116C162.506 246.948 161.218 248.335 159.584 249.375C157.901 250.365 156.019 250.86 153.84 250.86C150.523 250.86 147.849 249.771 145.868 247.543C143.887 245.314 142.897 242.393 142.897 238.679L142.848 238.432ZM148.096 238.877C148.096 241.304 148.591 243.185 149.582 244.572C150.572 245.958 151.959 246.651 153.741 246.651C155.524 246.651 156.91 245.958 157.901 244.572C158.891 243.185 159.386 241.155 159.386 238.481C159.386 236.104 158.891 234.223 157.851 232.836C156.811 231.45 155.425 230.757 153.692 230.757C151.959 230.757 150.572 231.45 149.582 232.836C148.641 234.074 148.096 236.154 148.096 238.877Z" fill="black"/>
<path d="M174.093 226.845L174.241 229.568C175.974 227.489 178.252 226.399 181.074 226.399C185.977 226.399 188.453 229.222 188.552 234.817V250.365H183.253V235.114C183.253 233.629 182.907 232.49 182.263 231.796C181.619 231.103 180.579 230.707 179.094 230.707C176.965 230.707 175.38 231.648 174.34 233.579V250.315H169.042V226.795H174.093V226.845Z" fill="black"/>
<path d="M200.584 221.151V226.894H204.744V230.806H200.584V243.928C200.584 244.819 200.782 245.463 201.129 245.859C201.475 246.255 202.119 246.453 203.011 246.453C203.605 246.453 204.248 246.404 204.843 246.255V250.365C203.654 250.712 202.466 250.86 201.376 250.86C197.316 250.86 195.286 248.632 195.286 244.126V230.806H191.424V226.894H195.286V221.151H200.584Z" fill="black"/>
<path d="M222.867 250.414C222.619 249.969 222.421 249.226 222.272 248.236C220.589 249.969 218.509 250.86 216.083 250.86C213.706 250.86 211.775 250.167 210.289 248.83C208.804 247.493 208.061 245.809 208.061 243.829C208.061 241.304 209.002 239.372 210.834 238.036C212.716 236.699 215.34 236.005 218.806 236.005H222.025V234.47C222.025 233.232 221.678 232.292 220.985 231.549C220.292 230.806 219.252 230.46 217.865 230.46C216.677 230.46 215.687 230.757 214.894 231.351C214.102 231.945 213.756 232.737 213.756 233.629H208.457C208.457 232.341 208.903 231.153 209.745 230.014C210.587 228.875 211.775 227.984 213.26 227.39C214.746 226.746 216.38 226.449 218.212 226.449C220.985 226.449 223.164 227.142 224.798 228.528C226.432 229.915 227.274 231.846 227.323 234.371V244.968C227.323 247.097 227.62 248.78 228.215 250.018V250.365H222.867V250.414ZM217.073 246.602C218.113 246.602 219.103 246.354 220.044 245.859C220.985 245.364 221.678 244.671 222.124 243.829V239.372H219.252C217.271 239.372 215.835 239.719 214.845 240.412C213.855 241.105 213.359 242.046 213.359 243.284C213.359 244.324 213.706 245.116 214.35 245.71C214.994 246.305 215.934 246.602 217.073 246.602Z" fill="black"/>
<path d="M242.574 246.602C243.911 246.602 245.001 246.206 245.843 245.463C246.684 244.72 247.18 243.73 247.229 242.591H252.23C252.181 244.076 251.735 245.413 250.844 246.701C250.002 247.988 248.814 248.978 247.378 249.721C245.892 250.464 244.308 250.811 242.624 250.811C239.306 250.811 236.731 249.721 234.8 247.592C232.869 245.463 231.928 242.492 231.928 238.778V238.234C231.928 234.668 232.869 231.796 234.8 229.618C236.731 227.489 239.306 226.399 242.624 226.399C245.446 226.399 247.724 227.191 249.457 228.826C251.24 230.46 252.131 232.589 252.23 235.263H247.229C247.18 233.926 246.734 232.787 245.843 231.945C245.001 231.054 243.862 230.658 242.525 230.658C240.792 230.658 239.504 231.301 238.564 232.539C237.623 233.777 237.177 235.659 237.128 238.184V239.026C237.128 241.601 237.573 243.482 238.514 244.72C239.504 246.008 240.841 246.602 242.574 246.602Z" fill="black"/>
<path d="M262.876 221.151V226.894H267.036V230.806H262.876V243.928C262.876 244.819 263.074 245.463 263.421 245.859C263.768 246.255 264.411 246.453 265.303 246.453C265.897 246.453 266.541 246.404 267.135 246.255V250.365C265.946 250.712 264.758 250.86 263.669 250.86C259.608 250.86 257.578 248.632 257.578 244.126V230.806H253.716V226.894H257.578V221.151H262.876Z" fill="black"/>
<path d="M284.268 244.027C284.268 243.086 283.871 242.343 283.079 241.848C282.287 241.353 280.999 240.907 279.217 240.561C277.434 240.165 275.899 239.719 274.711 239.125C272.086 237.837 270.75 236.005 270.75 233.579C270.75 231.549 271.591 229.865 273.324 228.479C275.057 227.092 277.236 226.449 279.861 226.449C282.683 226.449 284.961 227.142 286.694 228.528C288.427 229.915 289.318 231.747 289.318 233.926H284.02C284.02 232.886 283.624 232.044 282.881 231.4C282.138 230.707 281.148 230.41 279.861 230.41C278.722 230.41 277.731 230.658 277.038 231.202C276.295 231.747 275.949 232.44 275.949 233.381C275.949 234.173 276.295 234.817 276.989 235.263C277.682 235.708 279.068 236.154 281.099 236.6C283.178 237.045 284.812 237.59 286.001 238.234C287.189 238.877 288.08 239.62 288.625 240.511C289.219 241.403 289.467 242.492 289.467 243.73C289.467 245.859 288.576 247.543 286.843 248.879C285.109 250.216 282.782 250.86 279.96 250.86C278.028 250.86 276.295 250.513 274.81 249.82C273.324 249.127 272.136 248.186 271.294 246.948C270.452 245.71 270.056 244.423 270.056 242.987H275.206C275.256 244.225 275.751 245.215 276.642 245.859C277.533 246.552 278.672 246.849 280.108 246.849C281.495 246.849 282.584 246.602 283.277 246.057C283.871 245.562 284.268 244.869 284.268 244.027Z" fill="black"/>
<path d="M537.001 302.654H689.315C692.385 302.654 694.911 305.179 694.911 308.249V350.436C694.911 353.506 692.385 356.032 689.315 356.032H537.001C533.931 356.032 531.406 353.506 531.406 350.436V308.249C531.456 305.13 533.931 302.654 537.001 302.654Z" fill="#146AFF"/>
<path d="M558.195 333.75H551.708L550.371 337.661H547.35L553.689 320.925H556.313L562.651 337.661H559.631L558.195 333.75ZM552.5 331.422H557.353L554.927 324.49L552.5 331.422Z" fill="white"/>
<path d="M577.902 332.215C577.754 333.997 577.061 335.384 575.922 336.374C574.783 337.364 573.248 337.859 571.317 337.859C569.98 337.859 568.791 337.562 567.801 336.919C566.811 336.275 566.018 335.384 565.474 334.245C564.929 333.106 564.632 331.72 564.632 330.185V328.6C564.632 327.016 564.929 325.629 565.474 324.441C566.018 323.252 566.811 322.312 567.9 321.668C568.94 321.024 570.128 320.677 571.515 320.677C573.347 320.677 574.832 321.173 575.971 322.163C577.11 323.153 577.754 324.589 577.952 326.421H575.08C574.931 325.233 574.585 324.342 574.04 323.797C573.495 323.252 572.654 323.005 571.564 323.005C570.326 323.005 569.336 323.45 568.643 324.391C567.95 325.332 567.603 326.669 567.603 328.451V329.937C567.603 331.769 567.95 333.106 568.593 334.096C569.237 335.037 570.178 335.532 571.416 335.532C572.555 335.532 573.396 335.285 573.991 334.74C574.585 334.245 574.931 333.354 575.08 332.165H577.902V332.215Z" fill="white"/>
<path d="M593.203 323.252H588.004V337.612H585.132V323.252H579.982V320.925H593.253L593.203 323.252Z" fill="white"/>
<path d="M598.947 337.661H596.075V320.925H598.947V337.661Z" fill="white"/>
<path d="M616.377 329.739C616.377 331.373 616.08 332.809 615.535 334.047C614.99 335.285 614.149 336.225 613.109 336.869C612.069 337.513 610.831 337.859 609.494 337.859C608.157 337.859 606.919 337.513 605.879 336.869C604.839 336.225 603.998 335.285 603.403 334.047C602.809 332.809 602.512 331.422 602.512 329.788V328.847C602.512 327.213 602.809 325.777 603.403 324.54C603.998 323.302 604.79 322.361 605.83 321.668C606.87 321.024 608.108 320.677 609.444 320.677C610.831 320.677 612.019 321.024 613.059 321.668C614.099 322.311 614.941 323.252 615.486 324.49C616.08 325.728 616.327 327.164 616.377 328.798V329.739ZM613.455 328.847C613.455 327.015 613.109 325.579 612.415 324.589C611.722 323.599 610.732 323.104 609.444 323.104C608.207 323.104 607.216 323.599 606.523 324.589C605.83 325.579 605.434 326.966 605.434 328.748V329.689C605.434 331.521 605.78 332.957 606.523 333.948C607.216 334.938 608.207 335.433 609.494 335.433C610.781 335.433 611.772 334.938 612.465 333.948C613.158 332.957 613.505 331.521 613.505 329.64L613.455 328.847Z" fill="white"/>
<path d="M633.014 337.661H630.093L622.666 325.827V337.661H619.744V320.925H622.666L630.142 332.809V320.925H633.014V337.661Z" fill="white"/>
<path d="M645.641 333.353C645.641 332.611 645.394 332.066 644.849 331.67C644.304 331.274 643.413 330.878 642.076 330.482C640.739 330.085 639.65 329.64 638.858 329.145C637.323 328.204 636.58 326.916 636.58 325.381C636.58 324.044 637.124 322.906 638.214 322.064C639.303 321.222 640.739 320.776 642.472 320.776C643.611 320.776 644.651 320.974 645.592 321.42C646.483 321.866 647.226 322.46 647.721 323.252C648.216 324.044 648.513 324.936 648.513 325.877H645.641C645.641 324.985 645.344 324.342 644.8 323.846C644.255 323.351 643.463 323.104 642.472 323.104C641.531 323.104 640.789 323.302 640.244 323.698C639.699 324.094 639.452 324.688 639.452 325.381C639.452 325.976 639.749 326.52 640.293 326.916C640.838 327.313 641.779 327.709 643.116 328.105C644.403 328.501 645.443 328.947 646.235 329.442C647.028 329.937 647.622 330.482 647.969 331.125C648.315 331.769 648.513 332.512 648.513 333.353C648.513 334.74 647.969 335.879 646.929 336.671C645.839 337.513 644.403 337.909 642.571 337.909C641.383 337.909 640.244 337.661 639.254 337.216C638.263 336.77 637.471 336.126 636.877 335.384C636.332 334.591 636.035 333.7 636.035 332.611H638.957C638.957 333.552 639.254 334.294 639.897 334.839C640.541 335.384 641.432 335.631 642.571 335.631C643.562 335.631 644.354 335.433 644.849 335.037C645.394 334.542 645.641 333.997 645.641 333.353Z" fill="white"/>
<path d="M85.21 297.851C85.0614 299.683 84.4177 301.119 83.1798 302.158C81.9914 303.198 80.3573 303.743 78.3766 303.743C76.1979 303.743 74.5143 303 73.2764 301.564C72.0385 300.128 71.3948 298.098 71.3948 295.573V294.533C71.3948 292.899 71.6919 291.463 72.2366 290.225C72.7812 288.987 73.623 288.046 74.7124 287.353C75.8018 286.66 76.9902 286.363 78.4262 286.363C80.3573 286.363 81.9419 286.908 83.1303 287.947C84.3187 288.987 85.0119 290.473 85.21 292.354H81.7438C81.6448 291.265 81.3476 290.473 80.8525 289.978C80.3573 289.482 79.5155 289.235 78.4757 289.235C77.3368 289.235 76.4455 289.631 75.8513 290.473C75.2571 291.314 74.96 292.602 74.96 294.335V295.622C74.96 297.454 75.2571 298.791 75.8018 299.633C76.3465 300.475 77.2378 300.921 78.4262 300.921C79.5155 300.921 80.3078 300.673 80.8525 300.178C81.3972 299.683 81.6943 298.94 81.7438 297.9H85.21V297.851Z" fill="#0D3546"/>
<path d="M90.5577 292.255C91.449 291.166 92.5879 290.671 93.9249 290.671C96.6483 290.671 98.0348 292.255 98.0843 295.424V303.446H94.7172V295.474C94.7172 294.731 94.5686 294.236 94.2715 293.889C93.9744 293.543 93.4297 293.394 92.7365 293.394C91.7461 293.394 91.0529 293.79 90.6073 294.533V303.446H87.2401V285.62H90.6073L90.5577 292.255Z" fill="#0D3546"/>
<path d="M107.839 303.446C107.691 303.149 107.592 302.753 107.493 302.307C106.7 303.198 105.611 303.644 104.324 303.644C103.086 303.644 102.095 303.297 101.253 302.555C100.461 301.861 100.065 300.97 100.065 299.881C100.065 298.544 100.56 297.554 101.551 296.811C102.541 296.068 103.977 295.721 105.809 295.721H107.344V294.979C107.344 294.384 107.195 293.939 106.898 293.592C106.601 293.246 106.106 293.048 105.512 293.048C104.967 293.048 104.522 293.196 104.175 293.444C103.878 293.691 103.68 294.087 103.68 294.583H100.313C100.313 293.84 100.56 293.196 101.006 292.552C101.452 291.909 102.095 291.463 102.888 291.116C103.729 290.77 104.621 290.572 105.66 290.572C107.195 290.572 108.433 290.968 109.325 291.76C110.216 292.552 110.711 293.642 110.711 295.028V300.475C110.711 301.663 110.909 302.555 111.206 303.198V303.396L107.839 303.446ZM105.066 301.119C105.561 301.119 106.007 301.02 106.453 300.772C106.849 300.574 107.195 300.277 107.394 299.881V297.702H106.156C104.472 297.702 103.581 298.296 103.482 299.435V299.633C103.482 300.029 103.63 300.376 103.927 300.673C104.224 300.97 104.571 301.119 105.066 301.119Z" fill="#0D3546"/>
<path d="M116.406 290.918L116.505 292.354C117.396 291.215 118.584 290.671 120.119 290.671C121.456 290.671 122.447 291.067 123.09 291.859C123.734 292.651 124.081 293.79 124.081 295.375V303.495H120.713V295.424C120.713 294.731 120.565 294.186 120.268 293.889C119.971 293.592 119.426 293.394 118.733 293.394C117.792 293.394 117.099 293.79 116.604 294.583V303.446H113.236V290.869L116.406 290.918Z" fill="#0D3546"/>
<path d="M133.885 303.446C133.736 303.149 133.637 302.753 133.538 302.307C132.746 303.198 131.657 303.644 130.369 303.644C129.131 303.644 128.141 303.297 127.299 302.555C126.507 301.861 126.111 300.97 126.111 299.881C126.111 298.544 126.606 297.554 127.596 296.811C128.587 296.068 130.023 295.721 131.855 295.721H133.39V294.979C133.39 294.384 133.241 293.939 132.944 293.592C132.647 293.246 132.152 293.048 131.558 293.048C131.013 293.048 130.567 293.196 130.221 293.444C129.924 293.691 129.726 294.087 129.726 294.583H126.358C126.358 293.84 126.606 293.196 127.052 292.552C127.497 291.909 128.141 291.463 128.933 291.116C129.775 290.77 130.666 290.572 131.706 290.572C133.241 290.572 134.479 290.968 135.37 291.76C136.262 292.552 136.757 293.642 136.757 295.028V300.475C136.757 301.663 136.955 302.555 137.252 303.198V303.396L133.885 303.446ZM131.112 301.119C131.607 301.119 132.053 301.02 132.499 300.772C132.895 300.574 133.241 300.277 133.439 299.881V297.702H132.152C130.468 297.702 129.577 298.296 129.478 299.435V299.633C129.478 300.029 129.627 300.376 129.924 300.673C130.221 300.97 130.617 301.119 131.112 301.119Z" fill="#0D3546"/>
<path d="M152.305 286.561H155.771V298.247C155.771 299.336 155.524 300.277 155.078 301.119C154.583 301.96 153.939 302.555 153.048 303.05C152.206 303.495 151.216 303.743 150.126 303.743C148.344 303.743 146.957 303.297 145.967 302.357C144.977 301.465 144.482 300.178 144.482 298.494H147.997C147.997 299.336 148.195 299.93 148.542 300.326C148.889 300.723 149.433 300.921 150.176 300.921C150.82 300.921 151.364 300.673 151.761 300.227C152.157 299.782 152.355 299.138 152.355 298.296V286.561H152.305Z" fill="#0D3546"/>
<path d="M158 297.058C158 295.82 158.247 294.682 158.742 293.741C159.238 292.75 159.931 292.008 160.822 291.463C161.713 290.918 162.753 290.671 163.942 290.671C165.625 290.671 167.012 291.166 168.101 292.206C169.191 293.246 169.785 294.632 169.884 296.415V297.256C169.884 299.188 169.339 300.723 168.25 301.911C167.16 303.099 165.724 303.644 163.942 303.644C162.11 303.644 160.674 303.05 159.584 301.911C158.495 300.772 157.95 299.188 157.95 297.157L158 297.058ZM161.367 297.306C161.367 298.494 161.614 299.435 162.06 300.029C162.506 300.673 163.149 300.97 163.991 300.97C164.784 300.97 165.427 300.673 165.873 300.029C166.319 299.386 166.566 298.395 166.566 297.058C166.566 295.87 166.319 294.979 165.873 294.335C165.427 293.691 164.784 293.394 163.942 293.394C163.1 293.394 162.506 293.691 162.06 294.335C161.614 294.979 161.367 295.969 161.367 297.306Z" fill="#0D3546"/>
<path d="M175.083 290.918L175.182 292.354C176.073 291.215 177.262 290.671 178.797 290.671C180.134 290.671 181.124 291.067 181.768 291.859C182.412 292.651 182.758 293.79 182.758 295.375V303.495H179.391V295.424C179.391 294.731 179.242 294.186 178.945 293.889C178.648 293.592 178.104 293.394 177.41 293.394C176.469 293.394 175.776 293.79 175.281 294.583V303.446H171.914V290.869L175.083 290.918Z" fill="#0D3546"/>
<path d="M191.077 303.693C189.245 303.693 187.759 303.149 186.571 302.01C185.432 300.871 184.838 299.386 184.838 297.504V297.157C184.838 295.919 185.085 294.781 185.581 293.79C186.076 292.8 186.769 292.008 187.66 291.513C188.552 290.968 189.591 290.72 190.73 290.72C192.463 290.72 193.8 291.265 194.791 292.354C195.781 293.444 196.276 294.979 196.276 296.959V298.346H188.304C188.403 299.188 188.75 299.831 189.294 300.326C189.839 300.822 190.532 301.069 191.374 301.069C192.661 301.069 193.652 300.623 194.395 299.683L196.029 301.515C195.533 302.208 194.84 302.802 193.998 303.198C193.058 303.495 192.117 303.693 191.077 303.693ZM190.681 293.394C190.037 293.394 189.492 293.642 189.047 294.087C188.651 294.533 188.353 295.177 188.254 296.019H192.909V295.771C192.909 295.028 192.711 294.434 192.315 294.038C191.968 293.592 191.374 293.394 190.681 293.394Z" fill="#0D3546"/>
<path d="M204.942 299.98C204.942 299.584 204.744 299.237 204.347 298.99C203.951 298.742 203.308 298.544 202.416 298.346C199.445 297.702 197.96 296.464 197.96 294.533C197.96 293.394 198.405 292.503 199.346 291.76C200.287 291.017 201.475 290.621 202.961 290.621C204.546 290.621 205.833 291.017 206.774 291.76C207.715 292.503 208.21 293.493 208.21 294.682H204.843C204.843 294.186 204.694 293.79 204.397 293.493C204.1 293.196 203.605 293.048 202.961 293.048C202.416 293.048 201.971 293.196 201.674 293.444C201.376 293.691 201.228 294.038 201.228 294.434C201.228 294.83 201.426 295.127 201.773 295.325C202.119 295.573 202.713 295.771 203.555 295.92C204.397 296.068 205.09 296.266 205.684 296.464C207.467 297.108 208.358 298.247 208.358 299.831C208.358 300.97 207.863 301.911 206.873 302.604C205.882 303.297 204.645 303.644 203.06 303.644C202.02 303.644 201.079 303.446 200.238 303.099C199.445 302.703 198.802 302.208 198.306 301.564C197.861 300.921 197.613 300.227 197.613 299.435H200.782C200.832 300.029 201.03 300.475 201.426 300.822C201.822 301.168 202.367 301.317 203.06 301.317C203.704 301.317 204.199 301.218 204.496 300.97C204.793 300.723 204.942 300.376 204.942 299.98Z" fill="#0D3546"/>
<path d="M77.9806 328.749L82.7837 314.835H85.21L78.9214 331.72H76.9407L70.7511 314.785H73.1774L77.9806 328.749Z" fill="#0D3546"/>
<path d="M89.716 325.084V331.719H87.4878V314.835H93.7269C95.559 314.835 97.0445 315.33 98.0844 316.271C99.1242 317.211 99.6689 318.449 99.6689 320.034C99.6689 321.668 99.1738 322.955 98.1339 323.846C97.0941 324.738 95.6581 325.183 93.7269 325.183H89.716V325.084ZM89.716 323.252H93.7269C94.9153 323.252 95.8066 322.955 96.4503 322.411C97.094 321.866 97.3912 321.024 97.3912 319.984C97.3912 318.994 97.094 318.152 96.4503 317.558C95.8066 316.964 94.9648 316.617 93.8259 316.617H89.716V323.252Z" fill="#0D3546"/>
<path d="M107.493 325.282C107.493 324.045 107.74 322.955 108.235 321.965C108.73 320.975 109.374 320.232 110.266 319.687C111.107 319.142 112.098 318.895 113.237 318.895C114.97 318.895 116.307 319.489 117.396 320.677C118.436 321.866 118.98 323.45 118.98 325.381V325.53C118.98 326.768 118.733 327.857 118.287 328.798C117.842 329.788 117.148 330.531 116.257 331.076C115.366 331.62 114.375 331.868 113.237 331.868C111.553 331.868 110.166 331.274 109.077 330.085C108.037 328.897 107.493 327.313 107.493 325.381V325.282ZM109.622 325.58C109.622 326.966 109.968 328.105 110.612 328.947C111.256 329.788 112.147 330.234 113.187 330.234C114.276 330.234 115.168 329.788 115.762 328.947C116.406 328.105 116.703 326.916 116.703 325.332C116.703 323.946 116.356 322.856 115.712 321.965C115.069 321.123 114.177 320.677 113.088 320.677C112.048 320.677 111.157 321.123 110.513 321.965C109.968 322.807 109.622 323.995 109.622 325.58Z" fill="#0D3546"/>
<path d="M122.645 331.719V320.826H120.664V319.142H122.645V317.855C122.645 316.518 122.991 315.478 123.734 314.736C124.477 313.993 125.467 313.646 126.804 313.646C127.299 313.646 127.794 313.696 128.29 313.844L128.191 315.577C127.844 315.528 127.448 315.478 127.052 315.478C126.359 315.478 125.814 315.676 125.418 316.072C125.022 316.469 124.873 317.063 124.873 317.806V319.142H127.547V320.826H124.873V331.719H122.645Z" fill="#0D3546"/>
<path d="M145.373 324.243H138.292V331.719H136.064V314.835H146.512V316.667H138.292V322.46H145.373V324.243Z" fill="#0D3546"/>
<path d="M148.889 315.825C148.889 315.478 148.988 315.181 149.186 314.934C149.384 314.686 149.73 314.587 150.127 314.587C150.523 314.587 150.869 314.686 151.067 314.934C151.265 315.181 151.414 315.478 151.414 315.825C151.414 316.172 151.315 316.469 151.067 316.716C150.869 316.964 150.523 317.063 150.127 317.063C149.73 317.063 149.384 316.964 149.186 316.716C148.988 316.469 148.889 316.172 148.889 315.825ZM151.216 331.719H149.087V319.142H151.216V331.719Z" fill="#0D3546"/>
<path d="M156.663 319.142L156.712 320.727C157.653 319.539 158.941 318.895 160.476 318.895C163.149 318.895 164.486 320.38 164.486 323.401V331.719H162.357V323.401C162.357 322.51 162.159 321.816 161.713 321.371C161.317 320.925 160.674 320.727 159.832 320.727C159.139 320.727 158.544 320.925 158 321.272C157.455 321.668 157.059 322.113 156.762 322.757V331.719H154.633V319.142H156.663Z" fill="#0D3546"/>
<path d="M175.479 331.719C175.331 331.472 175.232 331.026 175.182 330.383C174.192 331.422 173.003 331.918 171.617 331.918C170.379 331.918 169.389 331.571 168.547 330.878C167.755 330.184 167.358 329.293 167.358 328.204C167.358 326.916 167.854 325.877 168.844 325.134C169.834 324.391 171.221 324.045 173.053 324.045H175.133V323.054C175.133 322.311 174.885 321.717 174.439 321.272C173.994 320.826 173.35 320.628 172.459 320.628C171.716 320.628 171.072 320.826 170.527 321.222C170.032 321.618 169.735 322.064 169.735 322.609H167.556C167.556 321.965 167.755 321.371 168.2 320.776C168.646 320.182 169.24 319.737 170.032 319.39C170.775 319.043 171.617 318.895 172.558 318.895C173.994 318.895 175.133 319.241 175.974 319.984C176.816 320.727 177.212 321.717 177.262 322.955V328.749C177.262 329.887 177.41 330.828 177.707 331.521V331.719H175.479ZM171.914 330.085C172.607 330.085 173.201 329.887 173.845 329.541C174.439 329.194 174.885 328.749 175.133 328.204V325.629H173.449C170.825 325.629 169.488 326.421 169.488 327.956C169.488 328.65 169.735 329.145 170.181 329.541C170.676 329.887 171.221 330.085 171.914 330.085Z" fill="#0D3546"/>
<path d="M182.709 319.142L182.758 320.727C183.699 319.539 184.986 318.895 186.521 318.895C189.195 318.895 190.532 320.38 190.532 323.401V331.719H188.403V323.401C188.403 322.51 188.205 321.816 187.759 321.371C187.363 320.925 186.72 320.727 185.878 320.727C185.184 320.727 184.59 320.925 184.046 321.272C183.501 321.668 183.105 322.113 182.808 322.757V331.719H180.678V319.142H182.709Z" fill="#0D3546"/>
<path d="M198.802 330.184C199.544 330.184 200.238 329.937 200.832 329.491C201.426 329.046 201.723 328.451 201.773 327.758H203.803C203.753 328.501 203.506 329.145 203.06 329.788C202.614 330.432 201.971 330.977 201.228 331.323C200.485 331.67 199.643 331.918 198.802 331.918C197.069 331.918 195.732 331.323 194.741 330.184C193.751 329.046 193.206 327.461 193.206 325.48V325.134C193.206 323.896 193.454 322.807 193.899 321.866C194.345 320.925 194.989 320.182 195.831 319.638C196.672 319.093 197.663 318.845 198.802 318.845C200.188 318.845 201.376 319.291 202.317 320.133C203.258 320.975 203.753 322.064 203.803 323.401H201.773C201.723 322.609 201.426 321.915 200.832 321.42C200.287 320.875 199.594 320.628 198.802 320.628C197.712 320.628 196.87 321.024 196.276 321.816C195.682 322.609 195.385 323.747 195.385 325.233V325.629C195.385 327.065 195.682 328.204 196.276 328.947C196.87 329.788 197.712 330.184 198.802 330.184Z" fill="#0D3546"/>
<path d="M211.428 331.918C209.745 331.918 208.358 331.373 207.269 330.234C206.18 329.095 205.684 327.61 205.684 325.728V325.332C205.684 324.094 205.932 322.955 206.378 322.014C206.873 321.024 207.517 320.281 208.358 319.737C209.2 319.192 210.141 318.895 211.131 318.895C212.765 318.895 214.053 319.44 214.944 320.529C215.835 321.618 216.281 323.153 216.281 325.134V326.025H207.764C207.814 327.263 208.16 328.253 208.854 329.046C209.547 329.788 210.438 330.185 211.478 330.185C212.221 330.185 212.864 330.036 213.409 329.739C213.954 329.442 214.399 328.996 214.796 328.501L216.083 329.541C215.093 331.125 213.558 331.918 211.428 331.918ZM211.181 320.677C210.339 320.677 209.596 320.975 209.002 321.618C208.408 322.262 208.061 323.153 207.913 324.292H214.201V324.144C214.152 323.054 213.855 322.212 213.31 321.618C212.765 320.975 212.072 320.677 211.181 320.677Z" fill="#0D3546"/>
<path d="M81.6943 353.11H74.6134V360.587H72.3851V343.702H82.8332V345.534H74.6134V351.328H81.6943V353.11Z" fill="#0D3546"/>
<path d="M85.21 344.693C85.21 344.346 85.309 344.049 85.5071 343.801C85.7051 343.554 86.0517 343.455 86.4479 343.455C86.844 343.455 87.1906 343.554 87.3887 343.801C87.5868 344.049 87.7353 344.346 87.7353 344.693C87.7353 345.039 87.6363 345.336 87.3887 345.584C87.1906 345.832 86.844 345.931 86.4479 345.931C86.0517 345.931 85.7051 345.832 85.5071 345.584C85.309 345.287 85.21 345.039 85.21 344.693ZM87.5372 360.538H85.408V347.961H87.5372V360.538Z" fill="#0D3546"/>
<path d="M92.9842 348.01L93.0337 349.595C93.9745 348.406 95.2619 347.763 96.797 347.763C99.4709 347.763 100.808 349.248 100.808 352.269V360.587H98.6786V352.269C98.6786 351.377 98.4805 350.684 98.0349 350.238C97.6387 349.793 96.995 349.595 96.1532 349.595C95.46 349.595 94.8658 349.793 94.3211 350.139C93.7764 350.536 93.3803 350.981 93.0832 351.625V360.587H90.954V348.01H92.9842Z" fill="#0D3546"/>
<path d="M111.801 360.538C111.652 360.29 111.553 359.845 111.503 359.201C110.513 360.241 109.325 360.736 107.938 360.736C106.7 360.736 105.71 360.389 104.868 359.696C104.076 359.003 103.68 358.111 103.68 357.022C103.68 355.735 104.175 354.695 105.165 353.952C106.156 353.209 107.542 352.863 109.374 352.863H111.454V351.872C111.454 351.13 111.206 350.536 110.761 350.09C110.315 349.644 109.671 349.446 108.78 349.446C108.037 349.446 107.394 349.644 106.849 350.04C106.354 350.437 106.057 350.882 106.057 351.427H103.878C103.878 350.783 104.076 350.189 104.522 349.595C104.967 349.001 105.561 348.555 106.354 348.208C107.096 347.862 107.938 347.713 108.879 347.713C110.315 347.713 111.454 348.06 112.296 348.802C113.138 349.545 113.534 350.536 113.583 351.773V357.567C113.583 358.706 113.732 359.646 114.029 360.34V360.538H111.801ZM108.235 358.904C108.929 358.904 109.523 358.706 110.167 358.359C110.761 358.012 111.206 357.567 111.454 357.022V354.447H109.77C107.146 354.447 105.809 355.24 105.809 356.775C105.809 357.468 106.057 357.963 106.502 358.359C106.997 358.706 107.542 358.904 108.235 358.904Z" fill="#0D3546"/>
<path d="M119.03 348.01L119.079 349.595C120.02 348.406 121.308 347.763 122.843 347.763C125.517 347.763 126.854 349.248 126.854 352.269V360.587H124.724V352.269C124.724 351.377 124.526 350.684 124.081 350.238C123.685 349.793 123.041 349.595 122.199 349.595C121.506 349.595 120.912 349.793 120.367 350.139C119.822 350.536 119.426 350.981 119.129 351.625V360.587H117V348.01H119.03Z" fill="#0D3546"/>
<path d="M135.123 359.052C135.866 359.052 136.559 358.805 137.153 358.359C137.747 357.913 138.044 357.319 138.094 356.626H140.124C140.075 357.369 139.827 358.012 139.381 358.656C138.936 359.3 138.292 359.845 137.549 360.191C136.807 360.538 135.965 360.785 135.123 360.785C133.39 360.785 132.053 360.191 131.063 359.052C130.072 357.913 129.528 356.329 129.528 354.348V354.002C129.528 352.764 129.775 351.674 130.221 350.734C130.666 349.793 131.31 349.05 132.152 348.505C132.994 347.961 133.984 347.713 135.123 347.713C136.509 347.713 137.698 348.159 138.639 349.001C139.58 349.842 140.075 350.932 140.124 352.269H138.094C138.044 351.476 137.747 350.783 137.153 350.288C136.609 349.743 135.915 349.496 135.123 349.496C134.034 349.496 133.192 349.892 132.598 350.684C132.003 351.476 131.706 352.615 131.706 354.101V354.497C131.706 355.933 132.003 357.072 132.598 357.814C133.192 358.656 134.034 359.052 135.123 359.052Z" fill="#0D3546"/>
<path d="M147.75 360.785C146.066 360.785 144.68 360.241 143.59 359.102C142.501 357.963 142.006 356.477 142.006 354.596V354.2C142.006 352.962 142.253 351.823 142.699 350.882C143.194 349.892 143.838 349.149 144.68 348.604C145.521 348.06 146.462 347.763 147.453 347.763C149.087 347.763 150.374 348.307 151.265 349.397C152.157 350.486 152.602 352.021 152.602 354.002V354.893H144.085C144.135 356.131 144.482 357.121 145.175 357.913C145.868 358.656 146.759 359.052 147.799 359.052C148.542 359.052 149.186 358.904 149.73 358.607C150.275 358.31 150.721 357.864 151.117 357.369L152.404 358.409C151.414 359.993 149.879 360.785 147.75 360.785ZM147.502 349.545C146.66 349.545 145.918 349.842 145.323 350.486C144.729 351.13 144.383 352.021 144.234 353.16H150.523V353.011C150.473 351.922 150.176 351.08 149.631 350.486C149.087 349.842 148.393 349.545 147.502 349.545Z" fill="#0D3546"/>
<path d="M306.996 301.515C307.739 301.515 308.333 301.317 308.877 300.871C309.422 300.426 309.719 299.881 309.769 299.237H311.7C311.65 299.93 311.452 300.574 311.007 301.168C310.561 301.762 310.016 302.258 309.274 302.654C308.531 303.05 307.788 303.198 306.996 303.198C305.362 303.198 304.074 302.654 303.133 301.564C302.193 300.475 301.698 298.99 301.698 297.108V296.761C301.698 295.622 301.896 294.583 302.341 293.691C302.787 292.8 303.381 292.107 304.173 291.612C304.966 291.117 305.906 290.869 306.996 290.869C308.333 290.869 309.422 291.265 310.313 292.057C311.205 292.85 311.65 293.889 311.749 295.177H309.818C309.769 294.385 309.472 293.79 308.927 293.295C308.382 292.8 307.739 292.553 306.996 292.553C305.956 292.553 305.164 292.949 304.569 293.691C304.025 294.434 303.728 295.523 303.728 296.91V297.306C303.728 298.692 304.025 299.732 304.569 300.475C305.164 301.168 305.956 301.515 306.996 301.515Z" fill="#0D3546"/>
<path d="M316.057 292.503C316.949 291.414 318.137 290.819 319.573 290.819C322.098 290.819 323.336 292.255 323.386 295.078V302.951H321.356V295.078C321.356 294.236 321.158 293.592 320.762 293.196C320.365 292.8 319.771 292.602 318.979 292.602C318.335 292.602 317.741 292.8 317.246 293.147C316.751 293.493 316.355 293.939 316.057 294.533V303H314.027V286.115H316.057V292.503Z" fill="#0D3546"/>
<path d="M333.784 303C333.685 302.753 333.586 302.357 333.487 301.762C332.547 302.753 331.408 303.248 330.12 303.248C328.932 303.248 327.991 302.901 327.248 302.258C326.506 301.614 326.109 300.772 326.109 299.732C326.109 298.494 326.605 297.554 327.545 296.86C328.486 296.167 329.823 295.821 331.507 295.821H333.487V294.88C333.487 294.187 333.289 293.592 332.844 293.196C332.398 292.751 331.804 292.553 330.962 292.553C330.219 292.553 329.625 292.751 329.13 293.097C328.635 293.444 328.387 293.889 328.387 294.434H326.357C326.357 293.84 326.555 293.246 327.001 292.701C327.446 292.156 327.991 291.711 328.734 291.364C329.476 291.018 330.269 290.869 331.111 290.869C332.497 290.869 333.537 291.216 334.329 291.909C335.121 292.602 335.518 293.543 335.518 294.731V300.227C335.518 301.317 335.666 302.208 335.914 302.852V303.05L333.784 303ZM330.417 301.416C331.061 301.416 331.655 301.267 332.249 300.921C332.844 300.574 333.24 300.178 333.487 299.633V297.207H331.903C329.427 297.207 328.189 297.95 328.189 299.386C328.189 300.029 328.387 300.525 328.833 300.871C329.179 301.267 329.724 301.416 330.417 301.416Z" fill="#0D3546"/>
<path d="M340.618 291.067L340.667 292.553C341.559 291.414 342.747 290.819 344.232 290.819C346.758 290.819 347.996 292.255 348.045 295.078V302.951H346.015V295.078C346.015 294.236 345.817 293.592 345.421 293.196C345.025 292.8 344.43 292.602 343.638 292.602C342.994 292.602 342.4 292.8 341.905 293.147C341.41 293.493 341.014 293.939 340.717 294.533V303H338.687V291.117L340.618 291.067Z" fill="#0D3546"/>
<path d="M358.444 303C358.345 302.753 358.246 302.357 358.147 301.762C357.206 302.753 356.067 303.248 354.78 303.248C353.591 303.248 352.65 302.901 351.908 302.258C351.165 301.614 350.769 300.772 350.769 299.732C350.769 298.494 351.264 297.554 352.205 296.86C353.145 296.167 354.482 295.821 356.166 295.821H358.147V294.88C358.147 294.187 357.949 293.592 357.503 293.196C357.057 292.751 356.463 292.553 355.621 292.553C354.879 292.553 354.284 292.751 353.789 293.097C353.294 293.444 353.046 293.889 353.046 294.434H351.016C351.016 293.84 351.214 293.246 351.66 292.701C352.106 292.156 352.65 291.711 353.393 291.364C354.136 291.018 354.928 290.869 355.77 290.869C357.156 290.869 358.196 291.216 358.988 291.909C359.781 292.602 360.177 293.543 360.177 294.731V300.227C360.177 301.317 360.325 302.208 360.573 302.852V303.05L358.444 303ZM355.077 301.416C355.72 301.416 356.315 301.267 356.909 300.921C357.503 300.574 357.899 300.178 358.147 299.633V297.207H356.562C354.086 297.207 352.848 297.95 352.848 299.386C352.848 300.029 353.046 300.525 353.492 300.871C353.839 301.267 354.383 301.416 355.077 301.416Z" fill="#0D3546"/>
<path d="M365.426 291.067V304.337C365.426 306.615 364.386 307.754 362.306 307.754C361.86 307.754 361.464 307.704 361.068 307.556V305.922C361.316 305.971 361.613 306.021 362.009 306.021C362.455 306.021 362.801 305.922 363.049 305.674C363.296 305.427 363.395 304.981 363.395 304.387V291.067H365.426ZM363.197 287.947C363.197 287.601 363.296 287.353 363.494 287.106C363.693 286.858 363.99 286.759 364.386 286.759C364.782 286.759 365.079 286.858 365.277 287.106C365.475 287.353 365.574 287.601 365.574 287.947C365.574 288.294 365.475 288.542 365.277 288.789C365.079 288.987 364.782 289.136 364.386 289.136C363.99 289.136 363.693 289.037 363.494 288.789C363.296 288.542 363.197 288.245 363.197 287.947Z" fill="#0D3546"/>
<path d="M368.199 296.91C368.199 295.722 368.446 294.682 368.892 293.79C369.337 292.85 369.981 292.156 370.823 291.612C371.665 291.067 372.556 290.869 373.645 290.869C375.28 290.869 376.567 291.414 377.557 292.553C378.548 293.691 379.043 295.177 379.043 297.009V297.157C379.043 298.296 378.845 299.336 378.399 300.277C377.953 301.218 377.31 301.911 376.517 302.406C375.676 302.901 374.735 303.198 373.695 303.198C372.061 303.198 370.773 302.654 369.783 301.515C368.793 300.376 368.298 298.891 368.298 297.058V296.91H368.199ZM370.229 297.157C370.229 298.494 370.526 299.534 371.17 300.327C371.764 301.119 372.606 301.515 373.645 301.515C374.685 301.515 375.478 301.119 376.121 300.277C376.716 299.485 377.013 298.346 377.013 296.86C377.013 295.573 376.715 294.484 376.072 293.691C375.428 292.899 374.636 292.453 373.596 292.453C372.606 292.453 371.764 292.85 371.17 293.642C370.526 294.533 370.229 295.672 370.229 297.157Z" fill="#0D3546"/>
<path d="M383.499 291.067L383.549 292.553C384.44 291.414 385.629 290.819 387.114 290.819C389.639 290.819 390.877 292.255 390.927 295.078V302.951H388.897V295.078C388.897 294.236 388.699 293.592 388.302 293.196C387.906 292.8 387.312 292.602 386.52 292.602C385.876 292.602 385.282 292.8 384.787 293.147C384.292 293.493 383.895 293.939 383.598 294.533V303H381.568V291.117L383.499 291.067Z" fill="#0D3546"/>
<path d="M398.899 303.198C397.265 303.198 395.977 302.654 394.987 301.614C393.997 300.574 393.452 299.138 393.452 297.356V296.959C393.452 295.771 393.7 294.731 394.145 293.79C394.591 292.85 395.235 292.156 396.027 291.612C396.819 291.067 397.711 290.819 398.651 290.819C400.186 290.819 401.424 291.315 402.266 292.354C403.108 293.394 403.554 294.83 403.554 296.712V297.554H395.482C395.532 298.742 395.878 299.683 396.522 300.376C397.166 301.119 398.008 301.465 399.048 301.465C399.79 301.465 400.385 301.317 400.88 301.02C401.375 300.723 401.82 300.326 402.167 299.831L403.405 300.822C402.415 302.406 400.929 303.198 398.899 303.198ZM398.651 292.553C397.81 292.553 397.166 292.85 396.572 293.444C396.027 294.038 395.68 294.88 395.532 295.969H401.474V295.821C401.424 294.781 401.127 293.988 400.632 293.394C400.186 292.8 399.493 292.553 398.651 292.553Z" fill="#0D3546"/>
<path d="M412.813 299.831C412.813 299.287 412.615 298.841 412.17 298.544C411.773 298.247 411.031 297.999 409.991 297.752C408.951 297.554 408.159 297.257 407.515 296.959C406.871 296.662 406.475 296.266 406.178 295.87C405.881 295.424 405.732 294.929 405.732 294.335C405.732 293.345 406.129 292.552 406.97 291.859C407.812 291.166 408.852 290.869 410.139 290.869C411.476 290.869 412.566 291.216 413.408 291.909C414.249 292.602 414.645 293.493 414.645 294.583H412.615C412.615 294.038 412.368 293.543 411.922 293.147C411.427 292.751 410.833 292.553 410.139 292.553C409.397 292.553 408.802 292.701 408.406 293.048C408.01 293.394 407.763 293.79 407.763 294.335C407.763 294.83 407.961 295.177 408.357 295.424C408.753 295.672 409.446 295.92 410.486 296.118C411.526 296.365 412.318 296.613 412.962 296.91C413.606 297.207 414.051 297.603 414.348 298.049C414.645 298.494 414.794 299.039 414.794 299.683C414.794 300.723 414.348 301.614 413.507 302.258C412.665 302.901 411.575 303.198 410.189 303.198C409.248 303.198 408.406 303.05 407.664 302.703C406.921 302.357 406.376 301.911 405.93 301.267C405.534 300.673 405.287 300.029 405.287 299.287H407.317C407.366 299.98 407.614 300.525 408.159 300.921C408.654 301.317 409.347 301.515 410.189 301.515C410.981 301.515 411.575 301.366 412.021 301.069C412.615 300.772 412.813 300.327 412.813 299.831Z" fill="#0D3546"/>
<path d="M435.096 297.455C434.997 299.237 434.551 300.624 433.759 301.663C432.967 302.703 431.927 303.198 430.59 303.198C429.203 303.198 428.362 302.604 427.965 301.366C427.569 302.01 427.124 302.456 426.629 302.753C426.133 303.05 425.589 303.198 425.044 303.198C424.004 303.198 423.212 302.753 422.667 301.911C422.122 301.069 421.924 299.881 422.073 298.395C422.172 297.207 422.469 296.118 422.915 295.177C423.36 294.236 423.905 293.493 424.648 292.949C425.341 292.404 426.084 292.156 426.876 292.156C427.47 292.156 428.015 292.255 428.461 292.404C428.906 292.552 429.451 292.85 430.045 293.345L429.451 299.435C429.302 301.119 429.798 301.96 430.837 301.96C431.679 301.96 432.323 301.564 432.868 300.723C433.363 299.881 433.66 298.841 433.709 297.504C433.858 294.632 433.313 292.503 432.125 290.968C430.936 289.433 429.104 288.74 426.678 288.74C425.193 288.74 423.905 289.086 422.766 289.829C421.627 290.572 420.736 291.612 420.043 292.998C419.399 294.385 419.003 295.969 418.953 297.752C418.854 299.584 419.102 301.168 419.597 302.505C420.142 303.842 420.934 304.882 422.023 305.575C423.113 306.268 424.4 306.615 425.935 306.615C426.579 306.615 427.272 306.516 427.916 306.367C428.56 306.219 429.154 306.021 429.55 305.724L429.946 307.011C429.5 307.308 428.906 307.556 428.114 307.704C427.371 307.902 426.579 308.001 425.836 308.001C424.004 308.001 422.42 307.605 421.132 306.763C419.795 305.922 418.805 304.733 418.161 303.198C417.517 301.663 417.22 299.831 417.319 297.752C417.418 295.721 417.864 293.939 418.656 292.305C419.449 290.671 420.587 289.433 421.974 288.591C423.36 287.7 424.945 287.254 426.678 287.254C428.51 287.254 430.045 287.65 431.382 288.492C432.67 289.334 433.66 290.473 434.304 292.057C434.898 293.592 435.195 295.375 435.096 297.455ZM423.806 298.395C423.707 299.435 423.806 300.227 424.103 300.772C424.4 301.317 424.846 301.614 425.539 301.614C425.985 301.614 426.381 301.416 426.827 301.069C427.223 300.673 427.569 300.178 427.817 299.485V299.386L428.312 293.84C427.916 293.642 427.47 293.543 426.975 293.543C426.133 293.543 425.391 293.988 424.846 294.83C424.301 295.672 423.955 296.86 423.806 298.395Z" fill="#0D3546"/>
<path d="M445.098 303C444.999 302.753 444.9 302.357 444.801 301.762C443.86 302.753 442.721 303.248 441.434 303.248C440.246 303.248 439.305 302.901 438.562 302.258C437.819 301.614 437.423 300.772 437.423 299.732C437.423 298.494 437.918 297.554 438.859 296.86C439.8 296.167 441.137 295.821 442.821 295.821H444.801V294.88C444.801 294.187 444.603 293.592 444.157 293.196C443.712 292.8 443.118 292.553 442.276 292.553C441.533 292.553 440.939 292.751 440.444 293.097C439.949 293.444 439.701 293.889 439.701 294.434H437.671C437.671 293.84 437.869 293.246 438.315 292.701C438.76 292.156 439.305 291.711 440.048 291.364C440.79 291.018 441.583 290.869 442.424 290.869C443.811 290.869 444.851 291.216 445.643 291.909C446.435 292.602 446.831 293.543 446.831 294.731V300.227C446.831 301.317 446.98 302.208 447.228 302.852V303.05L445.098 303ZM441.731 301.416C442.375 301.416 442.969 301.267 443.563 300.921C444.157 300.574 444.554 300.178 444.801 299.633V297.207H443.217C440.741 297.207 439.503 297.95 439.503 299.386C439.503 300.029 439.701 300.525 440.147 300.871C440.493 301.267 441.038 301.416 441.731 301.416Z" fill="#0D3546"/>
<path d="M454.754 301.515C455.497 301.515 456.091 301.317 456.636 300.871C457.18 300.426 457.477 299.881 457.527 299.237H459.458C459.409 299.93 459.21 300.574 458.765 301.168C458.319 301.762 457.774 302.258 457.032 302.654C456.289 303 455.546 303.198 454.754 303.198C453.12 303.198 451.833 302.654 450.892 301.564C449.951 300.475 449.456 298.99 449.456 297.108V296.761C449.456 295.622 449.654 294.583 450.099 293.691C450.545 292.8 451.139 292.107 451.932 291.612C452.724 291.117 453.665 290.869 454.754 290.869C456.091 290.869 457.18 291.265 458.072 292.057C458.963 292.85 459.409 293.889 459.508 295.177H457.576C457.527 294.385 457.23 293.79 456.685 293.295C456.14 292.8 455.497 292.553 454.754 292.553C453.714 292.553 452.922 292.949 452.328 293.691C451.783 294.434 451.486 295.523 451.486 296.91V297.306C451.486 298.692 451.783 299.732 452.328 300.475C452.922 301.168 453.714 301.515 454.754 301.515Z" fill="#0D3546"/>
<path d="M463.667 291.067L463.717 292.404C464.608 291.364 465.747 290.869 467.232 290.869C468.916 290.869 470.005 291.513 470.649 292.8C471.045 292.206 471.54 291.76 472.184 291.414C472.828 291.067 473.57 290.869 474.412 290.869C477.037 290.869 478.324 292.255 478.374 295.028V303H476.343V295.127C476.343 294.286 476.145 293.642 475.749 293.196C475.353 292.751 474.709 292.553 473.768 292.553C473.026 292.553 472.382 292.8 471.887 293.246C471.392 293.691 471.095 294.286 470.996 295.078V302.951H468.965V295.177C468.965 293.444 468.124 292.602 466.44 292.602C465.103 292.602 464.212 293.147 463.717 294.286V302.951H461.686V291.067H463.667Z" fill="#0D3546"/>
<path d="M486.445 303.198C484.811 303.198 483.523 302.654 482.533 301.614C481.543 300.574 480.998 299.138 480.998 297.356V296.959C480.998 295.771 481.246 294.731 481.691 293.79C482.137 292.85 482.781 292.156 483.573 291.612C484.365 291.067 485.256 290.819 486.197 290.819C487.732 290.819 488.97 291.315 489.812 292.354C490.654 293.394 491.099 294.83 491.099 296.712V297.554H483.028C483.078 298.742 483.424 299.683 484.068 300.376C484.712 301.119 485.553 301.465 486.593 301.465C487.287 301.465 487.93 301.317 488.425 301.02C488.921 300.723 489.366 300.326 489.713 299.831L490.951 300.822C489.911 302.406 488.425 303.198 486.445 303.198ZM486.197 292.553C485.355 292.553 484.712 292.85 484.117 293.444C483.573 294.038 483.226 294.88 483.078 295.969H489.02V295.821C488.97 294.781 488.673 293.988 488.178 293.394C487.732 292.8 487.039 292.553 486.197 292.553Z" fill="#0D3546"/>
<path d="M493.476 301.911C493.476 301.564 493.575 301.267 493.773 301.02C493.971 300.772 494.318 300.673 494.714 300.673C495.11 300.673 495.457 300.772 495.655 301.02C495.853 301.267 496.002 301.564 496.002 301.911C496.002 302.258 495.902 302.555 495.655 302.753C495.457 303 495.11 303.099 494.714 303.099C494.318 303.099 493.971 303 493.773 302.753C493.575 302.505 493.476 302.258 493.476 301.911Z" fill="#0D3546"/>
<path d="M499.418 301.911C499.418 301.564 499.517 301.267 499.715 301.02C499.913 300.772 500.26 300.673 500.656 300.673C501.052 300.673 501.399 300.772 501.597 301.02C501.795 301.267 501.944 301.564 501.944 301.911C501.944 302.258 501.845 302.555 501.597 302.753C501.399 303 501.052 303.099 500.656 303.099C500.26 303.099 499.913 303 499.715 302.753C499.517 302.505 499.418 302.258 499.418 301.911Z" fill="#0D3546"/>
<path d="M505.311 301.911C505.311 301.564 505.41 301.267 505.608 301.02C505.806 300.772 506.152 300.673 506.549 300.673C506.945 300.673 507.291 300.772 507.489 301.02C507.687 301.267 507.836 301.564 507.836 301.911C507.836 302.258 507.737 302.555 507.489 302.753C507.291 303 506.945 303.099 506.549 303.099C506.152 303.099 505.806 303 505.608 302.753C505.41 302.505 505.311 302.258 505.311 301.911Z" fill="#0D3546"/>
<path d="M283.079 289.581L262.777 289.383C261.836 289.383 261.044 290.126 261.044 291.116L260.945 303.743C260.945 304.684 261.688 305.476 262.678 305.476L282.931 305.674C283.871 305.674 284.664 304.931 284.664 303.991L284.763 291.364C284.812 290.374 284.07 289.631 283.079 289.581ZM282.832 292.701L273.077 297.9C273.027 297.95 272.928 297.95 272.879 297.95C272.829 297.95 272.73 297.95 272.681 297.9L262.876 292.552C262.678 292.453 262.579 292.206 262.728 292.008C262.827 291.81 263.074 291.711 263.272 291.859L272.829 297.108L282.386 292.008C282.584 291.909 282.832 292.008 282.931 292.255C283.079 292.404 282.98 292.602 282.832 292.701Z" fill="#0D3546"/>
<path d="M308.085 325.233H312.542V327.164H308.085V332.215H306.055V327.115H301.599V325.183H306.055V320.529H308.085V325.233Z" fill="#0D3546"/>
<path d="M321.455 333.799H319.425V320.232L315.315 321.717V319.885L321.158 317.706H321.455V333.799Z" fill="#0D3546"/>
<path d="M343.49 333.799H332.992V332.314L338.538 326.174C339.38 325.233 339.924 324.49 340.222 323.896C340.519 323.302 340.667 322.708 340.667 322.064C340.667 321.222 340.42 320.529 339.924 319.984C339.429 319.44 338.736 319.192 337.894 319.192C336.904 319.192 336.112 319.489 335.517 320.034C334.923 320.578 334.676 321.42 334.676 322.46H332.695C332.695 320.975 333.19 319.786 334.131 318.895C335.072 318.004 336.359 317.508 337.944 317.508C339.429 317.508 340.618 317.905 341.459 318.697C342.301 319.489 342.747 320.529 342.747 321.816C342.747 323.401 341.757 325.282 339.726 327.461L335.418 332.116H343.44L343.49 333.799Z" fill="#0D3546"/>
<path d="M355.671 326.966C355.671 329.343 355.275 331.125 354.433 332.264C353.591 333.403 352.353 333.997 350.62 333.997C348.937 333.997 347.649 333.453 346.807 332.314C345.966 331.175 345.569 329.491 345.52 327.263V324.54C345.52 322.163 345.916 320.43 346.758 319.291C347.55 318.152 348.837 317.558 350.571 317.558C352.304 317.558 353.542 318.103 354.383 319.192C355.176 320.281 355.621 322.014 355.621 324.292L355.671 326.966ZM353.641 324.193C353.641 322.46 353.393 321.222 352.898 320.43C352.403 319.638 351.66 319.242 350.62 319.242C349.58 319.242 348.837 319.638 348.342 320.43C347.847 321.222 347.6 322.411 347.6 324.045V327.313C347.6 329.046 347.847 330.333 348.342 331.125C348.837 331.967 349.58 332.363 350.62 332.363C351.61 332.363 352.353 331.967 352.848 331.175C353.344 330.383 353.591 329.194 353.591 327.511L353.641 324.193Z" fill="#0D3546"/>
<path d="M368.793 333.799H358.295V332.314L363.841 326.174C364.683 325.233 365.228 324.49 365.525 323.896C365.822 323.302 365.97 322.708 365.97 322.064C365.97 321.222 365.723 320.529 365.228 319.984C364.732 319.44 364.039 319.192 363.197 319.192C362.207 319.192 361.415 319.489 360.821 320.034C360.226 320.578 359.979 321.42 359.979 322.46H357.949C357.949 320.975 358.444 319.786 359.385 318.895C360.325 318.004 361.613 317.508 363.197 317.508C364.683 317.508 365.871 317.905 366.713 318.697C367.555 319.489 368 320.529 368 321.816C368 323.401 367.01 325.282 364.98 327.461L360.672 332.116H368.694V333.799H368.793Z" fill="#0D3546"/>
<path d="M377.458 325.778L378.25 317.806H386.47V319.687H379.984L379.488 324.045C380.281 323.599 381.172 323.351 382.162 323.351C383.598 323.351 384.787 323.847 385.629 324.787C386.47 325.728 386.916 327.065 386.916 328.699C386.916 330.333 386.47 331.67 385.579 332.611C384.688 333.552 383.45 334.047 381.865 334.047C380.429 334.047 379.29 333.651 378.399 332.858C377.508 332.066 377.013 330.977 376.864 329.59H378.795C378.944 330.531 379.241 331.175 379.786 331.67C380.33 332.116 381.023 332.363 381.865 332.363C382.806 332.363 383.549 332.017 384.094 331.373C384.638 330.729 384.886 329.838 384.886 328.699C384.886 327.61 384.589 326.768 383.995 326.124C383.4 325.481 382.658 325.134 381.667 325.134C380.776 325.134 380.083 325.332 379.587 325.728L379.043 326.174L377.458 325.778Z" fill="#0D3546"/>
<path d="M390.085 325.778L390.877 317.806H399.097V319.687H392.61L392.115 324.045C392.908 323.599 393.799 323.351 394.789 323.351C396.225 323.351 397.414 323.847 398.255 324.787C399.097 325.728 399.543 327.065 399.543 328.699C399.543 330.333 399.097 331.67 398.206 332.611C397.315 333.552 396.077 334.047 394.492 334.047C393.056 334.047 391.917 333.651 391.026 332.858C390.135 332.066 389.639 330.977 389.491 329.59H391.422C391.571 330.531 391.868 331.175 392.412 331.67C392.957 332.116 393.65 332.363 394.492 332.363C395.433 332.363 396.176 332.017 396.72 331.373C397.265 330.729 397.513 329.838 397.513 328.699C397.513 327.61 397.215 326.768 396.621 326.124C396.027 325.481 395.284 325.134 394.294 325.134C393.403 325.134 392.709 325.332 392.214 325.728L391.67 326.174L390.085 325.778Z" fill="#0D3546"/>
<path d="M402.712 325.778L403.504 317.806H411.724V319.687H405.237L404.742 324.045C405.534 323.599 406.426 323.351 407.416 323.351C408.852 323.351 410.04 323.847 410.882 324.787C411.724 325.728 412.17 327.065 412.17 328.699C412.17 330.333 411.724 331.67 410.833 332.611C409.941 333.552 408.703 334.047 407.119 334.047C405.683 334.047 404.544 333.651 403.653 332.858C402.761 332.066 402.266 330.977 402.118 329.59H404.049C404.197 330.531 404.494 331.175 405.039 331.67C405.584 332.116 406.277 332.363 407.119 332.363C408.06 332.363 408.802 332.017 409.347 331.373C409.892 330.729 410.139 329.838 410.139 328.699C410.139 327.61 409.842 326.768 409.248 326.124C408.654 325.481 407.911 325.134 406.921 325.134C406.03 325.134 405.336 325.332 404.841 325.728L404.296 326.174L402.712 325.778Z" fill="#0D3546"/>
<path d="M428.609 328.402H430.837V330.086H428.609V333.799H426.579V330.086H419.3V328.897L426.48 317.806H428.659V328.402H428.609ZM421.578 328.402H426.579V320.529L426.331 320.975L421.578 328.402Z" fill="#0D3546"/>
<path d="M433.61 325.778L434.403 317.806H442.622V319.687H436.136L435.641 324.045C436.433 323.599 437.324 323.351 438.314 323.351C439.75 323.351 440.939 323.847 441.781 324.787C442.622 325.728 443.068 327.065 443.068 328.699C443.068 330.333 442.622 331.67 441.731 332.611C440.84 333.552 439.602 334.047 438.017 334.047C436.581 334.047 435.442 333.651 434.551 332.858C433.66 332.066 433.165 330.977 433.016 329.59H434.947C435.096 330.531 435.393 331.175 435.938 331.67C436.482 332.116 437.176 332.363 438.017 332.363C438.958 332.363 439.701 332.017 440.246 331.373C440.79 330.729 441.038 329.838 441.038 328.699C441.038 327.61 440.741 326.768 440.147 326.124C439.552 325.481 438.81 325.134 437.819 325.134C436.928 325.134 436.235 325.332 435.74 325.728L435.195 326.174L433.61 325.778Z" fill="#0D3546"/>
<path d="M453.269 317.756V319.489H452.872C451.288 319.539 450.05 319.984 449.109 320.876C448.168 321.767 447.624 323.054 447.475 324.688C448.317 323.698 449.456 323.252 450.941 323.252C452.328 323.252 453.467 323.747 454.259 324.738C455.101 325.728 455.497 326.966 455.497 328.551C455.497 330.185 455.051 331.521 454.16 332.512C453.269 333.502 452.08 333.997 450.545 333.997C449.01 333.997 447.772 333.403 446.831 332.215C445.891 331.026 445.395 329.541 445.395 327.659V326.867C445.395 323.896 446.039 321.668 447.277 320.133C448.515 318.598 450.397 317.756 452.872 317.756H453.269ZM450.595 324.985C449.901 324.985 449.258 325.183 448.664 325.629C448.069 326.025 447.673 326.57 447.426 327.214V327.956C447.426 329.293 447.723 330.333 448.317 331.125C448.911 331.918 449.654 332.314 450.545 332.314C451.436 332.314 452.179 331.967 452.724 331.323C453.269 330.63 453.516 329.788 453.516 328.65C453.516 327.56 453.269 326.669 452.724 325.976C452.179 325.282 451.486 324.985 450.595 324.985Z" fill="#0D3546"/>
<path d="M468.272 318.944L461.637 333.799H459.508L466.093 319.44H457.477V317.756H468.272V318.944Z" fill="#0D3546"/>
<path d="M278.573 338.85C276.642 338.8 274.76 338.206 273.126 337.216C269.462 335.087 266.442 332.066 264.312 328.452C263.471 327.065 262.926 325.53 262.728 323.946C262.53 323.054 262.827 322.163 263.471 321.519C264.362 320.678 265.204 319.786 266.046 318.944C266.64 318.35 267.283 318.449 267.68 319.143C268.472 320.628 269.264 322.064 270.007 323.549C270.254 324.045 270.106 324.589 269.71 324.936C269.413 325.233 269.165 325.53 268.818 325.827C268.571 326.025 268.472 326.372 268.67 326.619C269.017 327.313 269.363 327.956 269.809 328.6C270.898 330.036 272.186 331.274 273.721 332.264C274.117 332.512 274.562 332.71 274.959 332.858C275.206 332.957 275.454 332.908 275.602 332.71C275.949 332.363 276.246 332.017 276.593 331.72C277.038 331.224 277.781 331.125 278.326 331.472C279.663 332.264 281 333.056 282.336 333.849C283.079 334.294 283.129 334.988 282.535 335.582L279.712 338.355C279.465 338.602 279.019 338.8 278.573 338.85Z" fill="#0D3546"/>
<path d="M675.153 326.619L669.162 332.66L663.121 326.619H675.153Z" fill="white"/>
<path d="M434.749 356.378H689.81C693.821 356.378 697.09 359.646 697.09 363.657V508.343C697.09 512.353 693.821 515.621 689.81 515.621H434.749C430.738 515.621 427.47 512.353 427.47 508.343V363.608C427.47 359.597 430.738 356.378 434.749 356.378Z" fill="white"/>
<path d="M497.041 392.872H455.645C453.714 392.872 452.13 394.456 452.13 396.387V422.135C452.13 424.067 453.714 425.651 455.645 425.651H497.041C498.973 425.651 500.557 424.067 500.557 422.135V396.387C500.557 394.407 498.973 392.872 497.041 392.872ZM496.546 399.21L476.74 410.004C476.492 410.153 476.195 410.153 475.947 410.004L455.893 399.21C455.497 398.913 455.398 398.417 455.695 398.021C455.942 397.724 456.339 397.576 456.685 397.724L476.294 408.321L495.704 397.774C496.15 397.576 496.645 397.823 496.794 398.219C496.992 398.566 496.843 399.012 496.546 399.21Z" fill="#1C3443"/>
<path d="M530.812 415.5C528.237 414.758 526.355 413.866 525.167 412.777C523.979 411.688 523.384 410.351 523.384 408.766C523.384 406.984 524.127 405.498 525.563 404.31C526.999 403.121 528.881 402.527 531.159 402.527C532.743 402.527 534.13 402.824 535.367 403.419C536.605 404.013 537.546 404.854 538.239 405.944C538.933 407.033 539.23 408.172 539.23 409.459H536.209C536.209 408.073 535.764 406.984 534.872 406.191C533.981 405.399 532.743 405.003 531.159 405.003C529.673 405.003 528.534 405.35 527.692 405.993C526.851 406.637 526.454 407.578 526.454 408.717C526.454 409.658 526.851 410.45 527.643 411.093C528.435 411.737 529.772 412.331 531.703 412.876C533.585 413.421 535.07 414.015 536.16 414.659C537.249 415.302 538.041 416.045 538.536 416.936C539.032 417.778 539.329 418.818 539.329 419.957C539.329 421.789 538.586 423.274 537.15 424.413C535.714 425.552 533.783 426.097 531.357 426.097C529.772 426.097 528.336 425.8 526.95 425.205C525.563 424.611 524.523 423.77 523.781 422.73C523.038 421.69 522.691 420.502 522.691 419.165H525.712C525.712 420.551 526.207 421.64 527.247 422.433C528.287 423.225 529.623 423.621 531.357 423.621C532.941 423.621 534.179 423.274 535.021 422.631C535.863 421.987 536.308 421.096 536.308 419.957C536.308 418.818 535.912 417.976 535.12 417.382C534.328 416.788 532.842 416.095 530.812 415.5Z" fill="#1C3443"/>
<path d="M549.232 425.998C546.905 425.998 545.073 425.255 543.587 423.72C542.151 422.185 541.409 420.204 541.409 417.63V417.085C541.409 415.401 541.755 413.916 542.399 412.579C543.043 411.242 543.934 410.202 545.122 409.459C546.261 408.717 547.549 408.321 548.886 408.321C551.114 408.321 552.797 409.063 554.035 410.499C555.273 411.935 555.867 414.015 555.867 416.738V417.927H544.33C544.38 419.61 544.875 420.947 545.816 421.987C546.756 423.027 547.945 423.522 549.381 423.522C550.421 423.522 551.262 423.324 552.005 422.878C552.698 422.482 553.342 421.888 553.887 421.195L555.669 422.581C554.233 424.908 552.104 425.998 549.232 425.998ZM548.886 410.747C547.697 410.747 546.707 411.192 545.915 412.034C545.122 412.876 544.627 414.064 544.429 415.599H552.946V415.401C552.847 413.916 552.451 412.777 551.758 411.985C551.064 411.143 550.124 410.747 548.886 410.747Z" fill="#1C3443"/>
<path d="M561.512 408.667L561.611 410.796C562.899 409.162 564.582 408.37 566.712 408.37C570.326 408.37 572.109 410.4 572.159 414.46V425.651H569.237V414.411C569.237 413.173 568.94 412.282 568.395 411.688C567.851 411.093 567.009 410.796 565.82 410.796C564.88 410.796 564.038 411.044 563.344 411.539C562.651 412.034 562.057 412.678 561.661 413.52V425.651H558.739V408.667H561.512Z" fill="#1C3443"/>
<path d="M575.328 417.035C575.328 414.411 575.922 412.331 577.16 410.747C578.398 409.162 580.032 408.37 582.012 408.37C583.993 408.37 585.578 409.063 586.716 410.4V401.537H589.638V425.651H586.964L586.815 423.819C585.677 425.255 584.043 425.948 581.963 425.948C579.982 425.948 578.398 425.156 577.16 423.522C575.922 421.888 575.278 419.808 575.278 417.184V417.035H575.328ZM578.2 417.382C578.2 419.313 578.596 420.799 579.388 421.888C580.18 422.977 581.27 423.522 582.706 423.522C584.538 423.522 585.875 422.68 586.766 421.046V413.223C585.875 411.638 584.538 410.796 582.755 410.796C581.319 410.796 580.23 411.341 579.438 412.43C578.596 413.569 578.2 415.203 578.2 417.382Z" fill="#1C3443"/>
<path d="M614.545 415.104H604.641V423.225H616.129V425.701H601.621V402.824H615.981V405.3H604.641V412.678H614.545V415.104Z" fill="#1C3443"/>
<path d="M621.675 408.667L621.774 410.549C623.012 409.063 624.696 408.37 626.825 408.37C629.202 408.37 630.836 409.261 631.678 411.093C632.222 410.301 632.965 409.608 633.906 409.113C634.797 408.618 635.887 408.37 637.125 408.37C640.838 408.37 642.77 410.351 642.819 414.312V425.701H639.898V414.51C639.898 413.272 639.6 412.381 639.056 411.787C638.511 411.192 637.57 410.895 636.283 410.895C635.193 410.895 634.302 411.242 633.609 411.886C632.916 412.529 632.47 413.421 632.371 414.46V425.651H629.45V414.51C629.45 412.034 628.261 410.796 625.835 410.796C623.953 410.796 622.616 411.589 621.923 413.223V425.651H619.001V408.667H621.675Z" fill="#1C3443"/>
<path d="M657.179 425.651C657.03 425.305 656.882 424.71 656.783 423.869C655.446 425.255 653.812 425.998 651.93 425.998C650.247 425.998 648.86 425.503 647.82 424.562C646.731 423.621 646.186 422.433 646.186 420.947C646.186 419.165 646.879 417.828 648.216 416.837C649.553 415.847 651.435 415.352 653.911 415.352H656.733V414.015C656.733 412.975 656.436 412.183 655.842 411.589C655.248 410.994 654.356 410.697 653.168 410.697C652.128 410.697 651.286 410.945 650.544 411.49C649.85 412.034 649.504 412.628 649.504 413.371H646.582C646.582 412.529 646.879 411.688 647.474 410.895C648.068 410.103 648.91 409.459 649.9 409.014C650.94 408.568 652.079 408.321 653.317 408.321C655.297 408.321 656.832 408.816 657.922 409.806C659.011 410.796 659.605 412.133 659.655 413.866V421.69C659.655 423.274 659.853 424.512 660.249 425.404V425.651H657.179ZM652.326 423.472C653.218 423.472 654.109 423.225 654.901 422.779C655.743 422.284 656.288 421.69 656.684 420.947V417.481H654.406C650.841 417.481 649.058 418.521 649.058 420.601C649.058 421.492 649.355 422.235 649.949 422.73C650.544 423.225 651.385 423.472 652.326 423.472Z" fill="#1C3443"/>
<path d="M663.715 404.161C663.715 403.666 663.864 403.27 664.161 402.973C664.458 402.626 664.854 402.478 665.448 402.478C666.042 402.478 666.439 402.626 666.736 402.973C667.033 403.319 667.181 403.716 667.181 404.161C667.181 404.656 667.033 405.003 666.736 405.35C666.439 405.647 665.993 405.845 665.448 405.845C664.904 405.845 664.458 405.696 664.161 405.35C663.864 405.052 663.715 404.656 663.715 404.161ZM666.835 425.651H663.913V408.667H666.835V425.651Z" fill="#1C3443"/>
<path d="M674.163 425.651H671.242V401.537H674.163V425.651Z" fill="#1C3443"/>
<path d="M527.049 471.107V480.069H524.028V457.193H532.446C534.971 457.193 536.903 457.836 538.339 459.124C539.775 460.411 540.468 462.095 540.468 464.174C540.468 466.403 539.774 468.086 538.388 469.324C537.002 470.512 535.021 471.107 532.446 471.107H527.049ZM527.049 468.631H532.446C534.08 468.631 535.318 468.235 536.16 467.492C537.002 466.749 537.447 465.61 537.447 464.174C537.447 462.788 537.002 461.699 536.16 460.906C535.318 460.114 534.13 459.668 532.644 459.619H527.049V468.631Z" fill="#1C3443"/>
<path d="M553.887 478.386C552.748 479.722 551.114 480.366 548.886 480.366C547.053 480.366 545.716 479.821 544.726 478.782C543.785 477.742 543.29 476.157 543.29 474.127V463.085H546.212V474.078C546.212 476.652 547.252 477.94 549.331 477.94C551.559 477.94 553.045 477.098 553.738 475.464V463.085H556.66V480.069H553.887V478.386Z" fill="#1C3443"/>
<path d="M570.574 475.513C570.574 474.721 570.277 474.127 569.683 473.681C569.088 473.236 568.049 472.889 566.613 472.543C565.127 472.245 563.988 471.849 563.097 471.404C562.255 470.958 561.611 470.463 561.166 469.819C560.77 469.225 560.522 468.482 560.522 467.64C560.522 466.254 561.116 465.066 562.305 464.125C563.493 463.184 564.979 462.689 566.811 462.689C568.742 462.689 570.277 463.184 571.515 464.174C572.753 465.165 573.297 466.452 573.297 467.987H570.376C570.376 467.195 570.029 466.502 569.386 465.907C568.692 465.313 567.851 465.066 566.811 465.066C565.771 465.066 564.929 465.313 564.335 465.759C563.741 466.204 563.444 466.799 563.444 467.541C563.444 468.235 563.741 468.779 564.285 469.126C564.83 469.473 565.82 469.819 567.306 470.166C568.791 470.512 569.93 470.859 570.822 471.305C571.713 471.75 572.406 472.295 572.802 472.939C573.248 473.582 573.446 474.325 573.446 475.266C573.446 476.801 572.852 477.989 571.614 478.93C570.376 479.871 568.841 480.316 566.91 480.316C565.523 480.316 564.335 480.069 563.295 479.574C562.255 479.079 561.413 478.435 560.819 477.544C560.225 476.702 559.928 475.761 559.928 474.721H562.849C562.899 475.712 563.295 476.454 564.038 477.048C564.78 477.643 565.721 477.89 566.91 477.89C567.999 477.89 568.89 477.692 569.534 477.247C570.227 476.85 570.574 476.256 570.574 475.513Z" fill="#1C3443"/>
<path d="M579.685 465.115C580.973 463.531 582.656 462.738 584.736 462.738C588.351 462.738 590.133 464.769 590.183 468.829V480.069H587.261V468.829C587.261 467.591 586.964 466.7 586.419 466.105C585.875 465.511 585.033 465.214 583.845 465.214C582.904 465.214 582.062 465.462 581.369 465.957C580.675 466.452 580.081 467.096 579.685 467.938V480.069H576.764V455.955H579.685V465.115Z" fill="#1C3443"/>
<path d="M604.939 477.593H615.783V480.069H601.918V457.193H604.939V477.593Z" fill="#1C3443"/>
<path d="M625.34 480.366C623.012 480.366 621.18 479.623 619.695 478.088C618.259 476.553 617.516 474.573 617.516 471.998V471.453C617.516 469.77 617.862 468.284 618.506 466.947C619.15 465.61 620.041 464.57 621.23 463.828C622.369 463.085 623.656 462.689 624.993 462.689C627.221 462.689 628.905 463.432 630.143 464.868C631.381 466.304 631.975 468.383 631.975 471.107V472.295H620.437C620.487 473.979 620.982 475.315 621.923 476.355C622.864 477.395 624.052 477.89 625.488 477.89C626.528 477.89 627.37 477.692 628.112 477.247C628.855 476.801 629.449 476.256 629.994 475.563L631.777 476.949C630.341 479.277 628.212 480.366 625.34 480.366ZM624.993 465.115C623.805 465.115 622.814 465.561 622.022 466.403C621.23 467.244 620.735 468.433 620.536 469.968H629.053V469.77C628.954 468.284 628.558 467.145 627.865 466.353C627.172 465.511 626.181 465.115 624.993 465.115Z" fill="#1C3443"/>
<path d="M645.344 480.019C645.196 479.673 645.047 479.079 644.948 478.237C643.611 479.623 641.977 480.366 640.096 480.366C638.412 480.366 637.026 479.871 635.986 478.93C634.896 477.989 634.352 476.801 634.352 475.315C634.352 473.533 635.045 472.196 636.382 471.206C637.719 470.215 639.601 469.72 642.076 469.72H644.899V468.383C644.899 467.343 644.602 466.551 644.007 465.957C643.413 465.363 642.522 465.066 641.334 465.066C640.294 465.066 639.452 465.313 638.709 465.858C638.016 466.403 637.669 466.997 637.669 467.739H634.748C634.748 466.898 635.045 466.056 635.639 465.264C636.233 464.471 637.075 463.828 638.065 463.382C639.105 462.936 640.244 462.689 641.482 462.689C643.463 462.689 644.998 463.184 646.087 464.174C647.177 465.165 647.771 466.502 647.82 468.235V476.058C647.82 477.643 648.018 478.881 648.414 479.772V480.019H645.344ZM640.541 477.841C641.433 477.841 642.324 477.593 643.116 477.148C643.908 476.652 644.503 476.058 644.899 475.315V471.849H642.621C639.056 471.849 637.273 472.889 637.273 474.969C637.273 475.86 637.57 476.603 638.165 477.098C638.808 477.593 639.551 477.841 640.541 477.841Z" fill="#1C3443"/>
<path d="M651.187 471.404C651.187 468.779 651.781 466.7 653.019 465.115C654.257 463.531 655.891 462.738 657.872 462.738C659.853 462.738 661.437 463.432 662.576 464.769V455.905H665.498V480.019H662.824L662.675 478.187C661.536 479.623 659.902 480.317 657.823 480.317C655.842 480.317 654.257 479.524 653.019 477.89C651.781 476.256 651.138 474.177 651.138 471.552V471.404H651.187ZM654.059 471.75C654.059 473.681 654.455 475.167 655.248 476.256C656.04 477.346 657.129 477.89 658.565 477.89C660.397 477.89 661.734 477.049 662.626 475.415V467.591C661.734 466.007 660.397 465.165 658.615 465.165C657.179 465.165 656.089 465.709 655.297 466.799C654.455 467.938 654.059 469.572 654.059 471.75Z" fill="#1C3443"/>
<path d="M471.986 455.806C475.403 452.192 481.147 452.093 484.712 455.509C485.405 456.153 485.95 456.896 486.395 457.737C487.782 457.094 489.317 456.797 490.852 456.797C497.042 456.797 501.993 461.798 501.993 467.987C501.993 474.127 496.992 479.128 490.852 479.128C490.109 479.128 489.366 479.029 488.673 478.93C486.593 482.693 481.939 484.129 478.077 482.248C476.096 486.952 470.649 489.13 465.995 487.15C463.667 486.159 461.835 484.228 460.944 481.852C456.24 482.792 451.684 479.722 450.793 475.018C450.1 471.404 451.734 467.74 454.903 465.858C452.724 460.807 455.051 454.915 460.152 452.736C464.311 450.904 469.213 452.192 471.986 455.806Z" fill="#00A1E0"/>
<path d="M458.072 470.513C458.022 470.612 458.072 470.612 458.072 470.612C458.171 470.661 458.27 470.711 458.369 470.76C458.864 471.008 459.359 471.156 459.904 471.107C460.944 471.107 461.637 470.562 461.637 469.621C461.637 468.779 460.894 468.482 460.201 468.284H460.102C459.607 468.136 459.112 467.987 459.112 467.641C459.112 467.343 459.359 467.145 459.805 467.145C460.25 467.145 460.746 467.294 461.142 467.492C461.142 467.492 461.241 467.542 461.29 467.443C461.34 467.343 461.488 466.898 461.488 466.848C461.488 466.799 461.488 466.749 461.439 466.749C460.993 466.502 460.498 466.353 459.953 466.353H459.854C458.864 466.353 458.22 466.947 458.22 467.789C458.22 468.68 458.963 468.928 459.656 469.176L459.755 469.225C460.25 469.374 460.696 469.522 460.696 469.869C460.696 470.215 460.399 470.463 459.953 470.463C459.458 470.463 459.013 470.314 458.616 470.067L458.468 469.968C458.418 469.918 458.369 469.918 458.369 469.968V470.017L458.072 470.513Z" fill="white"/>
<path d="M473.521 470.512C473.471 470.611 473.521 470.611 473.521 470.611C474.066 470.958 474.709 471.156 475.353 471.156C476.393 471.156 477.037 470.611 477.037 469.671C477.037 468.829 476.294 468.532 475.601 468.334H475.502C475.006 468.185 474.511 468.037 474.511 467.69C474.511 467.393 474.759 467.195 475.155 467.195C475.601 467.195 476.096 467.343 476.492 467.541C476.492 467.541 476.591 467.591 476.64 467.492L476.839 466.898C476.839 466.848 476.839 466.799 476.789 466.799C476.343 466.551 475.848 466.403 475.304 466.403H475.204C474.214 466.403 473.57 466.997 473.57 467.839C473.57 468.73 474.313 468.977 475.006 469.225L475.105 469.275C475.601 469.423 476.046 469.572 476.046 469.918C476.046 470.265 475.749 470.512 475.304 470.512C474.808 470.512 474.363 470.364 473.967 470.116L473.818 470.017C473.768 469.968 473.719 470.017 473.669 470.067L473.521 470.512Z" fill="white"/>
<path d="M484.018 468.73C484.018 469.126 483.919 469.572 483.721 469.918C483.523 470.215 483.226 470.364 482.88 470.314C482.533 470.364 482.236 470.166 482.038 469.918C481.84 469.572 481.741 469.126 481.741 468.73C481.741 468.334 481.79 467.888 482.038 467.542C482.236 467.244 482.533 467.096 482.88 467.145C483.226 467.096 483.523 467.294 483.721 467.542C483.969 467.938 484.068 468.334 484.018 468.73ZM484.91 467.789C484.811 467.492 484.712 467.244 484.514 467.046C484.316 466.848 484.118 466.65 483.82 466.551C483.523 466.403 483.226 466.353 482.88 466.353C482.533 466.353 482.236 466.403 481.939 466.551C481.691 466.65 481.444 466.848 481.246 467.046C481.048 467.294 480.948 467.542 480.849 467.789C480.701 468.383 480.701 469.077 480.849 469.671C480.948 469.968 481.048 470.215 481.246 470.413C481.444 470.612 481.642 470.81 481.939 470.909C482.236 471.057 482.583 471.107 482.88 471.107C483.226 471.107 483.523 471.057 483.82 470.909C484.068 470.81 484.316 470.612 484.514 470.413C484.712 470.215 484.86 469.918 484.91 469.671C485.009 469.374 485.058 469.027 485.058 468.73C485.058 468.433 485.009 468.086 484.91 467.789Z" fill="white"/>
<path d="M492.139 470.215C492.139 470.166 492.09 470.166 492.04 470.166C491.892 470.215 491.793 470.265 491.644 470.265C491.496 470.314 491.298 470.314 491.149 470.314C490.802 470.314 490.406 470.215 490.159 469.918C489.862 469.572 489.762 469.176 489.762 468.73C489.762 468.334 489.862 467.888 490.109 467.591C490.357 467.294 490.703 467.145 491.099 467.145C491.397 467.145 491.743 467.195 492.04 467.294C492.04 467.294 492.09 467.343 492.139 467.244C492.238 467.046 492.288 466.898 492.337 466.65C492.337 466.601 492.337 466.551 492.288 466.551C492.09 466.502 491.892 466.452 491.694 466.403C491.496 466.353 491.248 466.353 491.05 466.353C490.703 466.353 490.357 466.403 490.06 466.551C489.812 466.65 489.564 466.848 489.366 467.046C489.168 467.294 489.02 467.542 488.921 467.789C488.822 468.086 488.772 468.433 488.772 468.73C488.723 469.374 488.97 469.968 489.366 470.463C489.812 470.909 490.456 471.156 491.099 471.107C491.545 471.107 491.941 471.057 492.337 470.859C492.387 470.859 492.387 470.81 492.387 470.76L492.139 470.215Z" fill="white"/>
<path d="M493.674 468.235C493.724 467.987 493.773 467.74 493.922 467.542C494.12 467.244 494.417 467.096 494.764 467.096C495.11 467.096 495.407 467.244 495.605 467.542C495.705 467.74 495.804 467.987 495.804 468.235H493.674ZM496.645 467.641C496.546 467.393 496.447 467.145 496.249 466.947C496.101 466.749 495.903 466.601 495.705 466.502C495.457 466.403 495.16 466.353 494.863 466.353C494.516 466.353 494.169 466.403 493.872 466.551C493.625 466.65 493.377 466.848 493.179 467.096C492.981 467.343 492.832 467.591 492.783 467.888C492.684 468.185 492.634 468.532 492.634 468.829C492.634 469.126 492.684 469.473 492.783 469.77C492.981 470.364 493.377 470.81 493.971 471.008C494.318 471.156 494.665 471.206 495.061 471.206C495.556 471.206 496.101 471.107 496.546 470.909C496.596 470.909 496.596 470.859 496.546 470.76L496.348 470.215C496.348 470.166 496.299 470.166 496.249 470.166C495.853 470.314 495.457 470.413 495.011 470.413C494.615 470.413 494.268 470.314 493.971 470.067C493.724 469.77 493.625 469.423 493.625 469.077H496.596C496.645 469.077 496.695 469.027 496.695 468.977C496.744 468.532 496.744 468.136 496.596 467.69L496.645 467.641Z" fill="white"/>
<path d="M469.807 468.235C469.857 467.987 469.906 467.74 470.055 467.542C470.253 467.244 470.55 467.096 470.896 467.096C471.243 467.096 471.54 467.244 471.738 467.542C471.887 467.74 471.936 467.987 471.936 468.235H469.807ZM472.778 467.641C472.679 467.393 472.58 467.145 472.382 466.947C472.233 466.749 472.035 466.601 471.837 466.502C471.59 466.403 471.293 466.353 470.996 466.353C470.649 466.353 470.302 466.403 470.005 466.551C469.758 466.65 469.51 466.848 469.312 467.096C469.114 467.343 468.965 467.591 468.916 467.888C468.718 468.532 468.718 469.176 468.916 469.77C469.114 470.364 469.51 470.81 470.104 471.008C470.451 471.156 470.797 471.206 471.194 471.206C471.689 471.206 472.233 471.107 472.679 470.909C472.729 470.909 472.729 470.859 472.679 470.76L472.481 470.215C472.481 470.166 472.432 470.166 472.432 470.116C472.035 470.265 471.639 470.364 471.194 470.364C470.55 470.463 469.906 469.968 469.857 469.324C469.857 469.225 469.857 469.126 469.857 469.027H472.828C472.877 469.027 472.927 468.977 472.927 468.928C472.927 468.482 472.877 468.037 472.778 467.641Z" fill="white"/>
<path d="M463.37 470.215C463.32 470.166 463.221 470.116 463.221 470.067C463.172 469.968 463.122 469.819 463.122 469.671C463.122 469.423 463.221 469.225 463.37 469.077C463.618 468.928 463.915 468.829 464.261 468.878C464.509 468.878 464.806 468.928 465.054 468.928V470.265C464.806 470.314 464.509 470.364 464.261 470.364C463.964 470.413 463.667 470.364 463.37 470.215ZM464.558 468.136C464.41 468.136 464.261 468.136 464.113 468.136C463.865 468.136 463.618 468.185 463.37 468.235C463.122 468.284 462.924 468.383 462.726 468.532C462.528 468.68 462.38 468.829 462.281 469.027C462.182 469.225 462.132 469.473 462.132 469.72C462.132 469.968 462.182 470.166 462.281 470.413C462.38 470.612 462.528 470.76 462.677 470.859C462.875 471.008 463.073 471.057 463.271 471.107C463.519 471.156 463.816 471.206 464.063 471.206C464.36 471.206 464.657 471.156 464.955 471.107C465.252 471.057 465.598 471.008 465.697 470.958L465.895 470.909C465.945 470.909 465.945 470.859 465.945 470.81V468.086C465.994 467.591 465.796 467.096 465.45 466.749C465.054 466.452 464.558 466.304 464.063 466.353C463.816 466.353 463.519 466.403 463.271 466.452C462.924 466.502 462.627 466.601 462.38 466.799C462.33 466.848 462.33 466.898 462.38 466.898L462.578 467.443C462.578 467.492 462.627 467.492 462.677 467.492H462.726C463.122 467.294 463.568 467.195 464.014 467.195C464.261 467.195 464.509 467.244 464.756 467.393C464.905 467.542 465.004 467.69 465.004 468.086V468.235C464.806 468.136 464.558 468.136 464.558 468.136Z" fill="white"/>
<path d="M488.574 466.601C488.574 466.551 488.574 466.502 488.525 466.502C488.376 466.452 488.178 466.452 488.029 466.403C487.782 466.353 487.485 466.403 487.287 466.502C487.089 466.601 486.94 466.7 486.791 466.898V466.551C486.791 466.502 486.742 466.452 486.692 466.452H485.9C485.851 466.452 485.801 466.502 485.801 466.551V471.008C485.801 471.057 485.851 471.107 485.9 471.107H486.692C486.742 471.107 486.791 471.057 486.791 471.008V468.779C486.791 468.532 486.841 468.235 486.89 467.987C486.94 467.839 487.039 467.69 487.138 467.542C487.237 467.443 487.386 467.344 487.485 467.294C487.633 467.244 487.732 467.244 487.881 467.244C487.98 467.244 488.079 467.244 488.227 467.294C488.277 467.294 488.326 467.244 488.326 467.195L488.574 466.601Z" fill="white"/>
<path d="M481.246 464.521C481.147 464.472 481.048 464.472 480.948 464.472C480.8 464.472 480.701 464.422 480.552 464.422C480.107 464.372 479.612 464.571 479.314 464.868C478.968 465.264 478.77 465.709 478.72 466.205L478.671 466.403H477.977C477.928 466.403 477.878 466.452 477.878 466.502L477.779 467.145C477.779 467.195 477.779 467.244 477.878 467.244H478.522L477.829 470.958C477.779 471.206 477.73 471.453 477.631 471.701C477.581 471.849 477.532 471.998 477.433 472.147C477.383 472.246 477.284 472.295 477.185 472.345C477.086 472.394 476.938 472.394 476.839 472.394C476.74 472.394 476.69 472.394 476.591 472.394C476.541 472.394 476.492 472.345 476.442 472.345C476.393 472.345 476.343 472.345 476.343 472.394C476.343 472.444 476.145 472.939 476.096 472.988C476.096 473.038 476.096 473.087 476.145 473.087C476.244 473.137 476.343 473.137 476.393 473.186C476.541 473.236 476.69 473.236 476.839 473.236C477.086 473.236 477.334 473.186 477.581 473.137C477.779 473.038 477.977 472.939 478.126 472.741C478.275 472.543 478.423 472.345 478.522 472.097C478.621 471.8 478.72 471.453 478.77 471.107L479.413 467.294H480.404C480.453 467.294 480.503 467.244 480.503 467.195L480.602 466.551C480.602 466.502 480.602 466.452 480.503 466.452H479.562C479.612 466.205 479.661 466.007 479.711 465.759C479.76 465.66 479.81 465.511 479.909 465.462C479.958 465.412 480.057 465.363 480.156 465.313C480.255 465.264 480.354 465.264 480.503 465.264C480.602 465.264 480.651 465.264 480.75 465.264L480.899 465.313C480.998 465.363 480.998 465.313 481.047 465.264L481.295 464.67C481.345 464.62 481.295 464.571 481.246 464.521Z" fill="white"/>
<path d="M467.926 470.958C467.926 471.008 467.876 471.057 467.826 471.057H467.034C466.985 471.057 466.935 471.008 466.935 470.958V464.62C466.935 464.571 466.985 464.521 467.034 464.521H467.826C467.876 464.521 467.926 464.571 467.926 464.62V470.958Z" fill="white"/>
</svg>
