<svg width="726" height="658" viewBox="0 0 726 658" fill="none" xmlns="http://www.w3.org/2000/svg">
<path d="M95.4196 38.338H626.159C638.555 38.338 648.62 48.3897 648.62 60.7687V595.986C648.62 608.365 638.555 618.416 626.159 618.416H95.4196C83.0238 618.416 72.9583 608.365 72.9583 595.986V60.7192C72.9583 48.3402 83.0238 38.338 95.4196 38.338Z" fill="#8F47FF"/>
<path d="M186.207 122.961H536.513C548.165 122.961 557.586 132.418 557.586 144.054V555.828C557.586 567.465 548.115 576.922 536.513 576.922H186.207C174.555 576.922 165.084 567.465 165.084 555.828V144.054C165.134 132.418 174.555 122.961 186.207 122.961Z" fill="#F4F4F4"/>
<path d="M186.207 215.011H536.513C548.165 215.011 557.586 224.468 557.586 236.055V607.721C557.586 619.357 548.115 628.815 536.513 628.815H186.207C174.555 628.815 165.084 619.357 165.084 607.721V236.055C165.134 224.419 174.555 215.011 186.207 215.011Z" fill="#FFFEFF"/>
<path d="M185.81 310.329H535.769V591.331C535.769 601.531 527.439 609.85 517.225 609.85H204.404C194.14 609.85 185.86 601.531 185.86 591.331V310.329H185.81Z" fill="#ECF7FB"/>
<path d="M206.536 177.923H193.991V190.847H187.446V159.157H208.122V164.455H193.991V172.625H206.536V177.923Z" fill="black"/>
<path d="M211.444 161.236C211.444 160.296 211.742 159.503 212.387 158.909C213.031 158.315 213.874 158.018 214.965 158.018C216.056 158.018 216.899 158.315 217.543 158.909C218.188 159.503 218.485 160.296 218.485 161.236C218.485 162.177 218.138 162.969 217.494 163.564C216.849 164.158 216.006 164.455 214.915 164.455C213.874 164.455 212.982 164.158 212.337 163.564C211.792 162.969 211.444 162.227 211.444 161.236ZM218.138 190.896H211.841V167.376H218.138V190.896Z" fill="black"/>
<path d="M229.989 190.896H223.692V157.473H229.989V190.896Z" fill="black"/>
<path d="M242.732 161.533V167.327H246.748V171.932H242.732V183.667C242.732 184.558 242.88 185.153 243.227 185.549C243.574 185.945 244.219 186.093 245.161 186.093C245.855 186.093 246.5 186.044 246.996 185.945V190.698C245.756 191.094 244.467 191.243 243.178 191.243C238.765 191.243 236.534 189.015 236.434 184.558V171.882H233.013V167.277H236.434V161.484H242.732V161.533Z" fill="black"/>
<path d="M261.077 191.292C257.607 191.292 254.83 190.253 252.648 188.123C250.467 185.994 249.376 183.172 249.376 179.656V179.062C249.376 176.685 249.822 174.606 250.764 172.724C251.706 170.842 252.995 169.406 254.632 168.416C256.268 167.426 258.202 166.881 260.383 166.881C263.606 166.881 266.135 167.921 268.019 169.951C269.903 171.981 270.796 174.853 270.796 178.567V181.142H255.772C255.97 182.677 256.565 183.915 257.607 184.855C258.648 185.796 259.937 186.242 261.474 186.242C263.904 186.242 265.788 185.351 267.176 183.618L270.25 187.084C269.308 188.421 268.019 189.46 266.432 190.203C264.846 190.946 263.061 191.292 261.077 191.292ZM260.383 171.981C259.144 171.981 258.102 172.427 257.359 173.269C256.565 174.11 256.069 175.299 255.871 176.883H264.647V176.388C264.598 175.002 264.251 173.912 263.507 173.12C262.763 172.377 261.722 171.981 260.383 171.981Z" fill="black"/>
<path d="M287.604 173.219C286.762 173.12 285.968 173.021 285.324 173.021C282.944 173.021 281.357 173.813 280.663 175.447V190.847H274.366V167.327H280.316L280.514 170.149C281.754 167.971 283.539 166.931 285.77 166.931C286.464 166.931 287.109 167.03 287.753 167.228L287.604 173.219Z" fill="black"/>
<path d="M303.421 184.36C303.421 183.568 303.025 182.974 302.281 182.528C301.537 182.083 300.298 181.686 298.612 181.34C293.009 180.151 290.183 177.775 290.183 174.21C290.183 172.13 291.075 170.397 292.811 168.961C294.546 167.574 296.827 166.881 299.604 166.881C302.579 166.881 305.008 167.574 306.793 169.01C308.578 170.397 309.471 172.229 309.471 174.507H303.174C303.174 173.615 302.876 172.873 302.281 172.278C301.686 171.684 300.794 171.387 299.554 171.387C298.513 171.387 297.67 171.635 297.075 172.13C296.48 172.625 296.182 173.219 296.182 173.962C296.182 174.655 296.529 175.2 297.174 175.645C297.819 176.091 298.959 176.438 300.496 176.735C302.033 177.032 303.372 177.379 304.463 177.775C307.785 179.013 309.471 181.092 309.471 184.113C309.471 186.242 308.529 187.975 306.694 189.312C304.859 190.649 302.479 191.292 299.554 191.292C297.571 191.292 295.835 190.946 294.298 190.253C292.761 189.559 291.571 188.569 290.679 187.381C289.786 186.143 289.389 184.855 289.389 183.419H295.339C295.389 184.558 295.835 185.4 296.579 185.994C297.372 186.588 298.364 186.886 299.653 186.886C300.843 186.886 301.785 186.638 302.38 186.192C303.124 185.697 303.421 185.103 303.421 184.36Z" fill="black"/>
<path d="M259.788 270.32H248.334V282.352H243.376V253.98H261.424V257.941H248.334V266.359H259.788V270.32Z" fill="black"/>
<path d="M264.945 255.812C264.945 255.069 265.193 254.475 265.639 253.98C266.085 253.484 266.779 253.237 267.622 253.237C268.465 253.237 269.159 253.484 269.606 253.98C270.052 254.475 270.3 255.069 270.3 255.812C270.3 256.505 270.052 257.099 269.606 257.594C269.159 258.089 268.465 258.287 267.622 258.287C266.779 258.287 266.085 258.04 265.639 257.594C265.193 257.099 264.945 256.505 264.945 255.812ZM269.953 282.352H265.193V261.258H269.953V282.352Z" fill="black"/>
<path d="M279.522 261.258L279.671 263.685C281.208 261.803 283.291 260.862 285.819 260.862C290.232 260.862 292.464 263.388 292.513 268.389V282.303H287.753V268.686C287.753 267.349 287.456 266.359 286.861 265.715C286.266 265.071 285.324 264.774 284.034 264.774C282.101 264.774 280.712 265.616 279.77 267.349V282.352H275.01V261.258H279.522Z" fill="black"/>
<path d="M309.967 282.352C309.768 281.956 309.57 281.312 309.421 280.372C307.934 281.956 306.049 282.748 303.868 282.748C301.736 282.748 300 282.154 298.662 280.916C297.323 279.728 296.629 278.193 296.629 276.46C296.629 274.232 297.472 272.499 299.157 271.31C300.843 270.122 303.223 269.528 306.347 269.528H309.272V268.141C309.272 267.052 308.975 266.161 308.38 265.517C307.785 264.873 306.843 264.526 305.603 264.526C304.512 264.526 303.62 264.774 302.975 265.319C302.281 265.863 301.934 266.557 301.934 267.349H297.174C297.174 266.21 297.571 265.121 298.314 264.13C299.058 263.14 300.149 262.348 301.438 261.754C302.727 261.159 304.215 260.912 305.851 260.912C308.33 260.912 310.314 261.556 311.752 262.793C313.239 264.031 313.983 265.764 314.032 268.042V277.549C314.032 279.431 314.28 280.966 314.826 282.105V282.451H309.967V282.352ZM304.76 278.936C305.702 278.936 306.595 278.688 307.388 278.242C308.231 277.797 308.826 277.203 309.272 276.41V272.449H306.694C304.959 272.449 303.62 272.746 302.727 273.34C301.835 273.934 301.389 274.826 301.389 275.915C301.389 276.806 301.686 277.549 302.281 278.094C302.926 278.639 303.719 278.936 304.76 278.936Z" fill="black"/>
<path d="M323.354 261.258L323.503 263.685C325.04 261.803 327.122 260.862 329.651 260.862C334.064 260.862 336.295 263.388 336.345 268.389V282.303H331.585V268.686C331.585 267.349 331.287 266.359 330.692 265.715C330.097 265.071 329.155 264.774 327.866 264.774C325.932 264.774 324.544 265.616 323.602 267.349V282.352H318.891V261.258H323.354Z" fill="black"/>
<path d="M349.832 278.936C351.022 278.936 352.013 278.589 352.757 277.896C353.55 277.203 353.947 276.361 353.997 275.321H358.459C358.409 276.608 358.013 277.846 357.219 278.985C356.476 280.124 355.434 281.015 354.096 281.659C352.807 282.303 351.369 282.649 349.832 282.649C346.857 282.649 344.526 281.708 342.791 279.777C341.055 277.846 340.212 275.222 340.212 271.855V271.36C340.212 268.141 341.055 265.566 342.791 263.635C344.526 261.704 346.857 260.763 349.832 260.763C352.36 260.763 354.393 261.506 355.98 262.942C357.567 264.378 358.409 266.309 358.459 268.686H353.997C353.947 267.497 353.55 266.507 352.757 265.715C351.964 264.923 351.022 264.526 349.782 264.526C348.245 264.526 347.055 265.071 346.212 266.21C345.369 267.299 344.972 268.983 344.923 271.261V272.003C344.923 274.281 345.319 276.014 346.162 277.103C347.104 278.391 348.294 278.936 349.832 278.936Z" fill="black"/>
<path d="M362.079 255.812C362.079 255.069 362.327 254.475 362.773 253.98C363.219 253.484 363.913 253.237 364.756 253.237C365.599 253.237 366.293 253.484 366.739 253.98C367.186 254.475 367.434 255.069 367.434 255.812C367.434 256.505 367.186 257.099 366.739 257.594C366.293 258.089 365.599 258.287 364.756 258.287C363.913 258.287 363.219 258.04 362.773 257.594C362.327 257.099 362.079 256.505 362.079 255.812ZM367.136 282.352H362.376V261.258H367.136V282.352Z" fill="black"/>
<path d="M384.887 282.352C384.689 281.956 384.49 281.312 384.341 280.372C382.854 281.956 380.97 282.748 378.788 282.748C376.656 282.748 374.921 282.154 373.582 280.916C372.243 279.728 371.549 278.193 371.549 276.46C371.549 274.232 372.392 272.499 374.078 271.31C375.764 270.122 378.144 269.528 381.267 269.528H384.193V268.141C384.193 267.052 383.895 266.161 383.3 265.517C382.705 264.873 381.763 264.526 380.524 264.526C379.433 264.526 378.54 264.774 377.896 265.319C377.251 265.863 376.854 266.557 376.854 267.349H372.094C372.094 266.21 372.491 265.121 373.235 264.13C373.979 263.14 375.069 262.348 376.359 261.754C377.697 261.159 379.135 260.912 380.771 260.912C383.251 260.912 385.234 261.556 386.672 262.793C388.159 264.031 388.903 265.764 388.953 268.042V277.549C388.953 279.431 389.201 280.966 389.746 282.105V282.451H384.887V282.352ZM379.681 278.936C380.623 278.936 381.515 278.688 382.309 278.242C383.151 277.797 383.746 277.203 384.193 276.41V272.449H381.614C379.879 272.449 378.54 272.746 377.648 273.34C376.755 273.934 376.309 274.826 376.309 275.915C376.309 276.806 376.607 277.549 377.202 278.094C377.846 278.639 378.689 278.936 379.681 278.936Z" fill="black"/>
<path d="M398.919 282.352H394.159V252.445H398.919V282.352Z" fill="black"/>
<path d="M415.926 276.608C415.926 275.767 415.579 275.123 414.885 274.677C414.191 274.232 413.05 273.835 411.414 273.489C409.778 273.142 408.439 272.746 407.398 272.201C405.018 271.063 403.828 269.379 403.828 267.25C403.828 265.418 404.571 263.932 406.109 262.694C407.646 261.456 409.579 260.862 411.959 260.862C414.488 260.862 416.521 261.506 418.058 262.744C419.595 263.982 420.389 265.616 420.389 267.596H415.629C415.629 266.705 415.281 265.913 414.637 265.319C413.943 264.725 413.05 264.427 411.959 264.427C410.918 264.427 410.075 264.675 409.431 265.17C408.786 265.665 408.439 266.309 408.439 267.101C408.439 267.844 408.736 268.389 409.331 268.785C409.926 269.181 411.166 269.577 413.05 270.023C414.885 270.419 416.372 270.914 417.414 271.508C418.455 272.102 419.248 272.746 419.794 273.538C420.339 274.331 420.587 275.271 420.587 276.41C420.587 278.292 419.794 279.827 418.207 281.015C416.62 282.204 414.587 282.798 412.009 282.798C410.274 282.798 408.736 282.501 407.398 281.857C406.059 281.213 404.968 280.372 404.224 279.282C403.481 278.193 403.084 277.004 403.084 275.767H407.695C407.745 276.905 408.191 277.747 408.984 278.341C409.778 278.936 410.819 279.233 412.108 279.233C413.348 279.233 414.29 278.985 414.934 278.539C415.579 277.995 415.926 277.401 415.926 276.608Z" fill="black"/>
<path d="M503.837 297.256C514.955 297.256 523.968 288.256 523.968 277.153C523.968 266.05 514.955 257.05 503.837 257.05C492.719 257.05 483.706 266.05 483.706 277.153C483.706 288.256 492.719 297.256 503.837 297.256Z" stroke="#B1B1B1" stroke-width="2.59" stroke-linecap="round" stroke-linejoin="round"/>
<path d="M490.896 280.916L503.837 267.993L517.225 281.362" stroke="#B1B1B1" stroke-width="2.59" stroke-linecap="round" stroke-linejoin="round"/>
<path d="M256.813 391.733V398.962H254.384V380.542H261.177C263.209 380.542 264.796 381.037 265.937 382.077C267.077 383.117 267.672 384.454 267.672 386.137C267.672 387.92 267.127 389.306 265.986 390.247C264.846 391.188 263.259 391.683 261.177 391.683H256.813V391.733ZM256.813 389.752H261.177C262.466 389.752 263.457 389.455 264.152 388.811C264.846 388.217 265.193 387.326 265.193 386.137C265.193 385.048 264.846 384.157 264.152 383.513C263.457 382.869 262.515 382.523 261.325 382.473H256.813V389.752Z" fill="black"/>
<path d="M276.994 387.375C276.647 387.326 276.25 387.276 275.853 387.276C274.316 387.276 273.275 387.92 272.729 389.257V398.962H270.399V385.296H272.68L272.729 386.88C273.473 385.642 274.564 385.048 276.002 385.048C276.448 385.048 276.795 385.098 277.043 385.246V387.375H276.994Z" fill="black"/>
<path d="M284.629 399.21C282.795 399.21 281.258 398.615 280.117 397.378C278.977 396.14 278.382 394.555 278.382 392.476V392.03C278.382 390.693 278.63 389.455 279.175 388.415C279.671 387.326 280.415 386.534 281.357 385.89C282.299 385.296 283.291 384.999 284.382 384.999C286.167 384.999 287.555 385.593 288.547 386.732C289.538 387.92 290.034 389.604 290.034 391.782V392.773H280.762C280.812 394.11 281.208 395.199 281.952 396.041C282.696 396.882 283.687 397.279 284.828 397.279C285.671 397.279 286.365 397.13 286.91 396.783C287.505 396.437 288.001 395.991 288.398 395.446L289.836 396.536C288.646 398.318 286.91 399.21 284.629 399.21ZM284.332 386.93C283.39 386.93 282.597 387.276 281.952 387.97C281.307 388.663 280.911 389.604 280.762 390.841H287.604V390.643C287.555 389.455 287.208 388.514 286.662 387.871C286.067 387.276 285.274 386.93 284.332 386.93Z" fill="black"/>
<path d="M297.521 392.079H291.323V390.148H297.521V392.079Z" fill="black"/>
<path d="M305.603 390.742C303.521 390.148 301.984 389.405 301.041 388.514C300.099 387.623 299.604 386.583 299.604 385.296C299.604 383.86 300.199 382.671 301.339 381.681C302.479 380.691 304.016 380.245 305.851 380.245C307.14 380.245 308.231 380.493 309.223 380.988C310.214 381.483 310.958 382.127 311.504 383.018C312.049 383.86 312.297 384.8 312.297 385.84H309.966C309.966 384.701 309.619 383.86 308.925 383.216C308.231 382.572 307.239 382.275 305.901 382.275C304.711 382.275 303.769 382.523 303.074 383.067C302.38 383.612 302.083 384.305 302.083 385.246C302.083 385.989 302.38 386.633 303.025 387.128C303.669 387.623 304.76 388.118 306.297 388.564C307.834 389.009 309.024 389.455 309.917 390C310.76 390.495 311.404 391.139 311.851 391.832C312.247 392.525 312.495 393.317 312.495 394.258C312.495 395.743 311.9 396.932 310.76 397.823C309.619 398.714 308.033 399.16 306.099 399.16C304.81 399.16 303.669 398.912 302.579 398.417C301.488 397.922 300.645 397.278 300.05 396.437C299.455 395.595 299.157 394.654 299.157 393.565H301.587C301.587 394.654 301.984 395.545 302.826 396.189C303.669 396.833 304.76 397.179 306.149 397.179C307.438 397.179 308.429 396.932 309.074 396.387C309.768 395.843 310.115 395.149 310.115 394.258C310.115 393.367 309.818 392.674 309.173 392.178C308.429 391.683 307.289 391.238 305.603 390.742Z" fill="black"/>
<path d="M320.875 399.21C319.04 399.21 317.503 398.615 316.363 397.378C315.222 396.14 314.627 394.555 314.627 392.476V392.03C314.627 390.693 314.875 389.455 315.421 388.415C315.916 387.326 316.66 386.534 317.602 385.89C318.544 385.296 319.536 384.999 320.627 384.999C322.412 384.999 323.8 385.593 324.792 386.732C325.784 387.92 326.279 389.604 326.279 391.782V392.773H317.007C317.057 394.11 317.454 395.199 318.197 396.041C318.941 396.882 319.933 397.279 321.073 397.279C321.916 397.279 322.61 397.13 323.156 396.783C323.751 396.437 324.246 395.991 324.643 395.446L326.081 396.536C324.891 398.318 323.156 399.21 320.875 399.21ZM320.577 386.93C319.635 386.93 318.842 387.276 318.197 387.97C317.553 388.663 317.156 389.604 317.007 390.841H323.85V390.643C323.8 389.455 323.453 388.514 322.908 387.871C322.362 387.276 321.569 386.93 320.577 386.93Z" fill="black"/>
<path d="M334.609 399.21C332.775 399.21 331.238 398.615 330.097 397.378C328.957 396.14 328.362 394.555 328.362 392.476V392.03C328.362 390.693 328.61 389.455 329.155 388.415C329.651 387.326 330.395 386.534 331.337 385.89C332.279 385.296 333.271 384.999 334.361 384.999C336.146 384.999 337.535 385.593 338.526 386.732C339.518 387.92 340.014 389.604 340.014 391.782V392.773H330.742C330.791 394.11 331.188 395.199 331.932 396.041C332.676 396.882 333.667 397.279 334.808 397.279C335.651 397.279 336.345 397.13 336.89 396.783C337.485 396.437 337.981 395.991 338.378 395.446L339.816 396.536C338.626 398.318 336.89 399.21 334.609 399.21ZM334.312 386.93C333.37 386.93 332.576 387.276 331.932 387.97C331.287 388.663 330.891 389.604 330.742 390.841H337.584V390.643C337.535 389.455 337.188 388.514 336.642 387.871C336.097 387.276 335.303 386.93 334.312 386.93Z" fill="black"/>
<path d="M342.096 391.98C342.096 389.901 342.592 388.217 343.584 386.93C344.576 385.642 345.865 384.999 347.501 384.999C349.088 384.999 350.377 385.543 351.319 386.633V379.502H353.649V398.912H351.517L351.418 397.427C350.476 398.566 349.187 399.16 347.501 399.16C345.914 399.16 344.625 398.516 343.634 397.229C342.642 395.942 342.146 394.258 342.146 392.129V391.98H342.096ZM344.427 392.277C344.427 393.812 344.724 395.05 345.369 395.942C346.014 396.833 346.906 397.278 348.046 397.278C349.534 397.278 350.625 396.635 351.319 395.298V389.009C350.625 387.722 349.534 387.078 348.096 387.078C346.956 387.078 346.063 387.524 345.419 388.415C344.774 389.306 344.427 390.495 344.427 392.277Z" fill="black"/>
<path d="M259.838 428.672C257.755 428.077 256.218 427.335 255.276 426.443C254.334 425.552 253.838 424.512 253.838 423.225C253.838 421.789 254.433 420.6 255.574 419.61C256.714 418.62 258.251 418.174 260.086 418.174C261.375 418.174 262.466 418.422 263.457 418.917C264.449 419.412 265.193 420.056 265.738 420.947C266.284 421.789 266.532 422.73 266.532 423.769H264.102C264.102 422.631 263.755 421.789 263.061 421.145C262.367 420.501 261.375 420.204 260.036 420.204C258.846 420.204 257.904 420.452 257.21 420.997C256.516 421.541 256.218 422.234 256.218 423.175C256.218 423.918 256.516 424.562 257.16 425.057C257.805 425.552 258.896 426.047 260.433 426.493C261.97 426.938 263.16 427.384 264.052 427.929C264.895 428.424 265.54 429.068 265.986 429.761C266.383 430.454 266.631 431.246 266.631 432.187C266.631 433.673 266.036 434.861 264.895 435.752C263.755 436.644 262.168 437.089 260.234 437.089C258.945 437.089 257.805 436.842 256.714 436.346C255.623 435.851 254.78 435.208 254.185 434.366C253.59 433.524 253.293 432.583 253.293 431.494H255.722C255.722 432.583 256.119 433.475 256.962 434.118C257.805 434.762 258.896 435.109 260.284 435.109C261.573 435.109 262.565 434.861 263.209 434.316C263.904 433.772 264.251 433.078 264.251 432.187C264.251 431.296 263.953 430.603 263.309 430.107C262.664 429.662 261.474 429.167 259.838 428.672Z" fill="black"/>
<path d="M275.109 437.139C273.275 437.139 271.738 436.544 270.597 435.307C269.457 434.069 268.862 432.484 268.862 430.404V429.959C268.862 428.622 269.11 427.384 269.655 426.344C270.151 425.255 270.895 424.463 271.837 423.819C272.779 423.225 273.771 422.928 274.862 422.928C276.647 422.928 278.035 423.522 279.027 424.661C280.018 425.849 280.514 427.533 280.514 429.711V430.702H271.242C271.292 432.039 271.688 433.128 272.432 433.97C273.176 434.811 274.167 435.208 275.308 435.208C276.151 435.208 276.845 435.059 277.39 434.712C277.985 434.366 278.481 433.92 278.878 433.375L280.316 434.465C279.126 436.247 277.39 437.139 275.109 437.139ZM274.812 424.859C273.87 424.859 273.077 425.205 272.432 425.899C271.787 426.592 271.391 427.533 271.242 428.77H278.084V428.622C278.035 427.434 277.688 426.493 277.142 425.849C276.547 425.205 275.804 424.859 274.812 424.859Z" fill="black"/>
<path d="M288.844 437.139C287.009 437.139 285.472 436.544 284.332 435.307C283.192 434.069 282.597 432.484 282.597 430.404V429.959C282.597 428.622 282.844 427.384 283.39 426.344C283.886 425.255 284.629 424.463 285.572 423.819C286.514 423.225 287.505 422.928 288.596 422.928C290.381 422.928 291.769 423.522 292.761 424.661C293.753 425.849 294.249 427.533 294.249 429.711V430.702H284.977C285.026 432.039 285.423 433.128 286.167 433.97C286.91 434.811 287.902 435.208 289.042 435.208C289.885 435.208 290.579 435.059 291.125 434.712C291.72 434.366 292.216 433.92 292.612 433.375L294.05 434.465C292.86 436.247 291.125 437.139 288.844 437.139ZM288.547 424.859C287.604 424.859 286.811 425.205 286.167 425.899C285.522 426.592 285.125 427.533 284.977 428.77H291.819V428.622C291.769 427.434 291.422 426.493 290.877 425.849C290.282 425.205 289.538 424.859 288.547 424.859Z" fill="black"/>
<path d="M296.331 429.909C296.331 427.83 296.827 426.146 297.819 424.859C298.81 423.571 300.099 422.928 301.736 422.928C303.322 422.928 304.612 423.472 305.554 424.562V417.431H307.884V436.842H305.752L305.653 435.356C304.711 436.495 303.422 437.089 301.736 437.089C300.149 437.089 298.86 436.445 297.868 435.158C296.877 433.871 296.381 432.187 296.381 430.058V429.909H296.331ZM298.662 430.206C298.662 431.741 298.959 432.979 299.604 433.871C300.248 434.762 301.141 435.208 302.281 435.208C303.769 435.208 304.859 434.564 305.554 433.227V426.938C304.859 425.651 303.769 425.007 302.331 425.007C301.19 425.007 300.298 425.453 299.653 426.344C299.009 427.236 298.662 428.473 298.662 430.206Z" fill="black"/>
<path d="M259.838 470.116C257.755 469.522 256.218 468.779 255.276 467.888C254.334 466.997 253.838 465.957 253.838 464.67C253.838 463.234 254.433 462.045 255.574 461.055C256.714 460.065 258.251 459.619 260.086 459.619C261.375 459.619 262.466 459.866 263.457 460.362C264.449 460.857 265.193 461.501 265.738 462.392C266.284 463.234 266.532 464.174 266.532 465.214H264.102C264.102 464.075 263.755 463.234 263.061 462.59C262.367 461.946 261.375 461.649 260.036 461.649C258.846 461.649 257.904 461.897 257.21 462.441C256.516 462.986 256.218 463.679 256.218 464.62C256.218 465.363 256.516 466.006 257.16 466.502C257.805 466.997 258.896 467.492 260.433 467.938C261.97 468.383 263.16 468.829 264.052 469.374C264.895 469.869 265.54 470.512 265.986 471.206C266.383 471.899 266.631 472.691 266.631 473.632C266.631 475.117 266.036 476.306 264.895 477.197C263.755 478.088 262.168 478.534 260.234 478.534C258.945 478.534 257.805 478.286 256.714 477.791C255.623 477.296 254.78 476.652 254.185 475.811C253.59 474.969 253.293 474.028 253.293 472.939H255.722C255.722 474.028 256.119 474.919 256.962 475.563C257.805 476.207 258.896 476.553 260.284 476.553C261.573 476.553 262.565 476.306 263.209 475.761C263.904 475.216 264.251 474.523 264.251 473.632C264.251 472.741 263.953 472.047 263.309 471.552C262.664 471.057 261.474 470.562 259.838 470.116Z" fill="black"/>
<path d="M275.109 478.534C273.275 478.534 271.738 477.94 270.597 476.702C269.457 475.464 268.862 473.88 268.862 471.8V471.354C268.862 470.017 269.11 468.779 269.655 467.74C270.151 466.65 270.895 465.858 271.837 465.214C272.779 464.62 273.771 464.323 274.862 464.323C276.647 464.323 278.035 464.917 279.027 466.056C280.018 467.244 280.514 468.928 280.514 471.107V472.097H271.242C271.292 473.434 271.688 474.523 272.432 475.365C273.176 476.207 274.167 476.603 275.308 476.603C276.151 476.603 276.845 476.454 277.39 476.108C277.985 475.761 278.481 475.315 278.878 474.771L280.316 475.86C279.126 477.692 277.39 478.534 275.109 478.534ZM274.812 466.304C273.87 466.304 273.077 466.65 272.432 467.343C271.787 468.037 271.391 468.977 271.242 470.215H278.084V470.017C278.035 468.829 277.688 467.888 277.142 467.244C276.547 466.601 275.804 466.304 274.812 466.304Z" fill="black"/>
<path d="M289.786 466.7C289.439 466.65 289.042 466.601 288.646 466.601C287.109 466.601 286.067 467.244 285.522 468.581V478.286H283.192V464.62H285.472L285.522 466.205C286.266 464.967 287.357 464.372 288.794 464.372C289.241 464.372 289.588 464.422 289.836 464.57V466.7H289.786Z" fill="black"/>
<path d="M291.918 461.005C291.918 460.609 292.017 460.312 292.265 460.065C292.513 459.817 292.86 459.668 293.307 459.668C293.753 459.668 294.1 459.817 294.348 460.065C294.596 460.312 294.695 460.659 294.695 461.005C294.695 461.402 294.596 461.699 294.348 461.946C294.1 462.194 293.753 462.342 293.307 462.342C292.86 462.342 292.513 462.194 292.265 461.946C292.067 461.699 291.918 461.352 291.918 461.005ZM294.447 478.286H292.117V464.62H294.447V478.286Z" fill="black"/>
<path d="M303.917 478.534C302.083 478.534 300.546 477.94 299.405 476.702C298.265 475.464 297.67 473.88 297.67 471.8V471.354C297.67 470.017 297.918 468.779 298.463 467.74C298.959 466.65 299.703 465.858 300.645 465.214C301.587 464.62 302.579 464.323 303.669 464.323C305.454 464.323 306.843 464.917 307.834 466.056C308.826 467.244 309.322 468.928 309.322 471.107V472.097H300.05C300.099 473.434 300.496 474.523 301.24 475.365C301.984 476.207 302.975 476.603 304.116 476.603C304.959 476.603 305.653 476.454 306.198 476.108C306.793 475.761 307.289 475.315 307.686 474.771L309.124 475.86C307.934 477.692 306.198 478.534 303.917 478.534ZM303.62 466.304C302.678 466.304 301.884 466.65 301.24 467.343C300.595 468.037 300.199 468.977 300.05 470.215H306.892V470.017C306.843 468.829 306.496 467.888 305.95 467.244C305.355 466.601 304.562 466.304 303.62 466.304Z" fill="black"/>
<path d="M319.933 474.672C319.933 474.028 319.685 473.533 319.239 473.186C318.743 472.84 317.949 472.543 316.759 472.295C315.569 472.047 314.627 471.75 313.933 471.404C313.239 471.057 312.743 470.611 312.396 470.116C312.049 469.621 311.9 469.027 311.9 468.383C311.9 467.244 312.396 466.304 313.338 465.561C314.28 464.769 315.52 464.422 316.958 464.422C318.495 464.422 319.784 464.818 320.726 465.61C321.668 466.403 322.164 467.442 322.164 468.68H319.834C319.834 468.037 319.586 467.492 319.04 467.046C318.495 466.601 317.801 466.353 317.007 466.353C316.164 466.353 315.47 466.551 315.024 466.898C314.578 467.244 314.28 467.74 314.28 468.334C314.28 468.878 314.528 469.324 314.974 469.621C315.421 469.918 316.214 470.166 317.404 470.463C318.594 470.71 319.536 471.057 320.23 471.404C320.974 471.75 321.47 472.196 321.866 472.691C322.214 473.186 322.412 473.83 322.412 474.573C322.412 475.811 321.916 476.751 320.924 477.494C319.933 478.237 318.693 478.583 317.106 478.583C316.016 478.583 315.024 478.385 314.181 477.989C313.338 477.593 312.694 477.048 312.198 476.355C311.702 475.662 311.504 474.919 311.504 474.078H313.834C313.884 474.87 314.181 475.464 314.776 475.959C315.371 476.405 316.115 476.652 317.106 476.652C317.999 476.652 318.693 476.454 319.239 476.108C319.635 475.761 319.933 475.266 319.933 474.672Z" fill="black"/>
<path d="M342.295 473.483H334.56L332.824 478.286H330.296L337.336 459.867H339.469L346.509 478.286H344.03L342.295 473.483ZM335.304 471.503H341.551L338.427 462.887L335.304 471.503Z" fill="black"/>
<path d="M259.838 511.908C257.755 511.313 256.218 510.571 255.276 509.679C254.334 508.788 253.838 507.748 253.838 506.461C253.838 505.025 254.433 503.837 255.574 502.846C256.714 501.856 258.251 501.41 260.086 501.41C261.375 501.41 262.466 501.658 263.457 502.153C264.449 502.648 265.193 503.292 265.738 504.183C266.284 505.025 266.532 505.966 266.532 507.006H264.102C264.102 505.867 263.755 505.025 263.061 504.381C262.367 503.738 261.375 503.44 260.036 503.44C258.846 503.44 257.904 503.688 257.21 504.233C256.516 504.777 256.218 505.471 256.218 506.411C256.218 507.154 256.516 507.798 257.16 508.293C257.805 508.788 258.896 509.283 260.433 509.729C261.97 510.175 263.16 510.62 264.052 511.165C264.895 511.66 265.54 512.304 265.986 512.997C266.383 513.69 266.631 514.482 266.631 515.423C266.631 516.909 266.036 518.097 264.895 518.988C263.755 519.88 262.168 520.325 260.234 520.325C258.945 520.325 257.805 520.078 256.714 519.583C255.623 519.087 254.78 518.444 254.185 517.602C253.59 516.76 253.293 515.819 253.293 514.73H255.722C255.722 515.819 256.119 516.711 256.962 517.354C257.805 517.998 258.896 518.345 260.284 518.345C261.573 518.345 262.565 518.097 263.209 517.552C263.904 517.008 264.251 516.315 264.251 515.423C264.251 514.532 263.953 513.839 263.309 513.344C262.664 512.898 261.474 512.403 259.838 511.908Z" fill="black"/>
<path d="M275.109 520.375C273.275 520.375 271.738 519.781 270.597 518.543C269.457 517.305 268.862 515.72 268.862 513.641V513.195C268.862 511.858 269.11 510.62 269.655 509.58C270.151 508.491 270.895 507.699 271.837 507.055C272.779 506.461 273.771 506.164 274.862 506.164C276.647 506.164 278.035 506.758 279.027 507.897C280.018 509.085 280.514 510.769 280.514 512.948V513.938H271.242C271.292 515.275 271.688 516.364 272.432 517.206C273.176 518.048 274.167 518.444 275.308 518.444C276.151 518.444 276.845 518.295 277.39 517.949C277.985 517.602 278.481 517.156 278.878 516.612L280.316 517.701C279.126 519.484 277.39 520.375 275.109 520.375ZM274.812 508.144C273.87 508.144 273.077 508.491 272.432 509.184C271.787 509.878 271.391 510.818 271.242 512.056H278.084V511.858C278.035 510.67 277.688 509.729 277.142 509.085C276.547 508.442 275.804 508.144 274.812 508.144Z" fill="black"/>
<path d="M289.786 508.541C289.439 508.491 289.042 508.442 288.646 508.442C287.109 508.442 286.067 509.085 285.522 510.422V520.127H283.192V506.461H285.472L285.522 508.045C286.266 506.808 287.357 506.213 288.794 506.213C289.241 506.213 289.588 506.263 289.836 506.411V508.541H289.786Z" fill="black"/>
<path d="M291.918 502.846C291.918 502.45 292.017 502.153 292.265 501.906C292.513 501.658 292.86 501.509 293.307 501.509C293.753 501.509 294.1 501.658 294.348 501.906C294.596 502.153 294.695 502.5 294.695 502.846C294.695 503.242 294.596 503.54 294.348 503.787C294.1 504.035 293.753 504.183 293.307 504.183C292.86 504.183 292.513 504.035 292.265 503.787C292.067 503.54 291.918 503.193 291.918 502.846ZM294.447 520.127H292.117V506.461H294.447V520.127Z" fill="black"/>
<path d="M303.917 520.375C302.083 520.375 300.546 519.781 299.405 518.543C298.265 517.305 297.67 515.72 297.67 513.641V513.195C297.67 511.858 297.918 510.62 298.463 509.58C298.959 508.491 299.703 507.699 300.645 507.055C301.587 506.461 302.579 506.164 303.669 506.164C305.454 506.164 306.843 506.758 307.834 507.897C308.826 509.085 309.322 510.769 309.322 512.948V513.938H300.05C300.099 515.275 300.496 516.364 301.24 517.206C301.984 518.048 302.975 518.444 304.116 518.444C304.959 518.444 305.653 518.295 306.198 517.949C306.793 517.602 307.289 517.156 307.686 516.612L309.124 517.701C307.934 519.484 306.198 520.375 303.917 520.375ZM303.62 508.144C302.678 508.144 301.884 508.491 301.24 509.184C300.595 509.878 300.199 510.818 300.05 512.056H306.892V511.858C306.843 510.67 306.496 509.729 305.95 509.085C305.355 508.442 304.562 508.144 303.62 508.144Z" fill="black"/>
<path d="M319.933 516.513C319.933 515.869 319.685 515.374 319.239 515.027C318.743 514.681 317.949 514.383 316.759 514.136C315.569 513.888 314.627 513.591 313.933 513.245C313.239 512.898 312.743 512.452 312.396 511.957C312.049 511.462 311.9 510.868 311.9 510.224C311.9 509.085 312.396 508.144 313.338 507.402C314.28 506.609 315.52 506.263 316.958 506.263C318.495 506.263 319.784 506.659 320.726 507.451C321.668 508.243 322.164 509.283 322.164 510.521H319.834C319.834 509.877 319.586 509.333 319.04 508.887C318.495 508.442 317.801 508.194 317.007 508.194C316.164 508.194 315.47 508.392 315.024 508.739C314.578 509.085 314.28 509.58 314.28 510.175C314.28 510.719 314.528 511.165 314.974 511.462C315.421 511.759 316.214 512.007 317.404 512.304C318.594 512.551 319.536 512.898 320.23 513.245C320.974 513.591 321.47 514.037 321.866 514.532C322.214 515.027 322.412 515.671 322.412 516.414C322.412 517.651 321.916 518.592 320.924 519.335C319.933 520.078 318.693 520.424 317.106 520.424C316.016 520.424 315.024 520.226 314.181 519.83C313.338 519.434 312.694 518.889 312.198 518.196C311.702 517.503 311.504 516.76 311.504 515.918H313.834C313.884 516.711 314.181 517.305 314.776 517.8C315.371 518.246 316.115 518.493 317.106 518.493C317.999 518.493 318.693 518.295 319.239 517.949C319.635 517.602 319.933 517.107 319.933 516.513Z" fill="black"/>
<path d="M332.081 520.127V501.707H338.13C340.113 501.707 341.65 502.104 342.642 502.945C343.634 503.787 344.179 504.975 344.179 506.609C344.179 507.451 343.931 508.243 343.435 508.887C342.939 509.531 342.295 510.076 341.452 510.422C342.444 510.719 343.237 511.214 343.832 512.007C344.427 512.799 344.675 513.74 344.675 514.78C344.675 516.414 344.129 517.751 343.088 518.691C341.997 519.632 340.51 520.127 338.526 520.127H332.081ZM334.56 509.58H338.229C339.27 509.58 340.163 509.333 340.758 508.788C341.402 508.244 341.7 507.55 341.7 506.609C341.7 505.619 341.402 504.876 340.807 504.381C340.212 503.936 339.32 503.688 338.13 503.688H334.51V509.58H334.56ZM334.56 511.512V518.147H338.576C339.716 518.147 340.609 517.85 341.254 517.255C341.898 516.661 342.245 515.869 342.245 514.829C342.245 512.601 341.055 511.512 338.626 511.512H334.56Z" fill="black"/>
<path d="M216.254 356.923H224.782V360.142H212.238V340.731H216.254V356.923Z" fill="black"/>
<path d="M235.195 360.142C234.997 359.795 234.897 359.349 234.798 358.854C233.856 359.894 232.666 360.439 231.129 360.439C229.691 360.439 228.551 360.043 227.609 359.201C226.667 358.359 226.22 357.369 226.22 356.081C226.22 354.546 226.766 353.358 227.906 352.566C229.047 351.724 230.683 351.328 232.815 351.328H234.6V350.486C234.6 349.842 234.451 349.298 234.104 348.901C233.757 348.505 233.212 348.307 232.468 348.307C231.823 348.307 231.327 348.456 230.931 348.753C230.534 349.05 230.385 349.496 230.385 350.04H226.518C226.518 349.199 226.766 348.406 227.311 347.713C227.807 347.02 228.551 346.426 229.493 346.03C230.435 345.633 231.476 345.435 232.666 345.435C234.451 345.435 235.839 345.881 236.93 346.772C237.972 347.664 238.517 348.901 238.517 350.536V356.775C238.517 358.161 238.715 359.201 239.112 359.894V360.142H235.195ZM231.972 357.418C232.517 357.418 233.063 357.27 233.559 357.022C234.054 356.775 234.402 356.428 234.649 355.982V353.506H233.212C231.278 353.506 230.237 354.15 230.137 355.487V355.735C230.137 356.23 230.286 356.626 230.633 356.923C230.931 357.27 231.427 357.418 231.972 357.418Z" fill="black"/>
<path d="M249.326 356.131C249.326 355.636 249.078 355.289 248.632 354.992C248.186 354.695 247.392 354.497 246.401 354.249C242.979 353.506 241.244 352.071 241.244 349.892C241.244 348.604 241.789 347.565 242.831 346.673C243.872 345.832 245.31 345.386 246.996 345.386C248.83 345.386 250.318 345.832 251.409 346.673C252.499 347.515 253.045 348.654 253.045 350.04H249.177C249.177 349.496 248.979 349.05 248.632 348.654C248.285 348.258 247.739 348.109 246.946 348.109C246.302 348.109 245.806 348.258 245.459 348.555C245.112 348.852 244.913 349.199 244.913 349.694C244.913 350.139 245.112 350.486 245.508 350.734C245.905 350.981 246.599 351.229 247.541 351.427C248.483 351.625 249.326 351.823 249.971 352.071C252.004 352.813 253.045 354.101 253.045 355.933C253.045 357.27 252.499 358.31 251.359 359.151C250.219 359.944 248.781 360.389 246.996 360.389C245.806 360.389 244.715 360.191 243.773 359.745C242.831 359.3 242.087 358.706 241.542 357.963C240.996 357.22 240.748 356.378 240.748 355.537H244.417C244.467 356.23 244.715 356.725 245.161 357.121C245.657 357.468 246.252 357.666 247.045 357.666C247.789 357.666 248.334 357.517 248.731 357.27C249.128 356.973 249.326 356.576 249.326 356.131Z" fill="black"/>
<path d="M260.185 342.118V345.683H262.664V348.505H260.185V355.735C260.185 356.279 260.284 356.675 260.482 356.874C260.681 357.121 261.077 357.22 261.672 357.22C262.119 357.22 262.466 357.171 262.813 357.121V360.043C262.069 360.29 261.276 360.389 260.482 360.389C257.755 360.389 256.417 359.003 256.317 356.279V348.505H254.185V345.683H256.317V342.118H260.185Z" fill="black"/>
<path d="M283.588 352.17H275.903V360.092H271.887V340.682H284.58V343.9H275.903V348.902H283.588V352.17Z" fill="black"/>
<path d="M294.992 358.656C294.05 359.795 292.711 360.389 291.026 360.389C289.489 360.389 288.299 359.943 287.456 359.052C286.613 358.161 286.216 356.873 286.216 355.14V345.683H290.084V355.041C290.084 356.527 290.778 357.319 292.166 357.319C293.455 357.319 294.397 356.873 294.844 355.933V345.683H298.711V360.142H295.092L294.992 358.656Z" fill="black"/>
<path d="M305.206 345.683L305.306 347.366C306.347 346.079 307.735 345.435 309.471 345.435C311.008 345.435 312.148 345.881 312.892 346.772C313.636 347.664 314.032 349 314.032 350.783V360.092H310.165V350.882C310.165 350.04 309.966 349.446 309.619 349.1C309.272 348.753 308.677 348.555 307.834 348.555C306.744 348.555 305.95 349 305.405 349.941V360.142H301.537V345.683H305.206Z" fill="black"/>
<path d="M316.363 352.813C316.363 350.585 316.859 348.753 317.9 347.416C318.941 346.079 320.28 345.435 322.065 345.435C323.453 345.435 324.643 345.98 325.536 347.02V339.642H329.403V360.142H325.932L325.734 358.607C324.792 359.795 323.552 360.389 322.015 360.389C320.329 360.389 318.941 359.696 317.9 358.359C316.859 357.022 316.363 355.19 316.363 352.813ZM320.23 353.061C320.23 354.398 320.478 355.438 320.924 356.18C321.42 356.923 322.065 357.27 323.007 357.27C324.197 357.27 325.04 356.774 325.536 355.784V350.09C325.04 349.1 324.197 348.604 323.056 348.604C321.172 348.555 320.23 350.04 320.23 353.061Z" fill="black"/>
<path d="M332.378 341.969C332.378 341.375 332.577 340.929 332.973 340.533C333.37 340.137 333.866 339.989 334.56 339.989C335.204 339.989 335.75 340.187 336.146 340.533C336.543 340.929 336.741 341.375 336.741 341.969C336.741 342.563 336.543 343.059 336.146 343.405C335.75 343.801 335.204 343.95 334.56 343.95C333.915 343.95 333.37 343.752 332.973 343.405C332.577 343.009 332.378 342.514 332.378 341.969ZM336.444 360.142H332.576V345.683H336.444V360.142Z" fill="black"/>
<path d="M343.187 345.683L343.286 347.366C344.328 346.079 345.716 345.435 347.451 345.435C348.989 345.435 350.129 345.881 350.873 346.772C351.616 347.664 352.013 349 352.013 350.783V360.092H348.146V350.882C348.146 350.04 347.947 349.446 347.6 349.1C347.253 348.753 346.658 348.555 345.815 348.555C344.724 348.555 343.931 349 343.386 349.941V360.142H339.518V345.683H343.187Z" fill="black"/>
<path d="M354.393 352.813C354.393 350.585 354.939 348.802 355.98 347.465C357.021 346.129 358.459 345.435 360.244 345.435C361.831 345.435 363.07 345.98 363.963 347.069L364.112 345.732H367.632V359.696C367.632 360.983 367.334 362.073 366.789 363.013C366.194 363.954 365.401 364.647 364.359 365.143C363.318 365.638 362.079 365.885 360.69 365.885C359.649 365.885 358.608 365.687 357.567 365.242C356.575 364.796 355.782 364.251 355.286 363.608L357.021 361.28C357.963 362.37 359.153 362.914 360.542 362.914C361.583 362.914 362.376 362.617 362.921 362.073C363.467 361.528 363.764 360.736 363.764 359.745V358.953C362.872 359.943 361.682 360.439 360.244 360.439C358.509 360.439 357.12 359.745 356.029 358.408C354.939 357.072 354.443 355.239 354.443 353.011V352.813H354.393ZM358.261 353.061C358.261 354.348 358.509 355.388 359.054 356.131C359.599 356.873 360.294 357.27 361.236 357.27C362.426 357.27 363.269 356.824 363.764 355.933V349.892C363.269 349 362.426 348.555 361.285 348.555C360.343 348.555 359.649 348.951 359.104 349.694C358.558 350.436 358.261 351.575 358.261 353.061Z" fill="black"/>
<path d="M391.531 343.95H385.581V360.142H381.565V343.95H375.664V340.731H391.531V343.95Z" fill="black"/>
<path d="M397.828 354.646L400.506 345.683H404.671L398.869 362.37L398.572 363.113C397.729 364.995 396.291 365.935 394.308 365.935C393.762 365.935 393.167 365.836 392.622 365.688V362.766H393.217C393.961 362.766 394.506 362.667 394.853 362.42C395.2 362.172 395.498 361.826 395.696 361.33L396.142 360.142L391.085 345.683H395.25L397.828 354.646Z" fill="black"/>
<path d="M419.198 353.011C419.198 355.24 418.703 357.022 417.661 358.359C416.67 359.696 415.281 360.389 413.546 360.389C412.108 360.389 410.918 359.894 410.026 358.854V365.638H406.158V345.633H409.728L409.877 347.069C410.819 345.931 412.009 345.386 413.546 345.386C415.331 345.386 416.719 346.03 417.711 347.367C418.703 348.703 419.198 350.486 419.198 352.813V353.011ZM415.331 352.764C415.331 351.427 415.083 350.387 414.637 349.644C414.141 348.901 413.447 348.555 412.554 348.555C411.364 348.555 410.521 349.001 410.075 349.941V355.834C410.571 356.775 411.414 357.27 412.604 357.27C414.438 357.27 415.331 355.784 415.331 352.764Z" fill="black"/>
<path d="M428.272 360.389C426.14 360.389 424.405 359.745 423.116 358.458C421.777 357.171 421.132 355.438 421.132 353.259V352.863C421.132 351.427 421.43 350.139 421.975 348.951C422.521 347.763 423.314 346.921 424.355 346.327C425.396 345.732 426.537 345.386 427.876 345.386C429.859 345.386 431.396 346.03 432.536 347.267C433.677 348.505 434.222 350.288 434.222 352.566V354.15H425C425.149 355.091 425.496 355.834 426.14 356.428C426.785 357.022 427.578 357.27 428.52 357.27C430.008 357.27 431.148 356.725 431.991 355.636L433.875 357.765C433.28 358.607 432.536 359.201 431.545 359.696C430.553 360.142 429.462 360.389 428.272 360.389ZM427.826 348.505C427.082 348.505 426.438 348.753 425.942 349.298C425.446 349.793 425.148 350.535 425.049 351.526H430.404V351.229C430.404 350.387 430.156 349.694 429.71 349.248C429.264 348.802 428.619 348.505 427.826 348.505Z" fill="black"/>
<path d="M216.552 559.195H219.725V561.473H216.552V565.038H214.172V561.473H210.998V559.195H214.172V555.779H216.552V559.195Z" fill="black"/>
<path d="M233.261 553.6L236.534 562.81L239.806 553.6H243.227V566.326H240.599V562.86L240.847 556.868L237.426 566.326H235.592L232.17 556.868L232.418 562.86V566.326H229.79V553.6H233.261Z" fill="black"/>
<path d="M257.904 560.235C257.904 561.473 257.706 562.562 257.259 563.503C256.813 564.444 256.169 565.187 255.375 565.682C254.532 566.177 253.59 566.474 252.549 566.474C251.508 566.474 250.566 566.227 249.723 565.731C248.88 565.236 248.235 564.493 247.789 563.553C247.343 562.612 247.095 561.523 247.095 560.285V559.641C247.095 558.403 247.343 557.264 247.789 556.323C248.235 555.383 248.88 554.64 249.723 554.145C250.566 553.65 251.508 553.402 252.549 553.402C253.59 553.402 254.532 553.65 255.375 554.145C256.218 554.64 256.863 555.383 257.309 556.323C257.755 557.264 258.003 558.354 258.003 559.641V560.235H257.904ZM255.276 559.69C255.276 558.354 255.028 557.363 254.582 556.67C254.086 555.977 253.442 555.63 252.549 555.63C251.657 555.63 251.012 555.977 250.516 556.67C250.02 557.363 249.772 558.354 249.772 559.69V560.334C249.772 561.622 250.02 562.661 250.467 563.355C250.962 564.048 251.657 564.444 252.549 564.444C253.442 564.444 254.086 564.097 254.582 563.404C255.078 562.711 255.276 561.721 255.276 560.384V559.69Z" fill="black"/>
<path d="M266.532 561.671H264.449V566.326H261.821V553.6H266.532C268.019 553.6 269.209 553.947 270.002 554.59C270.796 555.284 271.242 556.224 271.242 557.413C271.242 558.304 271.044 558.997 270.697 559.591C270.349 560.186 269.754 560.631 269.011 560.978L271.787 566.177V566.276H268.961L266.532 561.671ZM264.399 559.542H266.532C267.176 559.542 267.722 559.393 268.069 559.047C268.416 558.7 268.614 558.254 268.614 557.66C268.614 557.066 268.465 556.571 268.118 556.224C267.771 555.878 267.275 555.729 266.532 555.729H264.449V559.542H264.399Z" fill="black"/>
<path d="M282.844 560.829H277.787V564.246H283.687V566.326H275.159V553.6H283.687V555.729H277.787V558.75H282.844V560.829Z" fill="black"/>
<path d="M304.116 560.235C304.116 561.473 303.917 562.562 303.471 563.503C303.025 564.444 302.38 565.187 301.587 565.682C300.744 566.177 299.802 566.474 298.761 566.474C297.719 566.474 296.777 566.227 295.934 565.731C295.092 565.236 294.447 564.493 294.001 563.553C293.554 562.612 293.306 561.523 293.306 560.285V559.641C293.306 558.403 293.554 557.264 294.001 556.323C294.447 555.383 295.092 554.64 295.934 554.145C296.777 553.65 297.719 553.402 298.761 553.402C299.802 553.402 300.744 553.65 301.587 554.145C302.43 554.64 303.074 555.383 303.521 556.323C303.967 557.264 304.215 558.354 304.215 559.641V560.235H304.116ZM301.438 559.69C301.438 558.354 301.19 557.363 300.744 556.67C300.248 555.977 299.604 555.63 298.711 555.63C297.819 555.63 297.174 555.977 296.678 556.67C296.182 557.363 295.934 558.354 295.934 559.69V560.334C295.934 561.622 296.182 562.661 296.629 563.355C297.124 564.048 297.819 564.444 298.711 564.444C299.604 564.444 300.248 564.097 300.744 563.404C301.24 562.711 301.438 561.721 301.438 560.384V559.69Z" fill="black"/>
<path d="M310.611 561.82V566.276H307.983V553.551H312.942C313.884 553.551 314.727 553.749 315.47 554.095C316.214 554.442 316.759 554.937 317.156 555.581C317.553 556.224 317.751 556.967 317.751 557.759C317.751 558.997 317.305 559.988 316.462 560.73C315.619 561.473 314.429 561.82 312.942 561.82H310.611ZM310.611 559.74H312.942C313.636 559.74 314.181 559.591 314.528 559.245C314.875 558.898 315.074 558.453 315.074 557.858C315.074 557.215 314.875 556.72 314.528 556.323C314.181 555.927 313.636 555.729 312.991 555.729H310.611V559.74Z" fill="black"/>
<path d="M331.089 555.729H327.172V566.326H324.544V555.729H320.677V553.6H331.039V555.729H331.089Z" fill="black"/>
<path d="M337.336 566.326H334.709V553.6H337.336V566.326Z" fill="black"/>
<path d="M352.211 560.235C352.211 561.473 352.013 562.562 351.567 563.503C351.121 564.444 350.476 565.187 349.683 565.682C348.84 566.177 347.898 566.474 346.856 566.474C345.815 566.474 344.873 566.227 344.03 565.731C343.187 565.236 342.543 564.493 342.096 563.553C341.65 562.612 341.402 561.523 341.402 560.285V559.641C341.402 558.403 341.65 557.264 342.096 556.323C342.543 555.383 343.187 554.64 344.03 554.145C344.873 553.65 345.815 553.402 346.856 553.402C347.898 553.402 348.84 553.65 349.683 554.145C350.526 554.64 351.17 555.383 351.616 556.323C352.063 557.264 352.311 558.354 352.311 559.641V560.235H352.211ZM349.534 559.69C349.534 558.354 349.286 557.363 348.84 556.67C348.344 555.977 347.699 555.63 346.807 555.63C345.914 555.63 345.27 555.977 344.774 556.67C344.278 557.363 344.03 558.354 344.03 559.69V560.334C344.03 561.622 344.278 562.661 344.724 563.355C345.22 564.048 345.914 564.444 346.807 564.444C347.699 564.444 348.344 564.097 348.84 563.404C349.336 562.711 349.534 561.721 349.534 560.384V559.69Z" fill="black"/>
<path d="M366.442 566.326H363.814L358.707 557.957V566.326H356.079V553.6H358.707L363.814 561.968V553.6H366.442V566.326Z" fill="black"/>
<path d="M377.301 563.008C377.301 562.513 377.102 562.117 376.755 561.869C376.408 561.622 375.764 561.325 374.871 561.027C373.979 560.73 373.235 560.433 372.689 560.136C371.251 559.344 370.508 558.304 370.508 556.967C370.508 556.274 370.706 555.68 371.103 555.135C371.499 554.59 372.045 554.194 372.789 553.897C373.532 553.6 374.326 553.451 375.218 553.451C376.111 553.451 376.954 553.6 377.648 553.947C378.342 554.293 378.887 554.739 379.284 555.333C379.681 555.927 379.879 556.62 379.879 557.363H377.251C377.251 556.769 377.053 556.323 376.706 556.026C376.359 555.68 375.813 555.531 375.169 555.531C374.524 555.531 374.028 555.68 373.681 555.927C373.334 556.175 373.136 556.571 373.136 557.017C373.136 557.413 373.334 557.759 373.78 558.056C374.177 558.354 374.821 558.601 375.615 558.849C377.102 559.294 378.193 559.839 378.887 560.532C379.581 561.226 379.929 562.018 379.929 563.008C379.929 564.097 379.532 564.989 378.689 565.583C377.846 566.227 376.755 566.524 375.317 566.524C374.326 566.524 373.433 566.326 372.64 565.979C371.846 565.632 371.202 565.137 370.805 564.494C370.359 563.85 370.161 563.157 370.161 562.315H372.789C372.789 563.701 373.631 564.395 375.317 564.395C375.962 564.395 376.408 564.246 376.755 563.998C377.102 563.8 377.301 563.454 377.301 563.008Z" fill="black"/>
<path d="M213.924 289.581H188.24C186.256 289.581 184.62 287.997 184.62 285.967V251.058C184.62 249.077 186.256 247.443 188.24 247.443H213.924C215.907 247.443 217.494 249.028 217.543 251.058V286.016C217.494 287.997 215.907 289.581 213.924 289.581ZM188.24 249.573C187.397 249.573 186.752 250.216 186.752 251.058V285.967C186.752 286.809 187.397 287.452 188.24 287.452H213.924C214.767 287.452 215.411 286.809 215.411 285.967V251.058C215.411 250.216 214.767 249.573 213.924 249.573H188.24Z" fill="#00C2FF"/>
<path d="M211.197 277.004H190.471V279.084H211.197V277.004Z" fill="#00C2FF"/>
<path d="M211.197 270.865H190.471V272.944H211.197V270.865Z" fill="#00C2FF"/>
<path d="M211.197 263.14H200.834V265.22H211.197V263.14Z" fill="#00C2FF"/>
<path d="M211.197 256.752H200.834V258.832H211.197V256.752Z" fill="#00C2FF"/>
<path d="M193.644 266.161V265.071C193.198 265.022 192.801 264.923 192.454 264.675C192.107 264.477 191.809 264.18 191.611 263.833C191.413 263.437 191.314 262.942 191.314 262.496V262.447H192.702C192.702 262.744 192.752 263.041 192.9 263.338C192.999 263.536 193.198 263.734 193.396 263.833C193.595 263.932 193.842 263.982 194.09 263.982C194.338 263.982 194.537 263.932 194.785 263.833C194.983 263.734 195.132 263.635 195.231 263.437C195.33 263.239 195.38 263.041 195.38 262.843C195.38 262.645 195.33 262.447 195.231 262.298C195.132 262.1 194.983 261.952 194.785 261.853C194.537 261.704 194.289 261.556 194.041 261.457C193.595 261.308 193.148 261.11 192.702 260.862C192.355 260.664 192.107 260.367 191.909 260.07C191.71 259.723 191.661 259.327 191.661 258.931C191.661 258.387 191.859 257.792 192.206 257.396C192.603 257 193.198 256.752 193.793 256.703V255.465H194.685V256.703C195.28 256.752 195.776 257.05 196.173 257.495C196.57 257.99 196.768 258.634 196.718 259.278H196.669H195.33C195.33 258.882 195.231 258.486 195.032 258.139C194.834 257.891 194.537 257.743 194.19 257.743C193.892 257.743 193.595 257.842 193.347 258.04C193.148 258.287 193.049 258.585 193.049 258.882C193 259.278 193.247 259.674 193.595 259.872C193.842 260.021 194.14 260.169 194.388 260.268C194.834 260.417 195.28 260.664 195.727 260.912C196.024 261.11 196.322 261.357 196.52 261.704C196.718 262.051 196.768 262.447 196.768 262.793C196.817 263.388 196.57 263.932 196.173 264.328C195.727 264.725 195.181 264.972 194.537 265.022V266.111L193.644 266.161Z" fill="#00C2FF"/>
<path d="M215.312 378.264H232.617C234.203 378.264 235.492 379.552 235.492 381.136V398.368C235.492 399.952 234.203 401.24 232.617 401.24H215.312C213.725 401.24 212.436 399.952 212.436 398.368V381.136C212.387 379.552 213.676 378.264 215.312 378.264Z" fill="#1C3443"/>
<path d="M215.312 417.877H232.617C234.203 417.877 235.492 419.164 235.492 420.749V438.03C235.492 439.615 234.203 440.902 232.617 440.902H215.312C213.725 440.902 212.436 439.615 212.436 438.03V420.799C212.387 419.164 213.676 417.877 215.312 417.877Z" fill="white" stroke="#D7D7D7" stroke-width="3.09" stroke-linecap="round" stroke-linejoin="round"/>
<path d="M215.312 457.49H232.617C234.203 457.49 235.492 458.777 235.492 460.362V477.643C235.492 479.227 234.203 480.515 232.617 480.515H215.312C213.725 480.515 212.436 479.227 212.436 477.643V460.411C212.387 458.777 213.676 457.49 215.312 457.49Z" fill="white" stroke="#D7D7D7" stroke-width="3.09" stroke-linecap="round" stroke-linejoin="round"/>
<path d="M215.312 497.102H232.617C234.203 497.102 235.492 498.39 235.492 499.974V517.255C235.492 518.84 234.203 520.127 232.617 520.127H215.312C213.725 520.127 212.436 518.84 212.436 517.255V500.024C212.387 498.39 213.676 497.102 215.312 497.102Z" fill="white" stroke="#D7D7D7" stroke-width="3.09" stroke-linecap="round" stroke-linejoin="round"/>
<path d="M217.494 389.158L222.997 394.605L231.625 385.989" stroke="#FFFEFF" stroke-width="4.71" stroke-linecap="round" stroke-linejoin="round"/>
</svg>
