<?xml version="1.0" encoding="UTF-8"?>
<svg width="465px" height="539px" viewBox="0 0 465 539" version="1.1" xmlns="http://www.w3.org/2000/svg" xmlns:xlink="http://www.w3.org/1999/xlink">
    <title>logged-out-hero-crop</title>
    <g id="Page-1" stroke="none" stroke-width="1" fill="none" fill-rule="evenodd">
        <g id="logged-out-hero-crop">
            <path d="M251.57,436.37 C251.57,436.37 260.22,524.81 254.76,538.56 L291.29,538.56 L284.9,396.63 L251.57,436.37 Z" id="Path" fill="#005EFF" fill-rule="nonzero"></path>
            <path d="M323.14,368 C323.14,368 307.8,347.05 277.39,354.35 C232.46,365.15 212.52,310.93 256.68,283.95 C276.61,271.77 262.94,250.72 272.01,229.19 C283.59,201.7 299.12,203.37 309.7,189.52 C318.7,177.75 333.64,174.05 345.75,183.72 C349,186.37 323.14,368 323.14,368 Z" id="Path" fill="#003648" fill-rule="nonzero"></path>
            <path d="M159,498.17 C166.06,502.54 174.28,505.69 182.61,503.51 C189.13,501.81 224.35,467.57 229.49,461.51 C239.77,449.51 271.65,418.38 300.09,390.51 C328.53,362.64 322.39,351.51 315.73,338.01 C309.07,324.51 285.1,342.54 257.73,363.45 C234.82,380.96 187.36,442.18 177.83,453.52" id="Path" fill="#F8B69C" fill-rule="nonzero"></path>
            <path d="M256.7,359.55 C261.143505,354.883965 265.897701,350.524003 270.93,346.5 L270.99,346.45 L271.75,345.86 C272.97,344.913333 274.183333,344.003333 275.39,343.13 C283.63,337.13 293.79,331.03 302.7,329.45 C313.28,327.58 324.89,324.4 324.89,324.4 L322.24,328.16 L315.82,336.16 C326.16,344.52 330.23,362.68 305.99,386.47 C288.52,403.6 252.8,445.22 237.51,458.3 C232.12,456.38 206.67,435.52 201.65,422.3 C201.95,421.95 202.31,421.55 202.65,421.09 C216.17,405.53 229.65,389.92 243.22,374.41 C247.73,369.32 252.1,364.32 256.7,359.55 Z" id="Path" fill="#005EFF" fill-rule="nonzero"></path>
            <path d="M140.05,428.92 L97.57,393.15 C97.57,393.15 100.65,371.48 94.04,358.44 C90.32,352.99 89.43,352.22 87.94,347.61 C86.45,343 85.14,336.75 85.27,334.22 C85.4,331.69 83.27,327.76 80.56,330.35 C77.85,332.94 76.48,339.23 77.68,344.35 C78.88,349.47 81.22,357.05 81.22,357.05 C81.22,357.05 71.93,354.05 65.84,348.66 C59.75,343.27 46.2,327.66 46.2,327.66 C46.2,327.66 40.56,320.51 38.53,321.32 C36.5,322.13 38.53,327.5 41.53,333.27 C44.53,339.04 60.63,375.99 65.84,384.42 C71.05,392.85 151.56,493.25 151.56,493.25 C158.102892,499.964358 166.937537,503.963874 176.3,504.45 C191.98,505.24 193.55,488.07 194.3,473.54 L140.05,428.92 Z" id="Path" fill="#F8B69C" fill-rule="nonzero"></path>
            <circle id="Oval" fill="#8550FB" fill-rule="nonzero" cx="119.63" cy="316.26" r="74.81"></circle>
            <path d="M51.84,338.77 C52.52,335.17 53.97,330.02 55.03,326.45" id="Path" fill="#DAE8FF" fill-rule="nonzero"></path>
            <path d="M49.44,331.5 C50.08,329.05 50.56,327.34 50.56,327.34 C50.56,327.34 51.84,324.34 53.45,324.42 C55.06,324.5 55.45,326.04 55.07,331.61 C54.69,337.18 54.27,347.72 54.27,347.72 C57.4409009,351.158365 60.13198,355.009972 62.27,359.17 L60.87,374.9 L47.73,354.83 C46.6551824,352.142173 46.1906675,349.249202 46.37,346.36 C46.37,345.69 46.51,344.86 46.66,343.92" id="Path" fill="#F8B69C" fill-rule="nonzero"></path>
            <path d="M60.26,373 L55.73,359.72 C55.73,359.72 54.06,355.84 55.64,352.72 C57.22,349.6 65.64,337.02 65.64,337.02 C65.64,337.02 67.64,333.81 69.27,335.02 C70.9,336.23 68.92,341.95 67.81,344.43 C66.7,346.91 62.23,354.62 62.23,354.62 C63.5602681,356.381071 64.4391835,358.441029 64.79,360.62 L63.43,377.8 L60.26,373 Z" id="Path" fill="#F8B69C" fill-rule="nonzero"></path>
            <path d="M62,377.22 L61.77,364.47 C61.8031852,362.770495 62.5249753,361.157295 63.77,360 L73.32,351.36 C73.32,351.36 74.69,349.64 75.59,350.58 C76.49,351.52 76.52,352.64 74.1,356.3 C72.8698655,358.232061 71.4853437,360.061369 69.96,361.77 C70.3098019,363.938361 70.46043,366.134184 70.41,368.33 C70.41,368.33 80.94,371.78 85.53,382.33 C90.12,392.88 82.74,407.06 82.74,407.06 C82.74,407.06 64,385.8 62,377.22 Z" id="Path" fill="#F8B69C" fill-rule="nonzero"></path>
            <path d="M316.73,331.61 C316.73,331.61 330.38,303.86 321.41,294.9 C313.02,286.52 284.41,279.45 289.88,260.15 C297.31,233.81 318.63,189.65 318.63,189.65 C321.05,183.97 325.16,181.24 342.98,189.99 C355.19,195.99 369.61,205.17 380.19,212.17 C392.68,220.42 392.19,223.6 389.91,231.52 C385.3,247.64 387.2,255.08 380.16,275.87 C377.09,284.87 373.67,291.94 370.1,297.04 C370.88,313.9 371.86,335.69 371.86,335.69 L379.26,354.33 C379.26,354.33 348.68,463.9 306.47,459 C264.26,454.1 296.31,376.54 296.31,376.54 L316.73,331.61 Z" id="Path" fill="#F8B69C" fill-rule="nonzero"></path>
            <path d="M295.86,361.6 C311.68,340.93 323.86,313.21 322.17,311.6 L369.38,314.74 C369.38,314.74 370.61,327.69 377.17,330.16 C383.73,332.63 433.92,345.83 437.58,367.59 C451.21,448.5 433.1,535.59 432.34,538.2 C432.02,539.33 277.59,538.66 277.59,538.66 C288.73,489.79 269.22,440.14 286.14,380.73 C288.153384,373.800884 291.450566,367.311677 295.86,361.6 L295.86,361.6 Z" id="Path" fill="#4C90FF" fill-rule="nonzero"></path>
            <path d="M378.29,332.59 C367.29,346.08 355.77,359.24 343.63,371.7 C339.08,376.36 337.48,378.49 335.7,385 C333.92,391.51 332.45,397.91 331.18,404.45 C328.72711,417.198524 327.213044,430.109861 326.65,443.08 C326.33,450.64 326.33,458.2 326.33,465.76 C326.33,477.76 326.15,488.89 327.6,500.76 C329.126667,513.346667 330.26,525.973333 331,538.64 L430.06,538.64 L427.32,354.2 L378.29,332.59 Z" id="Path" fill="#005EFF" fill-rule="nonzero"></path>
            <path d="M416.82,472.43 L430.12,538.2 L463.39,538.2 C463.39,538.2 460.19,466.04 454.71,450.52 L416.37,474.25" id="Path" fill="#F8B69C" fill-rule="nonzero"></path>
            <path d="M464.3,538.16 C436.45,538.62 445.13,538.16 416.37,538.62 C415.93,537.17 399.5,451.45 397.37,406.82 C394.37,344.71 440.7,342.93 448.3,374.82 C458.76,418.63 461.87,503 464.3,538.16 Z" id="Path" fill="#005EFF" fill-rule="nonzero"></path>
            <path d="M367.94,276 C367.94,276 362.68,307 344.68,313.56 C323.48,321.25 328.81,343.56 344.33,356.56 C395.59,399.63 450.85,358.78 425.19,331.09 C409.95,314.64 428.29,300.16 425.7,282.29 C422.88,262.84 407.16,268.17 410.04,244.44 C412.52,224.03 394.65,207.12 378.24,195.75 C353.5,178.62 336.52,172.82 320,183.41 C285.09,205.81 366.86,254.77 366.86,254.77 C366.86,254.77 379.09,252.66 381,263 C382.91,273.34 367.94,276 367.94,276 Z" id="Path" fill="#003648" fill-rule="nonzero"></path>
            <path d="M307.76,215.59 C304.217513,215.270064 300.690177,216.346565 297.93,218.59 C294.268851,221.487779 291.713149,225.554311 290.69,230.11 C289.01,237.05 290.82,243.84 294.85,247.86 C294.68,248.34 294.5,248.86 294.34,249.3 C289.66,245 287.48,237.47 289.34,229.78 C290.434351,224.914496 293.171182,220.574412 297.09,217.49 C300.248051,214.946167 304.309031,213.804468 308.33,214.33 L307.76,215.64 L307.76,215.59 Z" id="Path" fill="#FFFFFF" fill-rule="nonzero"></path>
            <path d="M319.26,222.79 C321.334864,227.326693 321.79022,232.437971 320.55,237.27 C318.18,247.1 310.06,253.72 301.96,252.79 C301.421845,252.726698 300.88767,252.633218 300.36,252.51 C298.115786,251.950038 296.05099,250.828165 294.36,249.25 C294.52,248.77 294.7,248.25 294.87,247.81 C296.465123,249.445635 298.48364,250.605504 300.7,251.16 C308.57,253.04 316.87,246.67 319.22,236.94 C320.388597,232.419604 319.964839,227.634668 318.02,223.39 C316.397039,219.658953 313.154402,216.876917 309.22,215.84 C308.745841,215.725952 308.264853,215.642447 307.78,215.59 L308.35,214.28 C308.75,214.34 309.15,214.4 309.55,214.49 C313.884535,215.62829 317.461014,218.685424 319.26,222.79 Z" id="Path" fill="#003648" fill-rule="nonzero"></path>
            <path d="M331.62,262.91 C323.01,260.84 318.06,250.62 320.62,240.14 C321.724765,235.273562 324.463497,230.932529 328.38,227.84 C331.819632,224.933339 336.438761,223.840294 340.816296,224.897145 C345.193831,225.953996 348.805441,229.034155 350.54,233.19 C352.622188,237.724462 353.081202,242.837168 351.84,247.67 C349.47,257.51 341.35,264.13 333.24,263.2 C332.695027,263.133537 332.154186,263.03672 331.62,262.91 L331.62,262.91 Z M329.19,228.91 C325.525128,231.806196 322.965777,235.872915 321.94,240.43 L321.94,240.43 C319.59,250.16 324.08,259.62 331.94,261.52 C339.8,263.42 348.11,257.04 350.46,247.31 C351.62357,242.785862 351.199997,237.999486 349.26,233.75 C347.633374,230.023689 344.391638,227.246111 340.46,226.21 C339.978144,226.109877 339.490541,226.039742 339,226 C335.463873,225.682175 331.94353,226.758733 329.19,229 L329.19,228.91 Z" id="Shape" fill="#003648" fill-rule="nonzero"></path>
            <rect id="Rectangle" fill="#003648" fill-rule="nonzero" transform="translate(358.849512, 251.984659) rotate(-77.880000) translate(-358.849512, -251.984659) " x="358.164512" y="243.454659" width="1.37" height="17.06"></rect>
            <circle id="Oval" fill="#00C2A4" fill-rule="nonzero" cx="86.05" cy="137.52" r="85.56"></circle>
            <circle id="Oval" fill="#FF5F65" fill-rule="nonzero" cx="249.46" cy="74.59" r="73.7"></circle>
            <path d="M123.72,321.49 C123.72,321.49 128.24,317.69 128.9,316.12 L137,324.24 L131.42,330 L123.72,321.49 Z" id="Path" fill="#0D3546" fill-rule="nonzero"></path>
            <path d="M107.28,268.589996 C94.2918074,268.589996 82.5827041,276.414433 77.6132727,288.414346 C72.6438413,300.414258 75.3928699,314.226126 84.5783392,323.408735 C93.7638084,332.591343 107.576532,335.33607 119.574896,330.362901 C131.57326,325.389732 139.394045,313.678192 139.390004,300.69 C139.390004,292.174818 136.006673,284.008541 129.984592,277.988336 C123.962512,271.968131 115.795182,268.587347 107.28,268.589996 L107.28,268.589996 Z M107.28,317.97 C97.7365195,317.97 90,310.23348 90,300.69 C90,291.14652 97.7365195,283.41 107.28,283.41 C116.82348,283.41 124.560052,291.14652 124.560052,300.69 C124.567966,305.278137 122.750916,309.681083 119.509424,312.928203 C116.267932,316.175323 111.868144,318 107.28,318 L107.28,317.97 Z" id="Shape" fill="#0D3546" fill-rule="nonzero"></path>
            <path d="M120.94,323.76 C120.94,323.76 125.56,319.86 126.22,318.29 L134.46,326.29 L128.64,332.29 L120.94,323.76 Z" id="Path" fill="#FFFFFF" fill-rule="nonzero"></path>
            <path d="M151.15,361.37 C150.774224,361.367833 150.414629,361.216803 150.15,360.95 L131.15,342 C128.747439,339.582001 128.747439,335.677999 131.15,333.26 L139.9,324.52 C141.057274,323.361584 142.62756,322.710697 144.265,322.710697 C145.90244,322.710697 147.472726,323.361584 148.63,324.52 L167.63,343.52 C167.898754,343.783325 168.050204,344.143744 168.050204,344.52 C168.050204,344.896256 167.898754,345.256675 167.63,345.52 L152.15,361 C151.877947,361.249472 151.518914,361.382315 151.15,361.37 Z" id="Path" fill="#0D3546" fill-rule="nonzero"></path>
            <path d="M100.91,266.82 C83.1264311,266.82 68.71,281.236431 68.71,299.02 C68.71,316.803569 83.1264311,331.22 100.91,331.22 C118.693569,331.22 133.11,316.803569 133.11,299.02 C133.11,281.236431 118.693569,266.82 100.91,266.82 Z M101.29,316.91009 C94.1071773,316.926187 87.622617,312.611816 84.8626466,305.980393 C82.1026761,299.34897 83.6114015,291.707827 88.6847045,286.623066 C93.7580076,281.538304 101.395727,280.012344 108.03336,282.757346 C114.670992,285.502349 119,291.977159 119,299.16 C119,308.947455 111.07743,316.887944 101.29,316.91009 L101.29,316.91009 Z" id="Shape" fill="#FFFFFF" fill-rule="nonzero"></path>
            <path d="M126.37,334.41 C129.45,332.01 137.17,321.85 139.87,323.41 C142.57,324.97 161,343.54 161,343.54 L146.25,359.22 L126.37,339 C126.37,339 122.2,337.66 126.37,334.41 Z" id="Path" fill="#FFFFFF" fill-rule="nonzero"></path>
            <path d="M133.79,327.81 C133.416077,327.808353 133.057458,327.661319 132.79,327.4 L125.18,319.79 C124.709509,319.225815 124.747007,318.395917 125.266462,317.876462 C125.785917,317.357007 126.615815,317.319509 127.18,317.79 L134.79,325.39 C135.333729,325.945801 135.333729,326.834199 134.79,327.39 C134.52355,327.654092 134.165115,327.804635 133.79,327.81 L133.79,327.81 Z" id="Path" fill="#0D3546" fill-rule="nonzero"></path>
            <path d="M128.63,333 C128.254,332.998934 127.894,332.847734 127.63,332.58 L120,325 C119.456271,324.444199 119.456271,323.555801 120,323 C120.264665,322.733746 120.624582,322.584032 121,322.584032 C121.375418,322.584032 121.735335,322.733746 122,323 L129.61,330.61 C130.012693,331.015962 130.1326,331.623856 129.914225,332.152324 C129.695849,332.680793 129.181801,333.026721 128.61,333.03 L128.63,333 Z" id="Path" fill="#0D3546" fill-rule="nonzero"></path>
            <path d="M146,360.730025 C145.625441,360.731582 145.265644,360.584065 145,360.32 L126,341.32 C124.841584,340.162726 124.190697,338.59244 124.190697,336.955 C124.190697,335.31756 124.841584,333.747274 126,332.59 L134.74,323.84 C135.897274,322.681584 137.46756,322.030697 139.105,322.030697 C140.74244,322.030697 142.312726,322.681584 143.47,323.84 L162.47,342.84 C162.738754,343.103325 162.890204,343.463744 162.890204,343.84 C162.890204,344.216256 162.738754,344.576675 162.47,344.84 L147,360.32 C146.732542,360.581319 146.373923,360.728353 146,360.730025 L146,360.730025 Z M139.15,324.91 C138.26096,324.912866 137.410447,325.273253 136.79,325.91 L128,334.63 C126.697963,335.933953 126.697963,338.046047 128,339.35 L146,357.35 L159.47,343.88 L141.47,325.88 C140.851921,325.261635 140.014293,324.912923 139.14,324.91 L139.15,324.91 Z" id="Shape" fill="#0D3546" fill-rule="nonzero"></path>
            <path d="M140.79,355.140014 C140.218199,355.136721 139.704151,354.790793 139.485775,354.262324 C139.2674,353.733856 139.387307,353.125962 139.79,352.72 L148.55,343.96 C149.102285,343.407715 149.997715,343.407715 150.55,343.96 C151.102285,344.512285 151.102285,345.407715 150.55,345.96 L141.79,354.72 C141.527295,354.98964 141.166455,355.141192 140.79,355.140014 Z" id="Path" fill="#0D3546" fill-rule="nonzero"></path>
            <circle id="Oval" fill="#0D3546" fill-rule="nonzero" cx="152.64" cy="341.63" r="1.43"></circle>
            <path d="M101.22,332.250004 C87.7707211,332.254045 75.6434958,324.155508 70.4938766,311.731155 C65.3442574,299.306802 68.1865174,285.003744 77.6951637,275.492237 C87.2038101,265.98073 101.506012,263.134168 113.931913,268.28005 C126.357815,273.425932 134.46,285.55072 134.46,299 C134.443469,317.352713 119.572707,332.227949 101.22,332.250004 L101.22,332.250004 Z M101.22,268.6 C88.9193933,268.6 77.8301716,276.010242 73.123868,287.374908 C68.4175643,298.739574 71.0211482,311.820241 79.7204208,320.516653 C88.4196935,329.213065 101.501216,331.812347 112.864334,327.102305 C124.227451,322.392264 131.634045,311.300606 131.630004,299 C131.607953,282.215781 118.004225,268.616527 101.22,268.6 Z" id="Shape" fill="#0D3546" fill-rule="nonzero"></path>
            <path d="M101.29,318.490004 C92.6369783,318.48131 85.0473252,312.714446 82.7203485,304.380177 C80.3933718,296.045908 83.8978843,287.181487 91.2948613,282.691544 C98.6918383,278.2016 108.173141,279.183669 114.492824,285.094377 C120.812507,291.005085 122.425768,300.399602 118.44,308.08 C118.076593,308.771131 117.223344,309.039167 116.53,308.68 C116.194058,308.509444 115.941038,308.210684 115.828124,307.851244 C115.715211,307.491803 115.751936,307.102024 115.93,306.77 C119.772597,299.416058 117.57192,290.353172 110.784679,285.580399 C103.997437,280.807626 94.7243738,281.802204 89.1036706,287.905785 C83.4829675,294.009367 83.2543081,303.332811 88.5690505,309.704586 C93.883793,316.076362 103.096953,317.524318 110.11,313.09 C110.772742,312.670264 111.650264,312.867258 112.07,313.53 C112.489736,314.192742 112.292742,315.070264 111.63,315.49 C108.537909,317.451078 104.951537,318.491612 101.29,318.490004 Z" id="Path" fill="#0D3546" fill-rule="nonzero"></path>
            <circle id="Oval" fill="#0D3546" fill-rule="nonzero" cx="114.29" cy="311.24" r="1.43"></circle>
            <rect id="Rectangle" fill="#0D3546" fill-rule="nonzero" x="248.23" y="59.74" width="9.65" height="23.52"></rect>
            <path d="M241,35.32 C237.330233,35.32 234.240843,38.065612 233.81,41.71 L233.81,41.71 C228.553861,41.9175015 223.865894,45.0763625 221.7,49.87 L221.1,51.46 L207.86,90.46 L207.86,90.46 C204.5618,98.308665 206.328599,107.372016 212.333296,113.407186 C218.337994,119.442355 227.392286,121.255009 235.257545,117.99658 C243.122805,114.738151 248.24253,107.053469 248.220148,98.54 L248.220148,42.54 C248.209013,38.5570641 244.982936,35.3309875 241,35.32 Z" id="Path" fill="#0D3546" fill-rule="nonzero"></path>
            <path d="M301.58,90.59 L301.58,90.59 L288.3,51.48 L287.7,49.89 C285.541292,45.0947814 280.854752,41.9342719 275.6,41.73 L275.6,41.73 C275.150257,37.9230652 271.811041,35.126523 267.984265,35.3519395 C264.15749,35.5773559 261.169806,38.7465914 261.169806,42.58 L261.169806,98.18 L261.169806,98.18 C261.169806,98.32 261.169806,98.45 261.169806,98.59 C261.144179,107.095005 266.250858,114.775783 274.10343,118.042721 C281.956002,121.30966 291.003709,119.517591 297.018105,113.504038 C303.032501,107.490486 304.825838,98.44303 301.56,90.59 L301.58,90.59 Z" id="Path" fill="#0D3546" fill-rule="nonzero"></path>
            <rect id="Rectangle" fill="#FFFFFF" fill-rule="nonzero" x="244.26" y="53.92" width="9.65" height="23.52"></rect>
            <path d="M237,29.51 C233.330233,29.51 230.240843,32.255612 229.81,35.9 L229.81,35.9 C224.554488,36.1019478 219.866838,39.2632059 217.71,44.06 L217.11,45.64 L203.87,84.64 L203.87,84.64 C200.559924,92.49014 202.320627,101.562213 208.326888,107.604243 C214.33315,113.646273 223.394609,115.460811 231.264264,112.197403 C239.133919,108.933995 244.25211,101.239406 244.220299,92.72 L244.220299,36.72 C244.203527,32.7409699 240.979049,29.5209578 237,29.51 Z" id="Path" fill="#FFFFFF" fill-rule="nonzero"></path>
            <path d="M294.36,84.78 L294.36,84.78 L281.08,45.67 L280.48,44.09 C278.321292,39.2947814 273.634752,36.1342719 268.38,35.93 L268.38,35.93 C267.930257,32.1230652 264.591041,29.326523 260.764265,29.5519395 C256.93749,29.7773559 253.95,32.9465914 253.95,36.78 L253.95,92.38 L253.95,92.38 C253.95,92.52 253.95,92.65 253.95,92.79 C253.95,104.38798 263.35202,113.79 274.95,113.79 C286.54798,113.79 295.950076,104.38798 295.950076,92.79 C295.955285,90.041089 295.414841,87.318474 294.36,84.78 Z" id="Path" fill="#FFFFFF" fill-rule="nonzero"></path>
            <path d="M223.28,115.38 C214.203367,115.38 206.021429,109.909658 202.552642,101.522001 C199.083854,93.134344 201.012051,83.482891 207.437358,77.071907 C213.862664,70.6609239 223.518397,68.7542697 231.898291,72.241767 C240.278186,75.729264 245.730233,83.923389 245.710112,93 C245.671454,105.363646 235.643701,115.369046 223.28,115.38 L223.28,115.38 Z M223.28,73.3799945 C212.490661,73.37455 203.736659,82.110752 203.720102,92.90008 C203.703637,103.689408 212.43086,112.452362 223.220165,112.480064 C234.009471,112.507506 242.781367,103.789271 242.820046,93 C242.827962,87.810633 240.773443,82.830792 237.108694,79.156666 C233.443944,75.482539 228.46937,73.4153 223.28,73.41 L223.28,73.3799945 Z" id="Shape" fill="#0D3546" fill-rule="nonzero"></path>
            <path d="M275,115.380112 C265.918844,115.400221 257.721562,109.942752 254.237007,101.556711 C250.752452,93.17067 252.668287,83.511014 259.089651,77.089651 C265.511014,70.6682873 275.17067,68.7524516 283.556711,72.237007 C291.942752,75.721562 297.400221,83.918844 297.380112,93 C297.34157,105.344179 287.344179,115.34157 275,115.380112 L275,115.380112 Z M275,73.3798703 C264.205496,73.352462 255.431462,82.078839 255.400041,92.873332 C255.368953,103.667826 264.092309,112.444864 274.886792,112.480043 C285.681274,112.514804 294.461314,103.794469 294.500022,93 C294.511095,82.211261 285.788675,73.448585 275,73.41 L275,73.3798703 Z" id="Shape" fill="#0D3546" fill-rule="nonzero"></path>
            <path d="M254,94.0000694 C253.617271,94.002686 253.249439,93.851835 252.978802,93.581198 C252.708165,93.310561 252.557314,92.942729 252.559931,92.56 L252.559931,50 C252.562853,42.7845005 257.603322,36.5503899 264.658267,35.0367221 C271.713212,33.5230544 278.867425,37.1407453 281.83,43.72 C281.835388,43.7463945 281.835388,43.7736055 281.83,43.8 L282.43,45.38 L282.43,45.38 L295.71,84.49 C295.836709,84.851907 295.812765,85.24954 295.643542,85.593627 C295.474319,85.937714 295.173996,86.199423 294.81,86.32 C294.056441,86.572105 293.240351,86.17075 292.98,85.42 L279.71,46.33 L279.13,44.81 C276.687961,39.5080245 270.885565,36.619627 265.183133,37.8673345 C259.480701,39.1150419 255.414728,44.1626652 255.41,50 L255.41,92.58 C255.404634,93.358125 254.778068,93.989135 254,94.0000694 L254,94.0000694 Z" id="Path" fill="#0D3546" fill-rule="nonzero"></path>
            <path d="M253.92,78.88 L244.26,78.88 C243.46471,78.88 242.82,78.23529 242.82,77.44 L242.82,53.92 C242.825451,53.1269786 243.466979,52.4854505 244.26,52.48 L253.92,52.48 C254.713021,52.4854505 255.354549,53.1269786 255.36,53.92 L255.36,77.44 C255.36,78.23529 254.71529,78.88 253.92,78.88 L253.92,78.88 Z M245.71,76 L252.47,76 L252.47,55.37 L245.71,55.37 L245.71,76 Z" id="Shape" fill="#0D3546" fill-rule="nonzero"></path>
            <path d="M254,73.07 L244.29,73.07 C243.49471,73.07 242.85,72.42529 242.85,71.63 C242.85,70.83471 243.49471,70.19 244.29,70.19 L254,70.19 C254.79529,70.19 255.44,70.83471 255.44,71.63 C255.44,72.42529 254.79529,73.07 254,73.07 L254,73.07 Z" id="Path" fill="#0D3546" fill-rule="nonzero"></path>
            <path d="M244.26,51.41 C243.463095,51.404504 242.819981,50.7569238 242.82,49.96 L242.82,36.96 C242.780071,33.9187588 240.397627,31.4249259 237.361381,31.2461686 C234.325136,31.0674113 231.666519,33.2644545 231.27,36.28 C231.119622,37.0191878 230.427612,37.5196102 229.678521,37.4308677 C228.92943,37.3421252 228.373501,36.6938634 228.4,35.94 C228.97635,31.4090705 232.961886,28.0976055 237.521723,28.3610276 C242.081559,28.6244497 245.659247,32.3728427 245.710269,36.94 L245.710269,49.94 C245.715352,50.3280174 245.564951,50.7019895 245.292441,50.9782583 C245.019931,51.2545271 244.648054,51.41 244.26,51.41 L244.26,51.41 Z" id="Path" fill="#0D3546" fill-rule="nonzero"></path>
            <path d="M254,51.41 C253.616349,51.41 253.248556,51.2569235 252.978214,50.9847044 C252.707873,50.7124853 252.557336,50.3436414 252.559931,49.96 L252.559931,36.96 C252.569868,32.3679489 256.154673,28.5781128 260.739082,28.313118 C265.323491,28.0481232 269.321092,31.39967 269.86,35.96 C269.953888,36.7497672 269.389767,37.4661116 268.6,37.56 C267.810233,37.6538884 267.093888,37.0897672 267,36.3 C266.639956,33.2502165 263.965076,31.0096755 260.899412,31.1900086 C257.833749,31.3703418 255.44,33.9090374 255.44,36.98 L255.44,49.98 C255.434504,50.771382 254.791401,51.41 254,51.41 L254,51.41 Z" id="Path" fill="#0D3546" fill-rule="nonzero"></path>
            <circle id="Oval" fill="#156AFD" fill-rule="nonzero" cx="223.28" cy="92.95" r="13.63"></circle>
            <circle id="Oval" fill="#156AFD" fill-rule="nonzero" cx="274.96" cy="92.95" r="13.63"></circle>
            <path d="M244.26,94.4 C243.463095,94.394504 242.819981,93.746924 242.82,92.95 L242.82,50 C242.812284,44.1548581 238.733093,39.104781 233.020313,37.8678943 C227.307533,36.6310077 221.504776,39.5415225 219.08,44.86 L218.5,46.38 L211,68.43 C210.743188,69.1838686 209.923869,69.5868123 209.17,69.3299999 C208.416131,69.0731875 208.013188,68.2538687 208.27,67.5 L215.77,45.39 L215.77,45.39 L216.37,43.81 L216.37,43.73 C219.281778,37.06177 226.484616,33.3641393 233.600197,34.8847491 C240.715778,36.405359 245.778108,42.7240735 245.71,50 L245.71,93 C245.683045,93.781221 245.041686,94.4 244.26,94.4 Z" id="Path" fill="#0D3546" fill-rule="nonzero"></path>
            <circle id="Oval" fill="#0D3546" fill-rule="nonzero" cx="207.86" cy="72.46" r="1.45"></circle>
            <circle id="Oval" fill="#0D3546" fill-rule="nonzero" cx="223.28" cy="92.95" r="13.16"></circle>
            <path d="M223.32,91.85 C222.96116,91.915972 222.597608,91.761241 222.396378,91.456898 C222.195148,91.152555 222.195148,90.757445 222.396378,90.453102 C222.597608,90.148759 222.96116,89.994028 223.32,90.06 C223.768007,90.086193 224.194186,90.2623 224.53,90.56 C225.063729,90.980707 225.816271,90.980707 226.35,90.56 C226.590543,90.365002 226.72718,90.06957 226.72,89.76 C226.713798,89.4523 226.566257,89.164595 226.32,88.98 C225.818157,88.560737 225.236402,88.247746 224.61,88.06 L224.61,87 C224.512346,86.360249 223.962161,85.887674 223.315,85.887674 C222.667839,85.887674 222.117654,86.360249 222.02,87 L222.02,88.09 C220.676859,88.437036 219.713677,89.614708 219.64,91 C219.814595,92.864731 221.452709,94.244664 223.32,94.1 C223.682931,94.022628 224.056488,94.17338 224.264058,94.480983 C224.471629,94.788586 224.471629,95.191414 224.264058,95.499017 C224.056488,95.80662 223.682931,95.957372 223.32,95.88 C222.754517,95.842146 222.226567,95.583558 221.85,95.16 C221.352837,94.667017 220.574421,94.599694 220,95 C219.738676,95.163819 219.567566,95.439059 219.536296,95.745896 C219.505026,96.052734 219.617094,96.356833 219.84,96.57 C220.434222,97.174432 221.169721,97.621231 221.98,97.87 L221.98,99 C222.077654,99.639751 222.627839,100.112326 223.275,100.112326 C223.922161,100.112326 224.472346,99.639751 224.57,99 L224.57,97.91 C225.931064,97.578743 226.916777,96.39832 227,95 C226.851129,93.115227 225.205176,91.706328 223.32,91.85 L223.32,91.85 Z" id="Path" fill="#FFFFFF" fill-rule="nonzero"></path>
            <circle id="Oval" fill="#0D3546" fill-rule="nonzero" cx="274.92" cy="92.95" r="13.16"></circle>
            <path d="M275,91.85 C274.64116,91.915972 274.277608,91.761241 274.076378,91.456898 C273.875148,91.152555 273.875148,90.757445 274.076378,90.453102 C274.277608,90.148759 274.64116,89.994028 275,90.06 C275.448007,90.086193 275.874186,90.2623 276.21,90.56 C276.743729,90.980707 277.496271,90.980707 278.03,90.56 C278.270543,90.365002 278.40718,90.06957 278.4,89.76 C278.393798,89.4523 278.246257,89.164595 278,88.98 C277.498157,88.560737 276.916402,88.247746 276.29,88.06 L276.29,87 C276.192346,86.360249 275.642161,85.887674 274.995,85.887674 C274.347839,85.887674 273.797654,86.360249 273.7,87 L273.7,88.09 C272.356859,88.437036 271.393677,89.614708 271.32,91 C271.494595,92.864731 273.132709,94.244664 275,94.1 C275.362931,94.022628 275.736488,94.17338 275.944058,94.480983 C276.151629,94.788586 276.151629,95.191414 275.944058,95.499017 C275.736488,95.80662 275.362931,95.957372 275,95.88 C274.434517,95.842146 273.906567,95.583558 273.53,95.16 C273.031692,94.697834 272.279241,94.64379 271.72,95.03 C271.458676,95.193819 271.287566,95.469059 271.256296,95.775896 C271.225026,96.082734 271.337094,96.386833 271.56,96.6 C272.154222,97.204432 272.889721,97.651231 273.7,97.9 L273.7,99 C273.797654,99.639751 274.347839,100.112326 274.995,100.112326 C275.642161,100.112326 276.192346,99.639751 276.29,99 L276.29,97.91 C277.631335,97.560145 278.593201,96.384081 278.67,95 C278.521049,93.119427 276.881417,91.712113 275,91.85 L275,91.85 Z" id="Path" fill="#FFFFFF" fill-rule="nonzero"></path>
            <path d="M223.28,108 C217.173448,108 211.669739,104.317074 209.340407,98.672236 C207.011074,93.027399 208.315986,86.534993 212.645439,82.228508 C216.974892,77.922023 223.474147,76.651664 229.106515,79.010988 C234.738882,81.370313 238.392396,86.893534 238.360425,93 C238.310528,101.294909 231.575055,107.99465 223.28,108 Z M223.28,80.729992 C216.549964,80.724594 211.086714,86.170111 211.070163,92.900129 C211.053761,99.630146 216.490283,105.102347 223.220265,105.130102 C229.950247,105.157441 235.431383,99.729927 235.470074,93 C235.477965,89.759975 234.19782,86.649633 231.911463,84.353898 C229.625106,82.058163 226.520031,80.765297 223.28,80.76 L223.28,80.729992 Z" id="Shape" fill="#0D3546" fill-rule="nonzero"></path>
            <path d="M275,108.000423 C268.88627,108.032348 263.358014,104.370134 261.003423,98.727915 C258.648833,93.085695 259.93392,86.580161 264.257041,82.257041 C268.580161,77.93392 275.085695,76.648833 280.727915,79.003423 C286.370134,81.358014 290.032348,86.88627 290.000423,93 C289.950858,101.26383 283.26383,107.950858 275,108.000423 Z M275,80.729793 C268.264825,80.702508 262.781561,86.138173 262.750066,92.873332 C262.719104,99.608491 268.151727,105.094769 274.886867,105.130068 C281.622008,105.164699 287.111299,99.73512 287.150076,93 C287.166621,86.268265 281.731675,80.793059 275,80.76 L275,80.729793 Z" id="Shape" fill="#0D3546" fill-rule="nonzero"></path>
            <path d="M78.74,92.6 C104.022458,89.080803 127.372521,106.718697 130.9,132" id="Path" stroke="#0D3546" stroke-width="3.23" stroke-linecap="round" stroke-linejoin="round"></path>
            <path d="M91.51,184.16 C79.3667088,185.855618 67.0472744,182.656758 57.2629777,175.267429 C47.478681,167.8781 41.0313775,156.903883 39.34,144.76" id="Path" stroke="#0D3546" stroke-width="3.23" stroke-linecap="round" stroke-linejoin="round"></path>
            <path d="M47.42,130.13 C43.93,130.13 40.42,130.13 36.97,130.13 C31.44,130.13 27.97,126.63 27.97,121.13 C27.97,117.73 27.97,114.34 27.97,110.94 C27.914785,108.987928 28.5053225,107.072197 29.65,105.49 C34.09,99.363333 38.5466667,93.236667 43.02,87.11 C44.14,85.57 45.94,85.7 46.64,87.47 C46.9775787,88.44151 46.9775787,89.49849 46.64,90.47 C45.2,94.16 43.57,97.77 41.99,101.39 C41.19,103.24 41.52,103.79 43.52,103.81 C48.81,103.87 54.1,103.81 59.39,104 C62.32,104.13 64.16,105 64.23,106.93 C64.4048798,108.497991 63.4386558,109.968332 61.93,110.43 C62.1241193,110.499841 62.3143879,110.579954 62.5,110.67 C63.8358801,111.197974 64.7135417,112.48857 64.7135417,113.925 C64.7135417,115.36143 63.8358801,116.652026 62.5,117.18 C60.8,117.77 61.19,117.07 62.75,117.99 C63.6774059,118.496829 64.3163893,119.406104 64.4790065,120.45038 C64.6416236,121.494656 64.3093806,122.555172 63.58,123.32 C63.0605228,123.908075 62.3040363,124.231234 61.52,124.2 L61.87,124.58 C64.31,127.53 61.05,130.21 58.39,130.14 C54.74,130.07 51.08,130.13 47.42,130.13 Z" id="Path" stroke="#0D3546" stroke-width="2.15" fill="#0D3546" fill-rule="nonzero" stroke-linecap="round" stroke-linejoin="round"></path>
            <path d="M25.27,110.44 C25.27,112.04 25.27,116.78 25.27,118.37 C25.27,123.9 28.71,127.37 34.27,127.37 L44.68,127.37 C48.34,127.37 52,127.3 55.68,127.37 C58.34,127.44 61.61,124.76 59.17,121.81 L58.81,121.42 C59.5961135,121.458251 60.3572434,121.138356 60.88,120.55 C61.608639,119.781944 61.9392119,118.719023 61.7746993,117.673193 C61.6101867,116.627363 60.9692512,115.717264 60.04,115.21 C58.49,114.3 58.1,115 59.79,114.41 C61.1239847,113.87765 61.9990388,112.586284 61.9990388,111.15 C61.9990388,109.713716 61.1239847,108.42235 59.79,107.89 C59.64,107.81 59.23,107.66 59.23,107.66 C60.7386558,107.198332 61.7048798,105.727991 61.53,104.16 C61.45,102.22 59.62,101.36 56.69,101.23 C51.4,101 46.11,101.09 40.82,101.04 C38.82,101.04 38.48,100.47 39.29,98.62 C40.87,94.99 42.5,91.38 43.94,87.7 C44.2582202,86.721749 44.2370802,85.664745 43.88,84.7 C43.18,82.93 41.39,82.8 40.26,84.34 C35.7933333,90.446667 31.34,96.573333 26.9,102.72 C25.7456702,104.297366 25.1540882,106.216486 25.22,108.17 L25.22,110.42" id="Path" stroke="#0D3546" stroke-width="3.23" fill="#FFFFFF" fill-rule="nonzero" stroke-linecap="round" stroke-linejoin="round"></path>
            <line x1="51.27" y1="107.71" x2="59.34" y2="107.71" id="Path" stroke="#0D3546" stroke-width="3.23" fill="#FFFFFF" fill-rule="nonzero" stroke-linecap="round" stroke-linejoin="round"></line>
            <line x1="51.27" y1="114.73" x2="59.34" y2="114.73" id="Path" stroke="#0D3546" stroke-width="3.23" fill="#FFFFFF" fill-rule="nonzero" stroke-linecap="round" stroke-linejoin="round"></line>
            <line x1="51.27" y1="121.47" x2="58.62" y2="121.47" id="Path" stroke="#0D3546" stroke-width="3.23" fill="#FFFFFF" fill-rule="nonzero" stroke-linecap="round" stroke-linejoin="round"></line>
            <path d="M123.38,152.15 C126.86,152.15 130.38,152.15 133.83,152.15 C139.36,152.15 142.83,155.65 142.83,161.15 C142.83,164.55 142.83,167.94 142.83,171.34 C142.886098,173.293739 142.291642,175.210771 141.14,176.79 C136.7,182.916667 132.246667,189.043333 127.78,195.17 C126.66,196.71 124.86,196.58 124.16,194.81 C123.817661,193.839299 123.817661,192.780701 124.16,191.81 C125.6,188.12 127.22,184.51 128.8,180.89 C129.61,179.04 129.28,178.49 127.28,178.47 C121.99,178.41 116.69,178.47 111.41,178.28 C108.48,178.15 106.64,177.28 106.57,175.35 C106.389859,173.783854 107.352785,172.312134 108.86,171.85 C108.668628,171.781458 108.481614,171.701309 108.3,171.61 C106.96412,171.082026 106.086458,169.79143 106.086458,168.355 C106.086458,166.91857 106.96412,165.627974 108.3,165.1 C110,164.51 109.61,165.21 108.05,164.29 C107.121086,163.785004 106.479973,162.876601 106.315374,161.832183 C106.150775,160.787765 106.481427,159.726213 107.21,158.96 C107.733431,158.371521 108.493043,158.048594 109.28,158.08 L108.92,157.7 C106.49,154.75 109.75,152.07 112.41,152.14 C116.06,152.21 119.72,152.15 123.38,152.15 Z" id="Path" stroke="#0D3546" stroke-width="2.15" fill="#0D3546" fill-rule="nonzero" stroke-linecap="round" stroke-linejoin="round"></path>
            <line x1="116.79" y1="171.84" x2="108.73" y2="171.84" id="Path" stroke="#146AFF" stroke-width="2.15" fill="#146AFF" fill-rule="nonzero" stroke-linecap="round" stroke-linejoin="round"></line>
            <line x1="116.79" y1="164.82" x2="108.73" y2="164.82" id="Path" stroke="#146AFF" stroke-width="2.15" fill="#146AFF" fill-rule="nonzero" stroke-linecap="round" stroke-linejoin="round"></line>
            <line x1="116.79" y1="158.07" x2="109.45" y2="158.07" id="Path" stroke="#146AFF" stroke-width="2.15" fill="#146AFF" fill-rule="nonzero" stroke-linecap="round" stroke-linejoin="round"></line>
            <path d="M126.79,149.41 C129.79,149.41 128.15,149.41 131.1,149.41 C136.63,149.41 140.1,152.91 140.1,158.41 C140.1,161.81 140.05,165.2 140.1,168.6 C140.16599,170.550435 139.57429,172.466416 138.42,174.04 C133.98,180.18 129.526667,186.31 125.06,192.43 C123.94,193.97 122.14,193.84 121.44,192.06 C121.080628,191.095166 121.06298,190.036274 121.39,189.06 C122.82,185.38 124.45,181.77 126.03,178.14 C126.84,176.29 126.5,175.75 124.51,175.73 C119.22,175.67 113.92,175.73 108.64,175.53 C105.7,175.41 103.87,174.53 103.79,172.61 C103.606788,171.040024 104.576216,169.564808 106.09,169.11 C106.09,169.11 105.68,168.95 105.53,168.87 C104.19412,168.342026 103.316458,167.05143 103.316458,165.615 C103.316458,164.17857 104.19412,162.887974 105.53,162.36 C107.22,161.76 106.84,162.47 105.28,161.55 C104.351086,161.045004 103.709973,160.136601 103.545374,159.092183 C103.380775,158.047765 103.711427,156.986213 104.44,156.22 C104.959972,155.626723 105.721989,155.302774 106.51,155.34 L106.15,154.95 C103.71,152 106.98,149.33 109.64,149.39 C112.01,149.45 115.95,149.44 118.33,149.39" id="Path" stroke="#0D3546" stroke-width="3.23" fill="#FFFFFF" fill-rule="nonzero" stroke-linecap="round" stroke-linejoin="round"></path>
            <line x1="114.06" y1="169.11" x2="105.99" y2="169.11" id="Path" stroke="#0D3546" stroke-width="3.23" fill="#FFFFFF" fill-rule="nonzero" stroke-linecap="round" stroke-linejoin="round"></line>
            <line x1="114.06" y1="162.09" x2="105.99" y2="162.09" id="Path" stroke="#0D3546" stroke-width="3.23" fill="#FFFFFF" fill-rule="nonzero" stroke-linecap="round" stroke-linejoin="round"></line>
            <line x1="114.06" y1="155.34" x2="106.71" y2="155.34" id="Path" stroke="#0D3546" stroke-width="3.23" fill="#FFFFFF" fill-rule="nonzero" stroke-linecap="round" stroke-linejoin="round"></line>
            <circle id="Oval" fill="#0D3546" fill-rule="nonzero" cx="122.61" cy="149.45" r="1.64"></circle>
            <circle id="Oval" fill="#0D3546" fill-rule="nonzero" cx="85.12" cy="138.38" r="18.38"></circle>
            <path d="M85.2,136.15 C84.4741893,136.294028 83.7330683,135.986781 83.3220606,135.371462 C82.9110529,134.756142 82.9110529,133.953858 83.3220606,133.338538 C83.7330683,132.723219 84.4741893,132.415972 85.2,132.56 C86.1064679,132.605721 86.9704372,132.958362 87.65,133.56 C88.7420163,134.380913 90.250753,134.360358 91.32,133.51 C91.8076811,133.120862 92.0858259,132.526431 92.0720954,131.902674 C92.0583649,131.278917 91.7543322,130.697301 91.25,130.33 C90.2371184,129.491673 89.0678358,128.862844 87.81,128.48 L87.81,126.3 C87.6138567,125.010048 86.5047795,124.056863 85.2,124.056863 C83.8952205,124.056863 82.7861433,125.010048 82.59,126.3 L82.59,128.5 C79.8874657,129.201623 77.9499825,131.571905 77.8,134.36 C77.8,137.81 81.12,140.61 85.2,140.61 C85.9258107,140.465972 86.6669317,140.773219 87.0779394,141.388538 C87.4889471,142.003858 87.4889471,142.806142 87.0779394,143.421462 C86.6669317,144.036781 85.9258107,144.344028 85.2,144.2 C84.044547,144.135818 82.9634433,143.609681 82.2,142.74 C81.1813809,141.830397 79.6769742,141.723527 78.54,142.48 C78.0131815,142.830999 77.6717902,143.399984 77.61,144.03 C77.5601128,144.631199 77.7842584,145.222797 78.22,145.64 C79.4220946,146.860472 80.9055454,147.767026 82.54,148.28 L82.54,150.46 C82.7361433,151.749952 83.8452205,152.703137 85.15,152.703137 C86.4547795,152.703137 87.5638567,151.749952 87.76,150.46 L87.76,148.26 C90.4627901,147.565164 92.402054,145.196752 92.55,142.41 C92.6,139 89.28,136.15 85.2,136.15 Z" id="Path" fill="#FFFFFF" fill-rule="nonzero"></path>
            <path d="M85,410.35 L108.74,392.54 L174.48,449.15 C174.48,449.15 186,437.82 202.14,422 L240.24,456.19 L188.12,503.44 C188.12,503.44 174.88,517.59 150.23,496.14 L82.23,411.69 L85,410.35 Z" id="Path" fill="#005EFF" fill-rule="nonzero"></path>
            <line x1="404.04" y1="422.21" x2="409.06" y2="538.16" id="Path" stroke="#003648" stroke-width="1.3" stroke-linecap="round" stroke-linejoin="round"></line>
            <circle id="Oval" fill="#003648" fill-rule="nonzero" cx="94.08" cy="416.28" r="2.74"></circle>
            <circle id="Oval" fill="#003648" fill-rule="nonzero" cx="100.93" cy="424.04" r="2.74"></circle>
            <circle id="Oval" fill="#003648" fill-rule="nonzero" cx="340.59" cy="525.69" r="2.74"></circle>
            <circle id="Oval" fill="#003648" fill-rule="nonzero" cx="339.02" cy="508.1" r="2.74"></circle>
            <polyline id="Path" stroke="#003648" stroke-width="1.3" stroke-linecap="round" stroke-linejoin="round" points="337.24 490.83 364.45 428.45 351.06 412.54 392.09 372.76"></polyline>
            <polyline id="Path" stroke="#003648" stroke-width="1.3" stroke-linecap="round" stroke-linejoin="round" points="275.27 486.65 260.62 423.01 273.18 408.77 269.83 356.85 306.68 332.25"></polyline>
        </g>
    </g>
</svg>